{"glyphs":{"0":{"ha":794,"x_min":57,"x_max":736,"o":"m 736 497 q 718 282 736 376 q 659 122 700 188 q 553 21 618 56 q 396 -14 489 -14 q 204 47 279 -14 q 93 223 129 108 q 57 497 57 338 q 90 771 57 657 q 198 946 124 885 q 396 1007 272 1007 q 588 947 513 1007 q 699 772 663 886 q 736 497 736 657 m 233 496 q 249 294 233 375 q 299 172 264 213 q 396 131 335 131 q 492 171 457 131 q 544 293 528 211 q 560 496 560 375 q 544 699 560 618 q 492 822 528 781 q 396 863 457 863 q 299 822 335 863 q 249 700 264 781 q 233 496 233 619 z "},"1":{"ha":794,"x_min":97,"x_max":543,"o":"m 543 0 l 368 0 l 368 618 q 369 681 368 649 q 371 745 369 713 q 374 806 372 778 q 339 773 360 792 q 296 735 318 754 l 185 646 l 97 754 l 397 992 l 543 992 l 543 0 z "},"2":{"ha":794,"x_min":60,"x_max":739,"o":"m 739 0 l 60 0 l 60 129 l 313 385 q 435 516 388 461 q 506 618 483 571 q 529 721 529 665 q 490 823 529 789 q 388 857 451 857 q 271 831 325 857 q 158 758 217 806 l 63 874 q 151 940 104 910 q 258 988 199 969 q 397 1006 318 1006 q 562 972 493 1006 q 668 878 631 938 q 706 739 706 818 q 674 590 706 658 q 581 456 642 522 q 438 311 521 390 l 281 160 l 281 151 l 739 151 l 739 0 z "},"3":{"ha":794,"x_min":57,"x_max":731,"o":"m 700 765 q 673 649 700 699 q 599 567 646 599 q 489 522 551 536 l 489 518 q 669 444 608 504 q 731 286 731 385 q 689 132 731 200 q 560 25 647 64 q 338 -14 474 -14 q 188 -1 257 -14 q 57 40 118 13 l 57 194 q 190 146 119 163 q 324 129 261 129 q 494 173 444 129 q 544 294 544 217 q 519 376 544 344 q 438 424 494 408 q 292 440 382 440 l 208 440 l 208 581 l 293 581 q 431 600 381 581 q 503 654 482 619 q 525 735 525 689 q 486 828 525 794 q 369 861 447 861 q 279 850 319 861 q 206 822 239 839 q 143 785 172 804 l 60 906 q 194 976 115 947 q 378 1006 272 1006 q 616 941 532 1006 q 700 765 700 876 z "},"4":{"ha":794,"x_min":26,"x_max":769,"o":"m 769 213 l 640 213 l 640 0 l 468 0 l 468 213 l 26 213 l 26 343 l 472 994 l 640 994 l 640 356 l 769 356 l 769 213 m 468 578 q 469 638 468 607 q 471 700 469 669 q 474 756 472 731 q 476 794 475 781 l 471 794 q 444 740 458 768 q 411 686 429 711 l 186 356 l 468 356 l 468 578 z "},"5":{"ha":794,"x_min":75,"x_max":725,"o":"m 404 624 q 571 589 499 624 q 684 488 643 554 q 725 326 725 422 q 681 144 725 221 q 550 27 636 68 q 339 -14 464 -14 q 193 0 261 -14 q 75 40 125 14 l 75 196 q 199 150 126 168 q 335 132 271 132 q 449 151 401 132 q 521 209 496 169 q 546 310 546 249 q 493 436 546 393 q 329 479 440 479 q 245 472 290 479 q 171 458 200 465 l 96 500 l 133 992 l 656 992 l 656 839 l 288 839 l 267 610 q 323 619 290 614 q 404 624 356 624 z "},"6":{"ha":794,"x_min":60,"x_max":742,"o":"m 60 422 q 72 592 60 508 q 114 749 83 675 q 199 881 144 824 q 338 972 254 939 q 540 1004 421 1004 q 607 1001 569 1004 q 669 993 644 999 l 669 849 q 612 860 643 857 q 550 864 581 864 q 394 838 456 864 q 297 765 332 813 q 245 656 261 718 q 225 519 229 594 l 233 519 q 284 579 254 553 q 357 621 314 606 q 457 636 400 636 q 607 599 543 636 q 706 494 671 563 q 742 326 742 425 q 701 144 742 221 q 588 27 661 68 q 413 -14 514 -14 q 274 13 338 -14 q 161 92 210 39 q 86 228 113 146 q 60 422 60 311 m 408 129 q 525 177 481 129 q 569 325 569 225 q 531 452 569 406 q 414 499 492 499 q 320 476 360 499 q 258 417 281 453 q 236 344 236 382 q 247 268 236 306 q 279 199 257 231 q 334 148 301 167 q 408 129 367 129 z "},"7":{"ha":794,"x_min":46,"x_max":740,"o":"m 167 0 l 553 840 l 46 840 l 46 992 l 740 992 l 740 874 l 354 0 l 167 0 z "},"8":{"ha":794,"x_min":56,"x_max":738,"o":"m 397 1004 q 553 978 483 1004 q 664 899 622 951 q 706 767 706 846 q 681 662 706 707 q 616 583 657 617 q 524 524 575 550 q 629 459 581 496 q 708 373 678 422 q 738 257 738 324 q 695 114 738 175 q 576 19 653 53 q 399 -14 500 -14 q 213 18 289 -14 q 96 110 136 50 q 56 251 56 169 q 83 369 56 319 q 154 456 110 419 q 251 518 199 493 q 168 581 206 546 q 109 662 131 617 q 88 768 88 707 q 130 899 88 846 q 242 978 172 951 q 397 1004 313 1004 m 222 260 q 265 159 222 199 q 396 119 308 119 q 526 158 482 119 q 571 260 571 196 q 547 333 571 301 q 486 390 524 365 q 403 436 449 415 l 383 446 q 297 397 333 424 q 242 336 261 369 q 222 260 222 303 m 396 872 q 295 842 335 872 q 256 756 256 811 q 275 686 256 715 q 327 636 294 657 q 399 596 360 615 q 469 635 438 614 q 519 685 500 656 q 538 756 538 714 q 498 842 538 811 q 396 872 458 872 z "},"9":{"ha":794,"x_min":54,"x_max":736,"o":"m 736 568 q 724 399 736 483 q 681 241 711 315 q 596 109 650 167 q 458 19 542 51 q 254 -14 374 -14 q 188 -11 226 -14 q 125 -3 150 -8 l 125 142 q 183 131 151 135 q 244 126 214 126 q 401 152 339 126 q 498 224 463 178 q 550 334 533 271 q 569 469 567 397 l 561 469 q 512 411 540 438 q 441 369 483 385 q 335 354 399 354 q 187 390 250 354 q 89 495 124 426 q 54 663 54 564 q 94 846 54 769 q 209 963 135 922 q 383 1004 283 1004 q 522 977 458 1004 q 634 897 586 950 q 709 761 682 843 q 736 568 736 679 m 386 860 q 271 813 315 860 q 226 665 226 765 q 265 537 226 583 q 382 490 303 490 q 476 514 436 490 q 538 572 515 538 q 560 646 560 607 q 549 722 560 683 q 516 792 538 760 q 462 842 494 824 q 386 860 429 860 z "},"\u0000":{"ha":0,"x_min":0,"x_max":0,"o":""},"\r":{"ha":361,"x_min":0,"x_max":0,"o":""}," ":{"ha":361,"x_min":0,"x_max":0,"o":""},"!":{"ha":385,"x_min":85,"x_max":299,"o":"m 260 306 l 125 306 l 90 992 l 294 992 l 260 306 m 85 89 q 116 173 85 149 q 192 197 147 197 q 267 173 235 197 q 299 89 299 149 q 267 7 299 32 q 192 -18 235 -18 q 116 7 147 -18 q 85 89 85 32 z "},"\"":{"ha":628,"x_min":88,"x_max":540,"o":"m 261 992 l 233 633 l 115 633 l 88 992 l 261 992 m 540 992 l 513 633 l 394 633 l 367 992 l 540 992 z "},"#":{"ha":897,"x_min":32,"x_max":864,"o":"m 674 585 l 638 403 l 818 403 l 818 281 l 614 281 l 560 0 l 431 0 l 485 281 l 328 281 l 275 0 l 147 0 l 199 281 l 32 281 l 32 403 l 222 403 l 258 585 l 82 585 l 82 707 l 281 707 l 335 990 l 464 990 l 411 707 l 569 707 l 624 990 l 750 990 l 697 707 l 864 707 l 864 585 l 674 585 m 350 403 l 508 403 l 544 585 l 386 585 l 350 403 z "},"$":{"ha":794,"x_min":69,"x_max":732,"o":"m 351 60 q 195 76 267 63 q 71 114 124 90 l 71 269 q 201 224 124 244 q 351 200 279 203 l 351 436 q 188 509 250 472 q 98 594 126 546 q 69 708 69 642 q 105 828 69 778 q 204 908 140 878 q 351 943 268 938 l 351 1054 l 443 1054 l 443 946 q 585 928 519 943 q 710 888 650 913 l 656 750 q 549 784 604 771 q 443 801 494 797 l 443 571 q 590 513 524 544 q 694 433 656 481 q 732 308 732 385 q 658 143 732 208 q 443 64 585 78 l 443 -81 l 351 -81 l 351 60 m 443 206 q 531 238 503 214 q 560 299 560 261 q 548 342 560 324 q 510 374 536 360 q 443 403 485 389 l 443 206 m 351 799 q 291 783 315 794 q 254 754 267 772 q 242 713 242 736 q 252 669 242 688 q 287 635 263 650 q 351 606 311 619 l 351 799 z "},"%":{"ha":1215,"x_min":51,"x_max":1164,"o":"m 274 1006 q 442 924 382 1006 q 501 696 501 843 q 444 466 501 549 q 274 383 388 383 q 110 466 169 383 q 51 696 51 549 q 106 924 51 843 q 274 1006 161 1006 m 275 889 q 211 839 231 889 q 192 694 192 789 q 211 550 192 600 q 275 500 231 500 q 340 549 319 500 q 360 694 360 599 q 340 839 360 789 q 275 889 319 889 m 953 992 l 403 0 l 260 0 l 810 992 l 953 992 m 936 610 q 1103 528 1043 610 q 1164 300 1164 447 q 1108 70 1164 153 q 936 -12 1051 -12 q 774 70 832 -12 q 715 300 715 153 q 770 528 715 447 q 936 610 825 610 m 938 492 q 874 442 893 492 q 856 299 856 393 q 874 153 856 204 q 938 103 893 103 q 1003 153 982 103 q 1024 299 1024 203 q 1003 443 1024 394 q 938 492 982 492 z "},"&":{"ha":1032,"x_min":63,"x_max":1031,"o":"m 428 1006 q 565 981 506 1006 q 658 908 624 956 q 692 792 692 860 q 635 635 692 699 q 493 522 578 571 l 714 308 q 766 408 744 354 q 803 518 788 461 l 983 518 q 924 352 961 436 q 828 199 886 268 l 1031 0 l 810 0 l 715 92 q 627 36 675 60 q 524 -1 579 13 q 404 -14 469 -14 q 222 20 299 -14 q 103 117 144 54 q 63 264 63 179 q 85 386 63 335 q 152 476 108 438 q 257 549 196 515 q 199 624 222 588 q 163 699 175 661 q 150 782 150 738 q 185 902 150 851 q 282 979 219 953 q 428 1006 344 1006 m 360 443 q 299 397 324 421 q 260 344 274 372 q 246 278 246 315 q 293 174 246 213 q 414 135 340 135 q 524 153 476 135 q 608 199 572 171 l 360 443 m 425 869 q 349 847 382 869 q 315 774 315 824 q 335 697 315 733 q 393 621 356 661 q 494 694 461 658 q 526 778 526 731 q 497 846 526 822 q 425 869 467 869 z "},"'":{"ha":347,"x_min":88,"x_max":261,"o":"m 261 992 l 233 633 l 115 633 l 88 992 l 261 992 z "},"(":{"ha":450,"x_min":56,"x_max":408,"o":"m 56 381 q 77 603 56 494 q 144 810 99 711 q 260 992 190 908 l 408 992 q 265 704 314 861 q 215 382 215 547 q 238 169 215 275 q 302 -35 260 63 q 407 -219 344 -133 l 260 -219 q 144 -41 190 -137 q 77 163 99 56 q 56 381 56 269 z "},")":{"ha":450,"x_min":42,"x_max":394,"o":"m 394 381 q 373 163 394 269 q 306 -41 351 56 q 190 -219 261 -137 l 43 -219 q 149 -35 106 -133 q 214 169 192 64 q 236 382 236 275 q 214 599 236 492 q 149 806 192 706 q 42 992 107 906 l 190 992 q 306 810 261 908 q 373 603 351 711 q 394 381 394 494 z "},"*":{"ha":758,"x_min":47,"x_max":710,"o":"m 458 1056 l 431 800 l 689 872 l 710 717 l 471 699 l 626 490 l 485 415 l 375 639 l 278 415 l 131 490 l 285 699 l 47 718 l 71 872 l 324 800 l 296 1056 l 458 1056 z "},"+":{"ha":794,"x_min":64,"x_max":729,"o":"m 461 554 l 729 554 l 729 425 l 461 425 l 461 154 l 331 154 l 331 425 l 64 425 l 64 554 l 331 554 l 331 828 l 461 828 l 461 554 z "},",":{"ha":388,"x_min":49,"x_max":294,"o":"m 294 146 q 263 41 282 97 q 221 -72 243 -15 q 175 -179 199 -128 l 49 -179 q 75 -65 63 -125 q 99 54 88 -4 q 117 161 110 113 l 285 161 l 294 146 z "},"-":{"ha":444,"x_min":46,"x_max":400,"o":"m 46 299 l 46 446 l 400 446 l 400 299 l 46 299 z "},".":{"ha":383,"x_min":85,"x_max":299,"o":"m 85 89 q 116 173 85 149 q 192 197 147 197 q 267 173 236 197 q 299 89 299 149 q 267 7 299 32 q 192 -18 236 -18 q 116 7 147 -18 q 85 89 85 32 z "},"/":{"ha":554,"x_min":11,"x_max":544,"o":"m 544 997 l 175 -6 l 11 -6 l 381 997 l 544 997 z "},":":{"ha":383,"x_min":85,"x_max":299,"o":"m 85 89 q 116 173 85 149 q 192 197 147 197 q 267 173 236 197 q 299 89 299 149 q 267 7 299 32 q 192 -18 236 -18 q 116 7 147 -18 q 85 89 85 32 m 85 661 q 116 745 85 721 q 192 769 147 769 q 267 745 236 769 q 299 661 299 721 q 267 578 299 604 q 192 553 236 553 q 116 578 147 553 q 85 661 85 604 z "},";":{"ha":388,"x_min":43,"x_max":299,"o":"m 290 146 q 258 41 278 97 q 216 -72 239 -15 q 171 -179 193 -128 l 43 -179 q 63 -94 53 -139 q 82 -5 72 -50 q 99 83 92 40 q 113 161 107 125 l 281 161 l 290 146 m 86 661 q 117 745 86 721 q 192 769 149 769 q 267 746 236 769 q 299 661 299 722 q 267 579 299 604 q 192 554 236 554 q 117 579 149 554 q 86 661 86 604 z "},"<":{"ha":794,"x_min":64,"x_max":729,"o":"m 729 146 l 64 440 l 64 526 l 729 860 l 729 717 l 243 490 l 729 289 l 729 146 z "},"=":{"ha":794,"x_min":67,"x_max":726,"o":"m 67 558 l 67 688 l 726 688 l 726 558 l 67 558 m 67 290 l 67 419 l 726 419 l 726 290 l 67 290 z "},">":{"ha":794,"x_min":64,"x_max":729,"o":"m 64 289 l 550 489 l 64 717 l 64 860 l 729 526 l 729 440 l 64 146 l 64 289 z "},"?":{"ha":640,"x_min":10,"x_max":608,"o":"m 197 351 q 208 437 197 400 q 244 506 218 474 q 315 575 269 539 q 394 641 367 614 q 431 693 421 668 q 442 751 442 718 q 405 831 442 803 q 301 860 368 860 q 185 842 240 860 q 74 796 129 825 l 10 926 q 149 984 74 963 q 314 1006 224 1006 q 531 939 454 1006 q 608 761 608 872 q 590 658 608 703 q 535 576 571 614 q 446 500 499 539 q 378 440 401 465 q 345 391 354 415 q 336 333 336 367 l 336 306 l 197 306 l 197 351 m 165 89 q 197 173 165 149 q 274 197 228 197 q 348 173 317 197 q 379 89 379 149 q 348 7 379 32 q 274 -18 317 -18 q 197 7 228 -18 q 165 89 165 32 z "},"@":{"ha":1247,"x_min":71,"x_max":1176,"o":"m 1176 503 q 1161 376 1176 438 q 1115 264 1146 314 q 1038 184 1083 214 q 931 154 992 154 q 831 185 871 154 q 776 260 792 215 l 768 260 q 694 184 742 214 q 581 154 647 154 q 406 227 465 154 q 346 418 346 300 q 383 581 346 510 q 491 694 421 653 q 660 735 561 735 q 785 724 724 735 q 883 699 847 713 l 869 415 q 869 383 869 397 q 868 360 868 369 q 888 283 868 303 q 935 264 908 264 q 996 297 971 264 q 1035 384 1021 329 q 1049 504 1049 439 q 1001 708 1049 624 q 868 837 954 792 q 665 882 782 882 q 467 847 554 882 q 322 747 381 811 q 233 594 264 682 q 203 400 203 506 q 249 184 203 274 q 384 47 294 94 q 604 -1 474 -1 q 770 17 686 -1 q 922 61 854 36 l 922 -57 q 779 -100 858 -83 q 608 -117 700 -117 q 319 -55 439 -117 q 135 122 199 7 q 71 399 71 238 q 112 635 71 526 q 230 825 153 744 q 417 951 307 906 q 665 996 528 996 q 872 962 778 996 q 1033 864 965 928 q 1139 708 1101 800 q 1176 503 1176 617 m 485 418 q 517 300 485 336 q 600 264 549 264 q 699 317 669 264 q 735 467 729 369 l 743 614 q 706 621 726 618 q 663 624 685 624 q 560 594 599 624 q 503 518 521 565 q 485 418 485 471 z "},"A":{"ha":933,"x_min":0,"x_max":932,"o":"m 742 0 l 649 261 l 282 261 l 190 0 l 0 0 l 364 996 l 568 996 l 932 0 l 742 0 m 519 661 q 503 715 514 678 q 481 791 492 751 q 465 853 471 831 q 449 787 458 824 q 431 717 440 750 q 415 661 422 685 l 329 414 l 604 414 l 519 661 z "},"B":{"ha":915,"x_min":124,"x_max":844,"o":"m 432 992 q 722 933 628 992 q 817 746 817 875 q 794 640 817 685 q 731 566 771 594 q 640 526 692 538 l 640 519 q 741 485 694 510 q 816 412 788 460 q 844 285 844 364 q 801 131 844 194 q 678 33 758 67 q 488 0 597 0 l 124 0 l 124 992 l 432 992 m 447 585 q 592 621 553 585 q 632 722 632 657 q 584 818 632 788 q 433 849 536 849 l 304 849 l 304 585 l 447 585 m 304 446 l 304 144 l 464 144 q 615 188 572 144 q 657 300 657 231 q 638 375 657 342 q 575 427 619 408 q 456 446 531 446 l 304 446 z "},"C":{"ha":886,"x_min":79,"x_max":843,"o":"m 556 854 q 435 830 489 854 q 343 758 381 806 q 285 644 306 711 q 265 494 265 578 q 298 303 265 383 q 397 180 331 222 q 561 138 463 138 q 685 151 626 138 q 803 185 744 165 l 803 32 q 681 -3 744 8 q 538 -14 618 -14 q 281 49 383 -14 q 129 227 179 113 q 79 496 79 342 q 110 701 79 608 q 203 863 142 794 q 353 969 264 932 q 557 1006 442 1006 q 706 990 632 1006 q 843 943 781 974 l 782 797 q 676 838 732 821 q 556 854 621 854 z "},"D":{"ha":1017,"x_min":124,"x_max":936,"o":"m 936 510 q 874 228 936 342 q 695 57 811 114 q 418 0 579 0 l 124 0 l 124 992 l 444 992 q 708 936 597 992 q 877 774 818 881 q 936 510 936 668 m 749 504 q 713 694 749 619 q 606 806 676 769 q 433 843 536 843 l 304 843 l 304 150 l 410 150 q 665 238 581 150 q 749 504 749 326 z "},"E":{"ha":775,"x_min":129,"x_max":693,"o":"m 693 0 l 129 0 l 129 992 l 693 992 l 693 843 l 307 843 l 307 590 l 668 590 l 668 442 l 307 442 l 307 150 l 693 150 l 693 0 z "},"F":{"ha":747,"x_min":129,"x_max":692,"o":"m 304 0 l 129 0 l 129 992 l 692 992 l 692 843 l 304 843 l 304 551 l 665 551 l 665 403 l 304 403 l 304 0 z "},"G":{"ha":1008,"x_min":82,"x_max":900,"o":"m 525 544 l 900 544 l 900 40 q 738 0 821 14 q 549 -14 654 -14 q 294 46 399 -14 q 136 219 190 106 q 82 497 82 333 q 143 767 82 653 q 319 943 204 881 q 599 1006 433 1006 q 755 990 679 1006 q 893 946 831 974 l 832 800 q 723 840 785 824 q 594 856 661 856 q 419 811 493 856 q 306 685 346 767 q 267 494 267 604 q 297 308 267 389 q 394 181 328 226 q 568 136 461 136 q 658 141 621 136 q 725 154 694 146 l 725 393 l 525 393 l 525 544 z "},"H":{"ha":1050,"x_min":129,"x_max":921,"o":"m 921 0 l 743 0 l 743 440 l 307 440 l 307 0 l 129 0 l 129 992 l 307 992 l 307 592 l 743 592 l 743 992 l 921 992 l 921 0 z "},"I":{"ha":514,"x_min":49,"x_max":465,"o":"m 465 0 l 49 0 l 49 101 l 168 146 l 168 844 l 49 890 l 49 992 l 465 992 l 465 890 l 346 844 l 346 146 l 465 101 l 465 0 z "},"J":{"ha":429,"x_min":-106,"x_max":304,"o":"m 11 -281 q -56 -276 -28 -281 q -106 -265 -83 -271 l -106 -117 q -58 -126 -83 -122 q -6 -131 -33 -131 q 60 -117 29 -131 q 108 -65 90 -103 q 126 42 126 -28 l 126 992 l 304 992 l 304 46 q 267 -142 304 -71 q 165 -247 231 -214 q 11 -281 99 -281 z "},"K":{"ha":899,"x_min":129,"x_max":899,"o":"m 899 0 l 694 0 l 400 439 l 307 365 l 307 0 l 129 0 l 129 992 l 307 992 l 307 525 q 364 596 335 560 q 422 668 393 632 l 690 992 l 892 992 l 528 556 l 899 0 z "},"L":{"ha":758,"x_min":124,"x_max":717,"o":"m 124 0 l 124 992 l 304 992 l 304 151 l 717 151 l 717 0 l 124 0 z "},"M":{"ha":1290,"x_min":129,"x_max":1163,"o":"m 556 0 l 283 813 l 278 813 q 282 734 279 785 q 287 624 285 683 q 289 514 289 565 l 289 0 l 129 0 l 129 992 l 376 992 l 638 213 l 643 213 l 915 992 l 1163 992 l 1163 0 l 993 0 l 993 522 q 995 626 993 569 q 999 733 997 682 q 1003 811 1001 783 l 997 811 l 714 0 l 556 0 z "},"N":{"ha":1101,"x_min":129,"x_max":972,"o":"m 972 0 l 751 0 l 282 778 l 276 778 q 281 690 279 736 q 285 597 283 644 q 289 500 288 549 l 289 0 l 129 0 l 129 992 l 349 992 l 817 219 l 821 219 q 818 301 819 256 q 815 395 817 347 q 811 488 813 443 l 811 992 l 972 992 l 972 0 z "},"O":{"ha":1093,"x_min":79,"x_max":1014,"o":"m 1014 497 q 985 288 1014 382 q 898 126 956 194 q 753 22 840 58 q 547 -14 665 -14 q 339 23 426 -14 q 194 127 251 60 q 108 289 136 194 q 79 499 79 383 q 130 766 79 651 q 285 944 181 881 q 549 1007 389 1007 q 808 944 704 1007 q 963 766 911 881 q 1014 497 1014 651 m 268 497 q 297 306 268 386 q 389 182 326 225 q 547 139 451 139 q 706 182 644 139 q 795 306 767 225 q 824 497 824 386 q 759 760 824 665 q 549 856 694 856 q 389 813 451 856 q 297 689 326 769 q 268 497 268 608 z "},"P":{"ha":854,"x_min":124,"x_max":792,"o":"m 417 992 q 701 913 610 992 q 792 692 792 835 q 772 569 792 628 q 706 465 751 511 q 586 391 661 418 q 403 364 511 364 l 304 364 l 304 0 l 124 0 l 124 992 l 417 992 m 408 843 l 304 843 l 304 514 l 386 514 q 507 531 457 514 q 583 585 557 547 q 610 685 610 624 q 561 803 610 763 q 408 843 513 843 z "},"Q":{"ha":1093,"x_min":79,"x_max":1014,"o":"m 1014 497 q 985 289 1014 383 q 899 126 956 194 q 753 24 842 58 l 992 -236 l 754 -236 l 572 -12 q 560 -13 567 -12 q 547 -14 553 -14 q 339 23 426 -14 q 194 127 251 60 q 108 289 136 194 q 79 499 79 383 q 130 766 79 651 q 285 944 181 881 q 549 1007 389 1007 q 808 944 704 1007 q 963 766 911 881 q 1014 497 1014 651 m 268 497 q 297 306 268 386 q 389 182 326 225 q 547 139 451 139 q 706 182 644 139 q 795 306 767 225 q 824 497 824 386 q 759 760 824 665 q 549 856 694 856 q 389 813 451 856 q 297 689 326 769 q 268 497 268 608 z "},"R":{"ha":893,"x_min":124,"x_max":886,"o":"m 417 992 q 629 960 546 992 q 753 865 713 928 q 794 706 794 801 q 769 582 794 633 q 701 497 743 531 q 608 440 658 463 l 886 0 l 681 0 l 451 392 l 304 392 l 304 0 l 124 0 l 124 992 l 417 992 m 411 847 l 304 847 l 304 533 l 415 533 q 562 574 513 533 q 611 697 611 614 q 590 783 611 750 q 525 831 569 815 q 411 847 481 847 z "},"S":{"ha":764,"x_min":67,"x_max":706,"o":"m 706 271 q 663 119 706 183 q 538 21 619 56 q 344 -14 457 -14 q 241 -8 290 -14 q 148 11 192 -1 q 67 42 104 24 l 67 208 q 204 158 129 181 q 357 135 279 135 q 455 151 417 135 q 511 195 493 167 q 529 261 529 224 q 506 332 529 303 q 436 386 482 361 q 322 439 390 411 q 233 483 276 458 q 154 542 189 507 q 99 624 119 576 q 78 735 78 671 q 119 881 78 819 q 234 974 160 942 q 407 1006 308 1006 q 556 989 486 1006 q 693 942 625 972 l 636 799 q 518 840 575 825 q 401 856 461 856 q 321 841 354 856 q 271 800 288 826 q 254 739 254 774 q 275 671 254 699 q 340 619 296 643 q 453 564 383 594 q 589 492 533 529 q 675 401 644 454 q 706 271 706 349 z "},"T":{"ha":790,"x_min":22,"x_max":768,"o":"m 485 0 l 306 0 l 306 840 l 22 840 l 22 992 l 768 992 l 768 840 l 485 840 l 485 0 z "},"U":{"ha":1038,"x_min":121,"x_max":915,"o":"m 915 350 q 872 165 915 247 q 739 34 828 82 q 514 -14 650 -14 q 221 87 321 -14 q 121 353 121 188 l 121 992 l 299 992 l 299 371 q 354 194 299 250 q 519 138 410 138 q 645 164 597 138 q 716 244 693 190 q 739 372 739 297 l 739 992 l 915 992 l 915 350 z "},"V":{"ha":876,"x_min":0,"x_max":876,"o":"m 876 992 l 533 0 l 343 0 l 0 992 l 182 992 l 382 385 q 402 320 392 360 q 423 240 413 281 q 439 167 433 199 q 453 240 443 199 q 475 320 464 281 q 494 385 486 360 l 694 992 l 876 992 z "},"W":{"ha":1324,"x_min":7,"x_max":1317,"o":"m 1317 992 l 1060 0 l 864 0 l 707 569 q 694 621 701 590 q 680 684 688 651 q 667 745 672 717 q 660 788 661 774 q 653 745 658 774 q 640 684 647 717 q 626 620 633 651 q 613 567 619 589 l 460 0 l 263 0 l 7 992 l 185 992 l 321 426 q 335 366 328 399 q 349 299 342 333 q 361 233 356 265 q 369 175 367 200 q 378 234 372 201 q 390 301 383 267 q 404 366 397 335 q 418 419 411 397 l 574 992 l 746 992 l 904 418 q 919 363 911 394 q 933 298 926 332 q 945 232 940 264 q 954 175 950 200 q 966 254 958 210 q 984 344 974 299 q 1003 426 994 390 l 1139 992 l 1317 992 z "},"X":{"ha":886,"x_min":4,"x_max":881,"o":"m 881 0 l 675 0 l 439 385 l 201 0 l 4 0 l 333 513 l 25 992 l 224 992 l 443 633 l 660 992 l 857 992 l 549 507 l 881 0 z "},"Y":{"ha":838,"x_min":0,"x_max":838,"o":"m 419 550 l 644 992 l 838 992 l 508 386 l 508 0 l 329 0 l 329 379 l 0 992 l 196 992 l 419 550 z "},"Z":{"ha":800,"x_min":40,"x_max":760,"o":"m 760 0 l 40 0 l 40 121 l 533 842 l 54 842 l 54 992 l 746 992 l 746 871 l 254 150 l 760 150 l 760 0 z "},"[":{"ha":458,"x_min":103,"x_max":424,"o":"m 424 -219 l 103 -219 l 103 992 l 424 992 l 424 865 l 257 865 l 257 -93 l 424 -93 l 424 -219 z "},"\\":{"ha":554,"x_min":10,"x_max":544,"o":"m 174 997 l 544 -6 l 379 -6 l 10 997 l 174 997 z "},"]":{"ha":458,"x_min":35,"x_max":356,"o":"m 35 -93 l 201 -93 l 201 865 l 35 865 l 35 992 l 356 992 l 356 -219 l 35 -219 l 35 -93 z "},"^":{"ha":794,"x_min":40,"x_max":754,"o":"m 40 360 l 336 997 l 422 997 l 754 360 l 613 360 l 382 819 l 181 360 l 40 360 z "},"_":{"ha":588,"x_min":-3,"x_max":590,"o":"m 590 -217 l -3 -217 l -3 -125 l 590 -125 l 590 -217 z "},"`":{"ha":463,"x_min":56,"x_max":407,"o":"m 257 1064 q 302 995 275 1033 q 358 922 329 957 q 407 860 386 886 l 407 842 l 289 842 q 231 888 264 861 q 164 945 197 915 q 101 1003 131 975 q 56 1050 72 1031 l 56 1064 l 257 1064 z "},"a":{"ha":813,"x_min":58,"x_max":708,"o":"m 425 767 q 637 702 565 767 q 708 506 708 638 l 708 0 l 583 0 l 550 104 l 544 104 q 478 38 513 64 q 400 -1 444 11 q 293 -14 356 -14 q 173 11 226 -14 q 89 88 119 36 q 58 218 58 139 q 145 394 58 333 q 407 460 232 454 l 533 464 l 533 496 q 499 603 533 572 q 403 635 464 635 q 295 617 349 635 q 192 578 242 600 l 139 700 q 268 749 194 731 q 425 767 342 767 m 442 353 q 283 315 328 347 q 239 222 239 282 q 271 144 239 169 q 353 118 303 118 q 481 163 429 118 q 533 292 533 207 l 533 356 l 442 353 z "},"b":{"ha":869,"x_min":108,"x_max":799,"o":"m 285 806 q 283 722 285 761 q 276 654 281 682 l 285 654 q 368 734 315 701 q 506 767 421 767 q 717 668 636 767 q 799 378 799 569 q 762 161 799 249 q 658 30 725 74 q 501 -14 590 -14 q 366 17 417 -14 q 285 88 315 47 l 272 88 l 240 0 l 108 0 l 108 1056 l 285 1056 l 285 806 m 456 625 q 355 599 393 625 q 301 522 317 574 q 285 390 285 471 l 285 374 q 322 192 285 254 q 458 131 360 131 q 578 194 538 131 q 618 379 618 258 q 578 563 618 501 q 456 625 539 625 z "},"c":{"ha":697,"x_min":69,"x_max":656,"o":"m 426 -14 q 240 27 321 -14 q 115 153 160 68 q 69 372 69 239 q 118 598 69 511 q 250 726 167 685 q 439 767 333 767 q 558 754 501 767 q 656 721 615 742 l 603 583 q 522 610 565 599 q 438 622 479 622 q 334 594 376 622 q 271 512 292 567 q 250 374 250 457 q 272 240 250 294 q 334 159 293 186 q 433 132 375 132 q 544 147 493 132 q 639 185 594 161 l 639 38 q 547 0 597 14 q 426 -14 496 -14 z "},"d":{"ha":869,"x_min":69,"x_max":761,"o":"m 363 -14 q 151 85 232 -14 q 69 375 69 183 q 151 668 69 569 q 367 767 233 767 q 463 752 422 767 q 535 713 504 738 q 586 657 565 688 l 593 657 q 587 720 590 679 q 583 793 583 761 l 583 1056 l 761 1056 l 761 0 l 624 0 l 590 99 l 583 99 q 533 42 563 68 q 460 1 503 17 q 363 -14 418 -14 m 415 129 q 553 184 513 129 q 593 351 593 239 l 593 374 q 555 559 593 494 q 414 624 517 624 q 292 558 335 624 q 250 372 250 492 q 292 191 250 253 q 415 129 335 129 z "},"e":{"ha":813,"x_min":69,"x_max":746,"o":"m 418 767 q 593 726 519 767 q 706 610 667 686 q 746 425 746 533 l 746 335 l 250 335 q 307 178 253 233 q 461 122 361 122 q 589 136 532 122 q 706 176 646 150 l 706 38 q 590 -1 650 11 q 446 -14 531 -14 q 251 28 336 -14 q 117 157 165 71 q 69 371 69 243 q 113 588 69 500 q 235 722 157 676 q 418 767 314 767 m 421 636 q 305 590 349 636 q 254 458 261 544 l 575 458 q 558 551 575 511 q 508 613 542 590 q 421 636 474 636 z "},"f":{"ha":515,"x_min":25,"x_max":576,"o":"m 503 621 l 321 621 l 321 0 l 146 0 l 146 621 l 25 621 l 25 704 l 146 754 l 146 806 q 176 958 146 903 q 265 1038 207 1014 q 403 1063 324 1063 q 503 1053 458 1063 q 576 1033 547 1044 l 532 903 q 480 916 508 910 q 418 922 451 922 q 344 890 368 922 q 321 801 321 858 l 321 753 l 503 753 l 503 621 z "},"g":{"ha":869,"x_min":69,"x_max":761,"o":"m 365 767 q 497 738 442 767 q 589 657 551 710 l 596 657 l 614 753 l 761 753 l 761 -8 q 722 -187 761 -115 q 602 -297 682 -260 q 399 -333 522 -333 q 245 -322 314 -333 q 118 -287 176 -311 l 118 -133 q 245 -176 178 -161 q 397 -192 313 -192 q 536 -146 488 -192 q 585 -18 585 -100 l 585 4 q 587 51 585 22 q 590 99 589 79 l 585 99 q 496 16 550 46 q 364 -14 442 -14 q 149 88 228 -14 q 69 375 69 189 q 149 663 69 560 q 365 767 229 767 m 414 625 q 324 596 361 625 q 269 510 288 567 q 250 374 250 454 q 292 188 250 250 q 417 126 335 126 q 497 140 464 126 q 552 180 531 153 q 584 249 574 207 q 594 347 594 290 l 594 378 q 576 517 594 463 q 517 599 557 572 q 414 625 478 625 z "},"h":{"ha":886,"x_min":108,"x_max":782,"o":"m 285 807 q 282 719 285 758 q 276 654 279 679 l 286 654 q 344 717 310 693 q 422 754 379 742 q 510 767 464 767 q 656 738 594 767 q 749 648 717 708 q 782 490 782 588 l 782 0 l 606 0 l 606 454 q 572 583 606 540 q 468 625 539 625 q 358 594 399 625 q 301 507 318 564 q 285 367 285 450 l 285 0 l 108 0 l 108 1056 l 285 1056 l 285 807 z "},"i":{"ha":393,"x_min":100,"x_max":296,"o":"m 285 753 l 285 0 l 108 0 l 108 753 l 285 753 m 199 1044 q 267 1024 238 1044 q 296 951 296 1003 q 267 880 296 901 q 199 858 238 858 q 128 880 157 858 q 100 951 100 901 q 128 1024 100 1003 q 199 1044 157 1044 z "},"j":{"ha":393,"x_min":-74,"x_max":296,"o":"m 46 -333 q -19 -328 13 -333 q -74 -317 -51 -324 l -74 -176 q -32 -186 -53 -182 q 14 -190 -11 -190 q 81 -167 53 -190 q 108 -74 108 -143 l 108 753 l 285 753 l 285 -93 q 260 -217 285 -162 q 184 -302 236 -271 q 46 -333 132 -333 m 100 951 q 128 1024 100 1003 q 197 1044 157 1044 q 266 1024 236 1044 q 296 951 296 1003 q 266 880 296 901 q 197 858 236 858 q 128 880 157 858 q 100 951 100 901 z "},"k":{"ha":817,"x_min":113,"x_max":811,"o":"m 286 554 q 283 478 286 518 q 278 401 281 439 l 282 401 q 308 438 293 418 q 340 478 324 458 q 371 515 356 499 l 593 753 l 792 753 l 490 428 l 811 0 l 607 0 l 374 322 l 286 250 l 286 0 l 113 0 l 113 1056 l 286 1056 l 286 554 z "},"l":{"ha":393,"x_min":108,"x_max":285,"o":"m 285 0 l 108 0 l 108 1056 l 285 1056 l 285 0 z "},"m":{"ha":1333,"x_min":108,"x_max":1229,"o":"m 971 767 q 1164 701 1099 767 q 1229 490 1229 636 l 1229 0 l 1054 0 l 1054 456 q 1022 584 1054 543 q 925 625 990 625 q 795 565 833 625 q 757 392 757 504 l 757 0 l 581 0 l 581 456 q 567 551 581 514 q 524 606 553 588 q 453 625 496 625 q 351 594 388 625 q 300 507 315 564 q 285 367 285 450 l 285 0 l 108 0 l 108 753 l 246 753 l 271 654 l 278 654 q 333 716 300 690 q 410 754 367 742 q 501 767 453 767 q 644 738 588 767 q 731 649 700 708 l 738 649 q 837 738 775 708 q 971 767 899 767 z "},"n":{"ha":886,"x_min":108,"x_max":782,"o":"m 513 767 q 711 701 640 767 q 782 490 782 636 l 782 0 l 607 0 l 607 454 q 573 583 607 540 q 468 625 539 625 q 324 558 363 625 q 285 367 285 492 l 285 0 l 108 0 l 108 753 l 244 753 l 269 651 l 278 651 q 339 716 303 690 q 419 754 375 742 q 513 767 463 767 z "},"o":{"ha":857,"x_min":69,"x_max":788,"o":"m 788 378 q 763 212 788 285 q 691 88 738 139 q 577 12 644 38 q 426 -14 510 -14 q 283 12 349 -14 q 171 88 218 38 q 97 212 124 139 q 69 378 69 285 q 113 590 69 504 q 238 722 157 676 q 431 767 318 767 q 616 722 536 767 q 742 590 696 676 q 788 378 788 504 m 250 378 q 269 242 250 300 q 327 154 288 185 q 429 124 367 124 q 531 154 492 124 q 589 242 571 185 q 607 378 607 300 q 588 514 607 458 q 531 599 569 569 q 428 629 492 629 q 292 563 335 629 q 250 378 250 497 z "},"p":{"ha":869,"x_min":108,"x_max":799,"o":"m 506 767 q 719 669 640 767 q 799 378 799 571 q 761 163 799 250 q 657 31 724 75 q 501 -14 590 -14 q 404 1 446 -14 q 333 38 363 15 q 285 88 304 61 l 276 88 q 282 28 279 63 q 285 -37 285 -6 l 285 -333 l 108 -333 l 108 753 l 251 753 l 276 654 l 285 654 q 335 710 306 685 q 407 751 365 736 q 506 767 449 767 m 454 625 q 356 600 393 625 q 303 526 319 575 q 285 401 286 476 l 285 379 q 300 243 285 299 q 353 159 315 188 q 457 131 392 131 q 547 161 511 131 q 601 247 583 192 q 618 381 618 303 q 578 562 618 499 q 454 625 538 625 z "},"q":{"ha":869,"x_min":69,"x_max":761,"o":"m 585 -15 q 586 42 585 11 q 592 99 588 74 l 583 99 q 501 19 554 53 q 361 -14 447 -14 q 151 85 232 -14 q 69 375 69 183 q 107 591 69 504 q 212 722 144 678 q 365 767 279 767 q 504 735 451 767 q 589 654 557 703 l 594 654 l 614 753 l 761 753 l 761 -333 l 585 -333 l 585 -15 m 418 128 q 520 151 482 128 q 575 225 558 175 q 593 349 592 275 l 593 376 q 555 563 593 499 q 414 626 517 626 q 290 559 331 626 q 250 372 250 492 q 291 190 250 253 q 418 128 332 128 z "},"r":{"ha":603,"x_min":108,"x_max":585,"o":"m 500 767 q 545 765 521 767 q 585 758 569 763 l 567 594 q 528 600 550 597 q 482 603 507 603 q 411 590 446 603 q 347 551 376 578 q 301 485 318 525 q 285 390 285 446 l 285 0 l 108 0 l 108 753 l 244 753 l 269 622 l 278 622 q 333 696 300 663 q 409 748 367 729 q 500 767 451 767 z "},"s":{"ha":685,"x_min":67,"x_max":625,"o":"m 625 217 q 590 93 625 144 q 488 14 556 42 q 318 -14 419 -14 q 179 -3 239 -14 q 68 32 119 8 l 68 182 q 191 138 124 156 q 315 121 258 121 q 424 143 390 121 q 457 203 457 165 q 442 245 457 226 q 390 283 428 264 q 282 331 351 303 q 165 387 213 358 q 92 456 117 415 q 67 558 67 497 q 147 713 67 660 q 360 767 228 767 q 492 753 431 767 q 614 711 554 739 l 561 586 q 456 623 510 608 q 356 638 401 638 q 266 619 297 638 q 235 569 235 601 q 250 527 235 544 q 304 492 265 510 q 413 447 343 474 q 528 392 481 421 q 601 322 576 363 q 625 217 625 281 z "},"t":{"ha":564,"x_min":28,"x_max":525,"o":"m 404 126 q 468 133 438 126 q 525 147 499 139 l 525 17 q 453 -5 497 4 q 360 -14 408 -14 q 244 8 296 -14 q 160 82 192 29 q 129 229 129 135 l 129 621 l 28 621 l 28 697 l 139 758 l 194 918 l 304 918 l 304 753 l 518 753 l 518 621 l 304 621 l 304 231 q 332 152 304 178 q 404 126 360 126 z "},"u":{"ha":886,"x_min":103,"x_max":778,"o":"m 778 753 l 778 0 l 640 0 l 615 97 l 607 97 q 546 34 583 58 q 465 -2 508 10 q 372 -14 421 -14 q 228 15 289 -14 q 135 104 167 43 q 103 261 103 165 l 103 753 l 279 753 l 279 297 q 313 172 279 214 q 417 129 346 129 q 528 158 488 129 q 585 245 568 188 q 601 386 601 303 l 601 753 l 778 753 z "},"v":{"ha":760,"x_min":0,"x_max":760,"o":"m 286 0 l 0 753 l 186 753 l 333 308 q 350 260 342 289 q 366 205 358 232 q 375 157 374 178 l 381 157 q 391 205 383 178 q 408 260 399 232 q 424 308 418 288 l 574 753 l 760 753 l 472 0 l 286 0 z "},"w":{"ha":1153,"x_min":14,"x_max":1138,"o":"m 646 324 q 629 390 639 350 q 609 472 619 429 q 590 551 599 515 q 578 607 581 588 l 572 607 q 560 551 568 588 q 542 472 551 515 q 522 389 532 429 q 504 322 511 349 l 417 0 l 225 0 l 14 754 l 190 754 l 283 394 q 302 313 293 358 q 318 224 311 267 q 328 156 325 182 l 333 156 q 340 203 336 174 q 351 266 344 233 q 363 326 357 299 q 374 369 369 354 l 482 754 l 674 754 l 778 369 q 793 304 785 344 q 808 224 801 264 q 817 157 815 183 l 822 157 q 832 222 825 181 q 849 310 839 263 q 869 394 858 357 l 964 754 l 1138 754 l 924 0 l 729 0 l 646 324 z "},"x":{"ha":778,"x_min":14,"x_max":764,"o":"m 275 385 l 26 753 l 225 753 l 389 497 l 553 753 l 751 753 l 500 385 l 764 0 l 565 0 l 389 274 l 213 0 l 14 0 l 275 385 z "},"y":{"ha":761,"x_min":0,"x_max":761,"o":"m 0 753 l 188 753 l 338 324 q 356 270 347 297 q 370 217 364 243 q 381 167 376 190 l 386 167 q 405 241 392 199 q 432 324 418 283 l 576 753 l 761 753 l 447 -82 q 377 -217 417 -161 q 281 -303 338 -274 q 140 -333 224 -333 q 80 -330 106 -333 q 36 -322 54 -326 l 36 -183 q 73 -189 51 -186 q 118 -192 94 -192 q 191 -174 161 -192 q 242 -128 221 -157 q 276 -61 263 -99 l 301 3 l 0 753 z "},"z":{"ha":672,"x_min":46,"x_max":625,"o":"m 625 0 l 46 0 l 46 107 l 415 618 l 68 618 l 68 753 l 614 753 l 614 635 l 254 136 l 625 136 l 625 0 z "},"{":{"ha":540,"x_min":28,"x_max":489,"o":"m 489 -219 q 319 -198 383 -219 q 228 -132 256 -176 q 200 -18 200 -87 l 200 192 q 180 265 200 238 q 122 304 160 292 q 28 317 85 317 l 28 456 q 122 468 85 456 q 180 508 160 481 q 200 579 200 536 l 200 792 q 228 905 200 861 q 321 970 257 949 q 489 992 385 992 l 489 858 q 419 848 449 858 q 373 815 389 838 q 357 750 357 792 l 357 549 q 317 442 357 482 q 201 390 278 403 l 201 382 q 318 331 279 371 q 357 225 357 292 l 357 22 q 373 -42 357 -19 q 418 -75 389 -65 q 489 -86 447 -85 l 489 -219 z "},"|":{"ha":765,"x_min":317,"x_max":449,"o":"m 317 1053 l 449 1053 l 449 -322 l 317 -322 l 317 1053 z "},"}":{"ha":540,"x_min":51,"x_max":513,"o":"m 51 -86 q 122 -75 92 -85 q 167 -42 151 -65 q 183 22 183 -18 l 183 225 q 223 331 183 292 q 339 382 263 369 l 339 390 q 223 442 263 403 q 183 547 183 481 l 183 750 q 167 815 183 792 q 122 848 151 838 q 51 858 93 858 l 51 992 q 221 970 158 992 q 312 905 283 949 q 340 790 340 861 l 340 581 q 360 508 340 536 q 419 468 381 481 q 513 456 457 456 l 513 317 q 419 304 457 317 q 360 265 381 292 q 340 192 340 238 l 340 -19 q 312 -133 340 -89 q 220 -198 283 -176 q 51 -219 157 -219 l 51 -86 z "},"~":{"ha":794,"x_min":64,"x_max":729,"o":"m 374 428 q 288 458 322 450 q 222 465 253 465 q 140 442 183 465 q 64 383 97 418 l 64 522 q 140 577 97 558 q 235 596 183 596 q 315 588 275 596 q 421 551 356 579 q 506 522 471 529 q 571 514 540 514 q 653 538 611 514 q 729 596 696 561 l 729 458 q 653 403 696 422 q 558 383 610 383 q 478 392 519 383 q 374 428 438 401 z "}," ":{"ha":361,"x_min":0,"x_max":0,"o":""},"¡":{"ha":389,"x_min":88,"x_max":300,"o":"m 125 429 l 258 429 l 293 -251 l 90 -251 l 125 429 m 300 651 q 269 568 300 592 q 193 544 238 544 q 119 568 150 544 q 88 650 88 592 q 119 733 88 708 q 193 758 150 758 q 269 733 238 758 q 300 651 300 708 z "},"¢":{"ha":794,"x_min":108,"x_max":693,"o":"m 499 897 q 607 881 558 894 q 693 851 656 868 l 642 713 q 555 742 599 731 q 471 754 511 754 q 368 726 408 754 q 308 643 328 699 q 288 504 288 588 q 308 367 288 421 q 369 288 329 314 q 468 261 410 261 q 578 274 532 261 q 674 310 624 288 l 674 161 q 591 131 633 142 q 497 117 549 119 l 497 -14 l 388 -14 l 388 122 q 239 178 301 135 q 142 301 176 221 q 108 503 108 382 q 143 713 108 632 q 241 836 178 793 q 388 892 304 879 l 388 1006 l 499 1006 l 499 897 z "},"£":{"ha":794,"x_min":51,"x_max":758,"o":"m 471 1006 q 611 989 546 1006 q 728 949 676 972 l 672 815 q 579 849 628 835 q 482 863 531 863 q 389 831 425 863 q 353 724 353 799 l 353 569 l 618 569 l 618 443 l 353 443 l 353 328 q 338 242 353 276 q 301 186 324 207 q 253 151 278 165 l 758 151 l 758 0 l 51 0 l 51 143 q 119 178 90 157 q 163 235 147 200 q 179 326 179 271 l 179 443 l 54 443 l 54 569 l 179 569 l 179 729 q 217 885 179 825 q 322 976 256 946 q 471 1006 388 1006 z "},"¤":{"ha":792,"x_min":75,"x_max":711,"o":"m 124 490 q 135 564 124 528 q 165 631 146 600 l 75 719 l 164 807 l 253 721 q 319 751 282 740 q 393 761 357 761 q 467 751 432 761 q 533 719 501 740 l 622 807 l 711 722 l 624 632 q 653 566 642 603 q 664 490 664 529 q 654 415 664 451 q 624 349 644 379 l 708 261 l 622 175 l 533 260 q 468 231 504 242 q 393 221 432 221 q 318 231 354 221 q 251 261 282 242 l 164 176 l 76 263 l 165 350 q 135 416 146 381 q 124 490 124 451 m 247 490 q 267 417 247 450 q 319 364 286 383 q 393 344 353 344 q 468 364 435 344 q 522 417 501 383 q 542 490 542 450 q 522 565 542 532 q 468 619 501 599 q 393 639 435 639 q 319 619 353 639 q 267 565 286 599 q 247 490 247 532 z "},"¥":{"ha":794,"x_min":10,"x_max":782,"o":"m 396 554 l 601 992 l 782 992 l 515 479 l 663 479 l 663 371 l 479 371 l 479 269 l 663 269 l 663 161 l 479 161 l 479 0 l 313 0 l 313 161 l 129 161 l 129 269 l 313 269 l 313 371 l 129 371 l 129 479 l 274 479 l 10 992 l 192 992 l 396 554 z "},"¦":{"ha":765,"x_min":317,"x_max":449,"o":"m 317 1053 l 449 1053 l 449 510 l 317 510 l 317 1053 m 317 221 l 449 221 l 449 -322 l 317 -322 l 317 221 z "},"§":{"ha":689,"x_min":76,"x_max":613,"o":"m 86 546 q 115 651 86 608 q 183 715 144 693 q 113 782 138 743 q 88 874 88 821 q 162 1011 88 960 q 363 1063 236 1063 q 492 1048 435 1063 q 606 1010 550 1033 l 556 893 q 462 931 510 915 q 357 946 414 946 q 262 928 290 946 q 233 876 233 911 q 249 834 233 853 q 300 797 265 815 q 393 757 335 779 q 510 699 461 731 q 585 627 558 668 q 613 531 613 586 q 585 419 613 461 q 519 351 558 376 q 588 289 564 325 q 611 201 611 253 q 531 46 611 103 q 311 -11 451 -11 q 180 2 238 -11 q 76 40 122 15 l 76 167 q 150 135 110 150 q 233 112 190 121 q 314 103 276 103 q 432 128 400 103 q 464 190 464 154 q 452 232 464 214 q 408 269 440 250 q 308 314 375 288 q 189 372 239 343 q 113 443 139 401 q 86 546 86 485 m 219 560 q 237 506 219 531 q 293 458 254 481 q 393 411 332 435 l 410 404 q 456 447 435 421 q 476 513 476 472 q 461 568 476 543 q 407 616 446 593 q 296 663 368 639 q 243 626 267 653 q 219 560 219 599 z "},"¨":{"ha":817,"x_min":186,"x_max":640,"o":"m 186 950 q 210 1014 186 994 q 269 1033 235 1033 q 330 1014 304 1033 q 356 950 356 994 q 330 888 356 908 q 269 868 304 868 q 210 888 235 868 q 186 950 186 908 m 471 950 q 495 1014 471 994 q 556 1033 519 1033 q 615 1014 589 1033 q 640 950 640 994 q 615 888 640 908 q 556 868 589 868 q 495 888 519 868 q 471 950 471 908 z "},"©":{"ha":1156,"x_min":68,"x_max":1088,"o":"m 599 181 q 389 267 458 181 q 319 496 319 354 q 353 658 319 588 q 449 770 386 729 q 604 811 513 811 q 692 800 647 811 q 775 769 736 789 l 735 679 q 667 706 700 697 q 606 715 635 715 q 478 657 524 715 q 433 496 433 599 q 473 333 433 390 q 604 275 513 275 q 676 284 636 275 q 750 307 715 293 l 750 214 q 682 190 717 200 q 599 181 647 181 m 578 -14 q 374 24 467 -14 q 212 130 281 61 q 106 292 143 199 q 68 496 68 385 q 106 697 68 604 q 213 858 144 789 q 375 967 282 928 q 578 1006 468 1006 q 776 968 683 1006 q 938 862 868 931 q 1048 700 1008 793 q 1088 496 1088 607 q 1050 292 1088 385 q 944 130 1013 199 q 782 24 875 61 q 578 -14 689 -14 m 578 69 q 741 101 665 69 q 874 190 817 132 q 965 325 932 247 q 997 496 997 403 q 966 662 997 585 q 878 798 935 739 q 744 890 821 857 q 578 924 668 924 q 410 892 486 924 q 276 803 333 860 q 188 667 219 746 q 156 496 156 589 q 187 326 156 404 q 274 191 218 249 q 408 101 331 133 q 578 69 485 69 z "},"ª":{"ha":517,"x_min":40,"x_max":454,"o":"m 265 1003 q 405 961 356 1003 q 454 831 454 919 l 454 526 l 372 526 l 350 594 q 283 538 321 558 q 189 518 244 518 q 112 534 146 518 q 59 583 78 550 q 40 664 40 615 q 65 749 40 717 q 140 797 90 781 q 265 815 190 813 l 336 818 l 336 839 q 311 893 336 878 q 249 908 286 908 q 177 899 211 908 q 107 872 143 889 l 68 957 q 158 990 111 978 q 265 1003 204 1003 m 272 740 q 183 718 206 738 q 160 667 160 699 q 177 623 160 638 q 225 608 194 608 q 310 640 283 608 q 336 718 336 671 l 336 744 l 272 740 z "},"«":{"ha":797,"x_min":53,"x_max":744,"o":"m 53 383 l 299 682 l 425 613 l 235 375 l 425 139 l 299 69 l 53 365 l 53 383 m 372 383 l 618 682 l 744 613 l 553 375 l 744 139 l 618 69 l 372 365 l 372 383 z "},"¬":{"ha":794,"x_min":64,"x_max":729,"o":"m 729 554 l 729 172 l 600 172 l 600 425 l 64 425 l 64 554 l 729 554 z "},"­":{"ha":444,"x_min":46,"x_max":400,"o":"m 46 299 l 46 446 l 400 446 l 400 299 l 46 299 z "},"®":{"ha":1156,"x_min":68,"x_max":1088,"o":"m 383 192 l 383 803 l 565 803 q 732 756 679 803 q 785 619 785 710 q 751 516 785 554 q 676 461 718 478 l 838 192 l 714 192 l 579 428 l 493 428 l 493 192 l 383 192 m 563 518 q 645 546 617 518 q 674 617 674 574 q 648 688 674 665 q 561 710 622 710 l 493 710 l 493 518 l 563 518 m 578 -14 q 374 24 467 -14 q 212 130 281 61 q 106 292 143 199 q 68 496 68 385 q 106 697 68 604 q 213 858 144 789 q 375 967 282 928 q 578 1006 468 1006 q 776 968 683 1006 q 938 862 868 931 q 1048 700 1008 793 q 1088 496 1088 607 q 1050 292 1088 385 q 944 130 1013 199 q 782 24 875 61 q 578 -14 689 -14 m 578 69 q 741 101 665 69 q 874 190 817 132 q 965 325 932 247 q 997 496 997 403 q 966 662 997 585 q 878 798 935 739 q 744 890 821 857 q 578 924 668 924 q 410 892 486 924 q 276 803 333 860 q 188 667 219 746 q 156 496 156 589 q 187 326 156 404 q 274 191 218 249 q 408 101 331 133 q 578 69 485 69 z "},"¯":{"ha":694,"x_min":-4,"x_max":699,"o":"m 699 1056 l -4 1056 l -4 1176 l 699 1176 l 699 1056 z "},"°":{"ha":592,"x_min":64,"x_max":528,"o":"m 296 553 q 174 581 226 553 q 93 660 122 610 q 64 778 64 711 q 93 896 64 844 q 174 976 122 947 q 296 1006 226 1006 q 417 976 364 1006 q 499 896 469 947 q 528 778 528 844 q 499 660 528 711 q 417 581 469 610 q 296 553 364 553 m 297 664 q 381 696 353 664 q 410 778 410 728 q 381 863 410 831 q 296 894 351 894 q 210 863 239 894 q 181 778 181 831 q 210 696 181 728 q 297 664 239 664 z "},"±":{"ha":794,"x_min":64,"x_max":729,"o":"m 64 0 l 64 129 l 729 129 l 729 0 l 64 0 m 461 582 l 729 582 l 729 453 l 461 453 l 461 182 l 331 182 l 331 453 l 64 453 l 64 582 l 331 582 l 331 854 l 461 854 l 461 582 z "},"²":{"ha":511,"x_min":35,"x_max":457,"o":"m 457 578 l 36 578 l 36 676 l 190 828 q 263 903 238 874 q 299 958 289 933 q 308 1007 308 982 q 289 1057 308 1040 q 236 1074 269 1074 q 173 1059 204 1074 q 106 1014 142 1044 l 35 1103 q 130 1163 78 1140 q 251 1186 182 1186 q 394 1142 340 1186 q 447 1018 447 1099 q 431 938 447 975 q 380 863 414 901 q 293 775 346 825 l 206 694 l 457 694 l 457 578 z "},"³":{"ha":513,"x_min":32,"x_max":471,"o":"m 247 1185 q 399 1143 347 1185 q 451 1035 451 1101 q 424 944 451 981 q 347 890 396 907 l 347 886 q 438 838 406 874 q 471 744 471 803 q 409 615 471 664 q 225 567 347 567 q 122 577 171 567 q 32 608 74 588 l 32 724 q 128 685 79 697 q 222 672 176 672 q 310 694 282 672 q 339 756 339 717 q 308 814 339 794 q 210 833 278 833 l 133 833 l 133 931 l 203 931 q 295 953 268 931 q 322 1011 322 976 q 299 1064 322 1046 q 239 1082 276 1082 q 165 1068 199 1082 q 94 1029 131 1054 l 33 1113 q 127 1165 75 1144 q 247 1185 179 1185 z "},"´":{"ha":463,"x_min":56,"x_max":407,"o":"m 407 1050 q 361 1003 390 1031 q 298 945 332 975 q 231 888 264 915 q 172 842 199 861 l 56 842 l 56 860 q 106 922 78 886 q 160 995 133 957 q 206 1064 188 1033 l 407 1064 l 407 1050 z "},"µ":{"ha":892,"x_min":108,"x_max":783,"o":"m 783 753 l 783 0 l 646 0 l 621 101 l 613 101 q 563 38 592 64 q 499 -1 535 13 q 418 -14 463 -14 q 339 2 371 -14 q 282 46 307 18 l 278 46 q 283 -24 281 19 q 285 -117 285 -67 l 285 -333 l 108 -333 l 108 753 l 285 753 l 285 297 q 319 172 285 214 q 425 129 354 129 q 533 158 494 129 q 589 245 572 188 q 606 386 606 303 l 606 753 l 783 753 z "},"¶":{"ha":903,"x_min":74,"x_max":778,"o":"m 778 -176 l 679 -176 l 679 949 l 551 949 l 551 -176 l 451 -176 l 451 379 q 408 370 431 374 q 358 367 385 367 q 208 399 272 367 q 109 506 144 431 q 74 707 74 581 q 112 916 74 840 q 219 1024 150 992 q 379 1056 289 1056 l 778 1056 l 778 -176 z "},"·":{"ha":383,"x_min":85,"x_max":299,"o":"m 85 490 q 116 574 85 550 q 192 599 147 599 q 267 574 236 599 q 299 490 299 550 q 267 408 299 433 q 192 383 236 383 q 116 408 147 383 q 85 490 85 433 z "},"¸":{"ha":346,"x_min":24,"x_max":322,"o":"m 322 -185 q 271 -294 322 -254 q 124 -333 219 -333 q 67 -329 93 -333 q 24 -319 40 -325 l 24 -224 q 62 -231 40 -228 q 104 -233 83 -233 q 167 -221 144 -233 q 189 -181 189 -208 q 157 -133 189 -149 q 72 -110 125 -118 l 125 0 l 225 0 l 199 -61 q 258 -82 229 -68 q 304 -121 286 -96 q 322 -185 322 -146 z "},"¹":{"ha":513,"x_min":47,"x_max":365,"o":"m 365 1172 l 365 578 l 232 578 l 232 907 q 233 953 232 928 q 235 1001 233 978 q 238 1040 236 1024 q 212 1013 226 1028 q 182 988 197 999 l 114 936 l 47 1022 l 246 1172 l 365 1172 z "},"º":{"ha":531,"x_min":40,"x_max":492,"o":"m 492 761 q 430 581 492 644 q 264 518 368 518 q 103 581 167 518 q 40 761 40 644 q 101 940 40 878 q 267 1003 161 1003 q 383 974 333 1003 q 463 892 433 946 q 492 761 492 839 m 160 761 q 185 652 160 689 q 265 615 210 615 q 346 652 321 615 q 371 761 371 689 q 346 869 371 833 q 265 906 321 906 q 185 869 210 906 q 160 761 160 833 z "},"»":{"ha":797,"x_min":53,"x_max":744,"o":"m 744 365 l 499 69 l 371 139 l 563 375 l 371 613 l 499 682 l 744 383 l 744 365 m 425 365 l 179 69 l 53 139 l 244 375 l 53 613 l 179 682 l 425 383 l 425 365 z "},"¼":{"ha":1108,"x_min":38,"x_max":1096,"o":"m 201 0 l 772 992 l 913 992 l 342 0 l 201 0 m 214 731 q 215 776 214 750 q 217 827 215 803 q 219 864 218 851 q 192 838 208 853 q 163 811 176 822 l 101 765 l 38 844 l 232 992 l 351 992 l 351 397 l 214 397 l 214 731 m 871 0 l 871 114 l 607 114 l 607 207 l 874 599 l 1011 599 l 1011 217 l 1096 217 l 1096 114 l 1011 114 l 1011 0 l 871 0 m 722 217 l 871 217 l 871 335 q 872 397 871 363 q 875 465 874 432 q 849 414 868 449 q 818 358 831 379 l 722 217 z "},"½":{"ha":1160,"x_min":31,"x_max":1106,"o":"m 185 0 l 756 992 l 897 992 l 326 0 l 185 0 m 207 731 q 208 765 207 746 q 209 802 208 783 q 210 838 210 821 q 213 864 211 854 q 186 838 203 853 q 156 811 169 822 l 94 765 l 31 844 l 226 992 l 344 992 l 344 397 l 207 397 l 207 731 m 685 0 l 685 99 l 839 250 q 912 326 886 296 q 947 380 938 356 q 957 429 957 404 q 938 479 957 463 q 885 496 918 496 q 822 481 853 496 q 754 436 790 467 l 683 525 q 778 585 726 563 q 900 608 831 608 q 1042 565 989 608 q 1096 440 1096 521 q 1079 360 1096 397 q 1028 285 1063 324 q 942 197 994 247 l 854 117 l 1106 117 l 1106 0 l 685 0 z "},"¾":{"ha":1140,"x_min":46,"x_max":1128,"o":"m 254 0 l 825 992 l 965 992 l 394 0 l 254 0 m 229 386 q 133 397 178 386 q 46 431 89 407 l 46 543 q 138 503 92 519 q 229 488 183 488 q 315 510 288 488 q 342 572 342 532 q 312 631 342 608 q 214 654 282 654 l 138 654 l 138 750 l 206 750 q 301 774 276 750 q 326 832 326 799 q 305 883 326 865 q 247 901 283 901 q 179 888 211 901 q 110 849 147 875 l 47 933 q 140 985 90 965 q 257 1004 190 1004 q 401 962 347 1004 q 454 849 454 919 q 426 764 454 799 q 344 711 399 729 l 344 704 q 441 655 408 693 q 474 565 474 617 q 415 435 474 483 q 229 386 356 386 m 903 0 l 903 114 l 639 114 l 639 207 l 906 599 l 1043 599 l 1043 217 l 1128 217 l 1128 114 l 1043 114 l 1043 0 l 903 0 m 754 217 l 903 217 l 903 335 q 904 397 903 363 q 907 465 906 432 q 881 414 900 449 q 850 358 863 379 l 754 217 z "},"¿":{"ha":640,"x_min":31,"x_max":628,"o":"m 442 397 q 431 313 442 350 q 395 242 421 275 q 322 175 369 210 q 245 108 272 136 q 208 56 218 81 q 197 -1 197 32 q 234 -83 197 -54 q 338 -111 271 -111 q 456 -93 400 -111 q 565 -47 511 -75 l 628 -178 q 490 -235 565 -212 q 325 -257 415 -257 q 108 -190 185 -257 q 31 -12 31 -124 q 49 91 31 47 q 103 172 67 135 q 193 250 140 210 q 261 309 238 285 q 294 358 285 333 q 303 415 303 383 l 303 443 l 442 443 l 442 397 m 472 660 q 442 576 472 600 q 365 553 411 553 q 291 576 322 553 q 260 660 260 600 q 291 742 260 717 q 365 767 322 767 q 442 742 411 767 q 472 660 472 717 z "},"À":{"ha":933,"x_min":0,"x_max":932,"o":"m 742 0 l 649 261 l 282 261 l 190 0 l 0 0 l 364 996 l 568 996 l 932 0 l 742 0 m 519 661 q 503 715 514 678 q 481 791 492 751 q 465 853 471 831 q 449 787 458 824 q 431 717 440 750 q 415 661 422 685 l 329 414 l 604 414 l 519 661 m 465 1303 q 510 1234 483 1272 q 566 1160 538 1196 q 615 1099 594 1125 l 615 1081 l 497 1081 q 439 1127 472 1100 q 372 1184 406 1154 q 310 1242 339 1214 q 264 1289 281 1269 l 264 1303 l 465 1303 z "},"Á":{"ha":933,"x_min":0,"x_max":932,"o":"m 742 0 l 649 261 l 282 261 l 190 0 l 0 0 l 364 996 l 568 996 l 932 0 l 742 0 m 519 661 q 503 715 514 678 q 481 791 492 751 q 465 853 471 831 q 449 787 458 824 q 431 717 440 750 q 415 661 422 685 l 329 414 l 604 414 l 519 661 m 719 1289 q 674 1242 703 1269 q 610 1184 644 1214 q 544 1127 576 1154 q 485 1081 511 1100 l 368 1081 l 368 1099 q 418 1160 390 1125 q 473 1234 446 1196 q 518 1303 500 1272 l 719 1303 l 719 1289 z "},"Â":{"ha":933,"x_min":0,"x_max":932,"o":"m 742 0 l 649 261 l 282 261 l 190 0 l 0 0 l 364 996 l 568 996 l 932 0 l 742 0 m 519 661 q 503 715 514 678 q 481 791 492 751 q 465 853 471 831 q 449 787 458 824 q 431 717 440 750 q 415 661 422 685 l 329 414 l 604 414 l 519 661 m 554 1303 q 603 1234 572 1272 q 669 1159 635 1196 q 728 1097 703 1122 l 728 1081 l 608 1081 q 536 1132 572 1103 q 464 1197 500 1161 q 392 1133 426 1161 q 321 1081 357 1104 l 203 1081 l 203 1097 q 262 1160 229 1124 q 325 1234 294 1196 q 375 1303 356 1272 l 554 1303 z "},"Ã":{"ha":933,"x_min":0,"x_max":932,"o":"m 742 0 l 649 261 l 282 261 l 190 0 l 0 0 l 364 996 l 568 996 l 932 0 l 742 0 m 519 661 q 503 715 514 678 q 481 791 492 751 q 465 853 471 831 q 449 787 458 824 q 431 717 440 750 q 415 661 422 685 l 329 414 l 604 414 l 519 661 m 200 1079 q 219 1166 204 1129 q 256 1228 233 1203 q 308 1265 279 1253 q 372 1278 338 1278 q 429 1267 401 1278 q 483 1240 457 1256 q 533 1214 508 1225 q 582 1203 558 1203 q 626 1222 607 1203 q 653 1279 644 1242 l 743 1279 q 687 1131 735 1182 q 571 1081 639 1081 q 515 1092 542 1081 q 462 1118 489 1103 q 410 1144 435 1133 q 361 1156 386 1156 q 317 1137 336 1156 q 290 1079 299 1118 l 200 1079 z "},"Ä":{"ha":933,"x_min":0,"x_max":932,"o":"m 742 0 l 649 261 l 282 261 l 190 0 l 0 0 l 364 996 l 568 996 l 932 0 l 742 0 m 519 661 q 503 715 514 678 q 481 791 492 751 q 465 853 471 831 q 449 787 458 824 q 431 717 440 750 q 415 661 422 685 l 329 414 l 604 414 l 519 661 m 239 1189 q 263 1253 239 1233 q 322 1272 288 1272 q 383 1253 357 1272 q 408 1189 408 1233 q 383 1127 408 1147 q 322 1107 357 1107 q 263 1127 288 1107 q 239 1189 239 1147 m 524 1189 q 548 1253 524 1233 q 608 1272 572 1272 q 667 1253 642 1272 q 693 1189 693 1233 q 667 1127 693 1147 q 608 1107 642 1107 q 548 1127 572 1107 q 524 1189 524 1147 z "},"Å":{"ha":933,"x_min":0,"x_max":932,"o":"m 742 0 l 649 261 l 282 261 l 190 0 l 0 0 l 364 996 l 568 996 l 932 0 l 742 0 m 519 661 q 503 715 514 678 q 481 791 492 751 q 465 853 471 831 q 449 787 458 824 q 431 717 440 750 q 415 661 422 685 l 329 414 l 604 414 l 519 661 m 464 910 q 346 951 390 910 q 301 1067 301 993 q 346 1181 301 1140 q 464 1222 390 1222 q 581 1181 533 1222 q 629 1068 629 1140 q 582 951 629 993 q 464 910 535 910 m 464 996 q 514 1015 494 996 q 533 1067 533 1035 q 513 1117 533 1099 q 464 1136 493 1136 q 413 1117 433 1136 q 393 1067 393 1099 q 411 1015 393 1035 q 464 996 429 996 z "},"Æ":{"ha":1285,"x_min":0,"x_max":1203,"o":"m 1203 0 l 639 0 l 639 263 l 300 263 l 182 0 l 0 0 l 454 992 l 1203 992 l 1203 843 l 817 843 l 817 590 l 1176 590 l 1176 442 l 817 442 l 817 150 l 1203 150 l 1203 0 m 367 415 l 639 415 l 639 838 l 556 838 l 367 415 z "},"Ç":{"ha":886,"x_min":79,"x_max":843,"o":"m 556 854 q 435 830 489 854 q 343 758 381 806 q 285 644 306 711 q 265 494 265 578 q 298 303 265 383 q 397 180 331 222 q 561 138 463 138 q 685 151 626 138 q 803 185 744 165 l 803 32 q 681 -3 744 8 q 538 -14 618 -14 q 281 49 383 -14 q 129 227 179 113 q 79 496 79 342 q 110 701 79 608 q 203 863 142 794 q 353 969 264 932 q 557 1006 442 1006 q 706 990 632 1006 q 843 943 781 974 l 782 797 q 676 838 732 821 q 556 854 621 854 m 668 -185 q 617 -294 668 -254 q 469 -333 565 -333 q 413 -329 439 -333 q 369 -319 386 -325 l 369 -224 q 408 -231 386 -228 q 450 -233 429 -233 q 513 -221 490 -233 q 535 -181 535 -208 q 503 -133 535 -149 q 418 -110 471 -118 l 471 0 l 571 0 l 544 -61 q 603 -82 575 -68 q 650 -121 632 -96 q 668 -185 668 -146 z "},"È":{"ha":775,"x_min":129,"x_max":693,"o":"m 693 0 l 129 0 l 129 992 l 693 992 l 693 843 l 307 843 l 307 590 l 668 590 l 668 442 l 307 442 l 307 150 l 693 150 l 693 0 m 394 1303 q 440 1234 413 1272 q 495 1160 467 1196 q 544 1099 524 1125 l 544 1081 l 426 1081 q 368 1127 401 1100 q 301 1184 335 1154 q 239 1242 268 1214 q 193 1289 210 1269 l 193 1303 l 394 1303 z "},"É":{"ha":775,"x_min":129,"x_max":693,"o":"m 693 0 l 129 0 l 129 992 l 693 992 l 693 843 l 307 843 l 307 590 l 668 590 l 668 442 l 307 442 l 307 150 l 693 150 l 693 0 m 651 1289 q 606 1242 635 1269 q 542 1184 576 1214 q 476 1127 508 1154 q 417 1081 443 1100 l 300 1081 l 300 1099 q 350 1160 322 1125 q 405 1234 378 1196 q 450 1303 432 1272 l 651 1303 l 651 1289 z "},"Ê":{"ha":775,"x_min":129,"x_max":693,"o":"m 693 0 l 129 0 l 129 992 l 693 992 l 693 843 l 307 843 l 307 590 l 668 590 l 668 442 l 307 442 l 307 150 l 693 150 l 693 0 m 506 1303 q 555 1234 524 1272 q 620 1159 586 1196 q 679 1097 654 1122 l 679 1081 l 560 1081 q 488 1132 524 1103 q 415 1197 451 1161 q 343 1133 378 1161 q 272 1081 308 1104 l 154 1081 l 154 1097 q 213 1160 181 1124 q 276 1234 246 1196 q 326 1303 307 1272 l 506 1303 z "},"Ë":{"ha":775,"x_min":129,"x_max":693,"o":"m 693 0 l 129 0 l 129 992 l 693 992 l 693 843 l 307 843 l 307 590 l 668 590 l 668 442 l 307 442 l 307 150 l 693 150 l 693 0 m 192 1189 q 216 1253 192 1233 q 275 1272 240 1272 q 335 1253 310 1272 q 361 1189 361 1233 q 335 1127 361 1147 q 275 1107 310 1107 q 216 1127 240 1107 q 192 1189 192 1147 m 476 1189 q 501 1253 476 1233 q 561 1272 525 1272 q 620 1253 594 1272 q 646 1189 646 1233 q 620 1127 646 1147 q 561 1107 594 1107 q 501 1127 525 1107 q 476 1189 476 1147 z "},"Ì":{"ha":514,"x_min":31,"x_max":465,"o":"m 465 0 l 49 0 l 49 101 l 168 146 l 168 844 l 49 890 l 49 992 l 465 992 l 465 890 l 346 844 l 346 146 l 465 101 l 465 0 m 232 1303 q 277 1234 250 1272 q 333 1160 304 1196 q 382 1099 361 1125 l 382 1081 l 264 1081 q 206 1127 239 1100 q 139 1184 172 1154 q 76 1242 106 1214 q 31 1289 47 1269 l 31 1303 l 232 1303 z "},"Í":{"ha":514,"x_min":49,"x_max":490,"o":"m 465 0 l 49 0 l 49 101 l 168 146 l 168 844 l 49 890 l 49 992 l 465 992 l 465 890 l 346 844 l 346 146 l 465 101 l 465 0 m 490 1289 q 444 1242 474 1269 q 381 1184 415 1214 q 315 1127 347 1154 q 256 1081 282 1100 l 139 1081 l 139 1099 q 189 1160 161 1125 q 244 1234 217 1196 q 289 1303 271 1272 l 490 1303 l 490 1289 z "},"Î":{"ha":514,"x_min":-8,"x_max":517,"o":"m 465 0 l 49 0 l 49 101 l 168 146 l 168 844 l 49 890 l 49 992 l 465 992 l 465 890 l 346 844 l 346 146 l 465 101 l 465 0 m 343 1303 q 392 1234 361 1272 q 458 1159 424 1196 q 517 1097 492 1122 l 517 1081 l 397 1081 q 325 1132 361 1103 q 253 1197 289 1161 q 181 1133 215 1161 q 110 1081 146 1104 l -8 1081 l -8 1097 q 51 1160 18 1124 q 114 1234 83 1196 q 164 1303 144 1272 l 343 1303 z "},"Ï":{"ha":514,"x_min":29,"x_max":483,"o":"m 465 0 l 49 0 l 49 101 l 168 146 l 168 844 l 49 890 l 49 992 l 465 992 l 465 890 l 346 844 l 346 146 l 465 101 l 465 0 m 29 1189 q 53 1253 29 1233 q 113 1272 78 1272 q 173 1253 147 1272 q 199 1189 199 1233 q 173 1127 199 1147 q 113 1107 147 1107 q 53 1127 78 1107 q 29 1189 29 1147 m 314 1189 q 338 1253 314 1233 q 399 1272 363 1272 q 458 1253 432 1272 q 483 1189 483 1233 q 458 1127 483 1147 q 399 1107 432 1107 q 338 1127 363 1107 q 314 1189 314 1147 z "},"Ð":{"ha":1017,"x_min":33,"x_max":936,"o":"m 444 992 q 707 936 597 992 q 876 774 817 881 q 936 510 936 668 q 874 228 936 342 q 694 57 811 114 q 417 0 578 0 l 131 0 l 131 415 l 33 415 l 33 565 l 131 565 l 131 992 l 444 992 m 433 843 l 310 843 l 310 565 l 517 565 l 517 415 l 310 415 l 310 150 l 410 150 q 665 238 582 150 q 749 504 749 326 q 712 694 749 619 q 606 806 675 769 q 433 843 536 843 z "},"Ñ":{"ha":1094,"x_min":129,"x_max":972,"o":"m 972 0 l 751 0 l 282 778 l 276 778 q 281 690 279 736 q 285 597 283 644 q 289 500 288 549 l 289 0 l 129 0 l 129 992 l 349 992 l 817 219 l 821 219 q 818 301 819 256 q 815 395 817 347 q 811 488 813 443 l 811 992 l 972 992 l 972 0 m 282 1079 q 301 1166 286 1129 q 338 1228 315 1203 q 390 1265 361 1253 q 454 1278 419 1278 q 511 1267 483 1278 q 565 1240 539 1256 q 615 1214 590 1225 q 664 1203 640 1203 q 708 1222 689 1203 q 735 1279 726 1242 l 825 1279 q 769 1131 817 1182 q 653 1081 721 1081 q 597 1092 624 1081 q 544 1118 571 1103 q 492 1144 517 1133 q 443 1156 468 1156 q 399 1137 418 1156 q 372 1079 381 1118 l 282 1079 z "},"Ò":{"ha":1093,"x_min":79,"x_max":1014,"o":"m 1014 497 q 985 288 1014 382 q 898 126 956 194 q 753 22 840 58 q 547 -14 665 -14 q 339 23 426 -14 q 194 127 251 60 q 108 289 136 194 q 79 499 79 383 q 130 766 79 651 q 285 944 181 881 q 549 1007 389 1007 q 808 944 704 1007 q 963 766 911 881 q 1014 497 1014 651 m 268 497 q 297 306 268 386 q 389 182 326 225 q 547 139 451 139 q 706 182 644 139 q 795 306 767 225 q 824 497 824 386 q 759 760 824 665 q 549 856 694 856 q 389 813 451 856 q 297 689 326 769 q 268 497 268 608 m 547 1303 q 592 1234 565 1272 q 648 1160 619 1196 q 697 1099 676 1125 l 697 1081 l 579 1081 q 521 1127 554 1100 q 454 1184 488 1154 q 392 1242 421 1214 q 346 1289 363 1269 l 346 1303 l 547 1303 z "},"Ó":{"ha":1093,"x_min":79,"x_max":1014,"o":"m 1014 497 q 985 288 1014 382 q 898 126 956 194 q 753 22 840 58 q 547 -14 665 -14 q 339 23 426 -14 q 194 127 251 60 q 108 289 136 194 q 79 499 79 383 q 130 766 79 651 q 285 944 181 881 q 549 1007 389 1007 q 808 944 704 1007 q 963 766 911 881 q 1014 497 1014 651 m 268 497 q 297 306 268 386 q 389 182 326 225 q 547 139 451 139 q 706 182 644 139 q 795 306 767 225 q 824 497 824 386 q 759 760 824 665 q 549 856 694 856 q 389 813 451 856 q 297 689 326 769 q 268 497 268 608 m 801 1289 q 756 1242 785 1269 q 692 1184 726 1214 q 626 1127 658 1154 q 567 1081 593 1100 l 450 1081 l 450 1099 q 500 1160 472 1125 q 555 1234 528 1196 q 600 1303 582 1272 l 801 1303 l 801 1289 z "},"Ô":{"ha":1093,"x_min":79,"x_max":1014,"o":"m 1014 497 q 985 288 1014 382 q 898 126 956 194 q 753 22 840 58 q 547 -14 665 -14 q 339 23 426 -14 q 194 127 251 60 q 108 289 136 194 q 79 499 79 383 q 130 766 79 651 q 285 944 181 881 q 549 1007 389 1007 q 808 944 704 1007 q 963 766 911 881 q 1014 497 1014 651 m 268 497 q 297 306 268 386 q 389 182 326 225 q 547 139 451 139 q 706 182 644 139 q 795 306 767 225 q 824 497 824 386 q 759 760 824 665 q 549 856 694 856 q 389 813 451 856 q 297 689 326 769 q 268 497 268 608 m 636 1303 q 685 1234 654 1272 q 751 1159 717 1196 q 810 1097 785 1122 l 810 1081 l 690 1081 q 618 1132 654 1103 q 546 1197 582 1161 q 474 1133 508 1161 q 403 1081 439 1104 l 285 1081 l 285 1097 q 344 1160 311 1124 q 407 1234 376 1196 q 457 1303 438 1272 l 636 1303 z "},"Õ":{"ha":1093,"x_min":79,"x_max":1014,"o":"m 1014 497 q 985 288 1014 382 q 898 126 956 194 q 753 22 840 58 q 547 -14 665 -14 q 339 23 426 -14 q 194 127 251 60 q 108 289 136 194 q 79 499 79 383 q 130 766 79 651 q 285 944 181 881 q 549 1007 389 1007 q 808 944 704 1007 q 963 766 911 881 q 1014 497 1014 651 m 268 497 q 297 306 268 386 q 389 182 326 225 q 547 139 451 139 q 706 182 644 139 q 795 306 767 225 q 824 497 824 386 q 759 760 824 665 q 549 856 694 856 q 389 813 451 856 q 297 689 326 769 q 268 497 268 608 m 282 1079 q 301 1166 286 1129 q 338 1228 315 1203 q 390 1265 361 1253 q 454 1278 419 1278 q 511 1267 483 1278 q 565 1240 539 1256 q 615 1214 590 1225 q 664 1203 640 1203 q 708 1222 689 1203 q 735 1279 726 1242 l 825 1279 q 769 1131 817 1182 q 653 1081 721 1081 q 597 1092 624 1081 q 544 1118 571 1103 q 492 1144 517 1133 q 443 1156 468 1156 q 399 1137 418 1156 q 372 1079 381 1118 l 282 1079 z "},"Ö":{"ha":1093,"x_min":79,"x_max":1014,"o":"m 1014 497 q 985 288 1014 382 q 898 126 956 194 q 753 22 840 58 q 547 -14 665 -14 q 339 23 426 -14 q 194 127 251 60 q 108 289 136 194 q 79 499 79 383 q 130 766 79 651 q 285 944 181 881 q 549 1007 389 1007 q 808 944 704 1007 q 963 766 911 881 q 1014 497 1014 651 m 268 497 q 297 306 268 386 q 389 182 326 225 q 547 139 451 139 q 706 182 644 139 q 795 306 767 225 q 824 497 824 386 q 759 760 824 665 q 549 856 694 856 q 389 813 451 856 q 297 689 326 769 q 268 497 268 608 m 321 1189 q 345 1253 321 1233 q 404 1272 369 1272 q 465 1253 439 1272 q 490 1189 490 1233 q 465 1127 490 1147 q 404 1107 439 1107 q 345 1127 369 1107 q 321 1189 321 1147 m 606 1189 q 630 1253 606 1233 q 690 1272 654 1272 q 749 1253 724 1272 q 775 1189 775 1233 q 749 1127 775 1147 q 690 1107 724 1107 q 630 1127 654 1107 q 606 1189 606 1147 z "},"×":{"ha":794,"x_min":88,"x_max":704,"o":"m 614 799 l 704 708 l 486 490 l 703 274 l 613 182 l 394 399 l 179 183 l 89 274 l 303 490 l 88 706 l 179 799 l 394 582 l 614 799 z "},"Ø":{"ha":1093,"x_min":79,"x_max":1014,"o":"m 1014 497 q 985 288 1014 382 q 898 126 956 194 q 753 22 840 58 q 547 -14 665 -14 q 416 -1 476 -14 q 308 38 356 13 l 246 -54 l 143 13 l 210 108 q 111 275 143 176 q 79 499 79 374 q 130 766 79 651 q 285 944 181 881 q 549 1007 389 1007 q 678 993 618 1007 q 786 954 738 979 l 846 1042 l 947 976 l 882 883 q 981 718 949 817 q 1014 497 1014 619 m 824 497 q 775 725 824 640 l 399 175 q 465 148 428 157 q 547 139 503 139 q 706 182 644 139 q 795 306 767 225 q 824 497 824 386 m 268 497 q 280 368 268 426 q 317 265 292 310 l 694 818 q 629 846 667 836 q 549 856 592 856 q 389 813 451 856 q 297 689 326 769 q 268 497 268 608 z "},"Ù":{"ha":1038,"x_min":121,"x_max":915,"o":"m 915 350 q 872 165 915 247 q 739 34 828 82 q 514 -14 650 -14 q 221 87 321 -14 q 121 353 121 188 l 121 992 l 299 992 l 299 371 q 354 194 299 250 q 519 138 410 138 q 645 164 597 138 q 716 244 693 190 q 739 372 739 297 l 739 992 l 915 992 l 915 350 m 493 1303 q 538 1234 511 1272 q 594 1160 565 1196 q 643 1099 622 1125 l 643 1081 l 525 1081 q 467 1127 500 1100 q 400 1184 433 1154 q 338 1242 367 1214 q 292 1289 308 1269 l 292 1303 l 493 1303 z "},"Ú":{"ha":1038,"x_min":121,"x_max":915,"o":"m 915 350 q 872 165 915 247 q 739 34 828 82 q 514 -14 650 -14 q 221 87 321 -14 q 121 353 121 188 l 121 992 l 299 992 l 299 371 q 354 194 299 250 q 519 138 410 138 q 645 164 597 138 q 716 244 693 190 q 739 372 739 297 l 739 992 l 915 992 l 915 350 m 750 1289 q 704 1242 733 1269 q 641 1184 675 1214 q 574 1127 607 1154 q 515 1081 542 1100 l 399 1081 l 399 1099 q 449 1160 421 1125 q 503 1234 476 1196 q 549 1303 531 1272 l 750 1303 l 750 1289 z "},"Û":{"ha":1038,"x_min":121,"x_max":915,"o":"m 915 350 q 872 165 915 247 q 739 34 828 82 q 514 -14 650 -14 q 221 87 321 -14 q 121 353 121 188 l 121 992 l 299 992 l 299 371 q 354 194 299 250 q 519 138 410 138 q 645 164 597 138 q 716 244 693 190 q 739 372 739 297 l 739 992 l 915 992 l 915 350 m 604 1303 q 653 1234 622 1272 q 719 1159 685 1196 q 778 1097 753 1122 l 778 1081 l 658 1081 q 586 1132 622 1103 q 514 1197 550 1161 q 442 1133 476 1161 q 371 1081 407 1104 l 253 1081 l 253 1097 q 312 1160 279 1124 q 375 1234 344 1196 q 425 1303 406 1272 l 604 1303 z "},"Ü":{"ha":1038,"x_min":121,"x_max":915,"o":"m 915 350 q 872 165 915 247 q 739 34 828 82 q 514 -14 650 -14 q 221 87 321 -14 q 121 353 121 188 l 121 992 l 299 992 l 299 371 q 354 194 299 250 q 519 138 410 138 q 645 164 597 138 q 716 244 693 190 q 739 372 739 297 l 739 992 l 915 992 l 915 350 m 290 1189 q 315 1253 290 1233 q 374 1272 339 1272 q 434 1253 408 1272 q 460 1189 460 1233 q 434 1127 460 1147 q 374 1107 408 1107 q 315 1127 339 1107 q 290 1189 290 1147 m 575 1189 q 599 1253 575 1233 q 660 1272 624 1272 q 719 1253 693 1272 q 744 1189 744 1233 q 719 1127 744 1147 q 660 1107 693 1107 q 599 1127 624 1107 q 575 1189 575 1147 z "},"Ý":{"ha":838,"x_min":0,"x_max":838,"o":"m 419 550 l 644 992 l 838 992 l 508 386 l 508 0 l 329 0 l 329 379 l 0 992 l 196 992 l 419 550 m 672 1289 q 626 1242 656 1269 q 563 1184 597 1214 q 497 1127 529 1154 q 438 1081 464 1100 l 321 1081 l 321 1099 q 371 1160 343 1125 q 426 1234 399 1196 q 471 1303 453 1272 l 672 1303 l 672 1289 z "},"Þ":{"ha":860,"x_min":129,"x_max":794,"o":"m 794 525 q 775 405 794 463 q 712 302 756 347 q 595 231 668 257 q 414 206 522 206 l 307 206 l 307 0 l 129 0 l 129 992 l 307 992 l 307 829 l 432 829 q 708 747 622 829 q 794 525 794 665 m 386 350 q 514 367 464 350 q 589 423 564 385 q 614 522 614 461 q 564 644 614 604 q 406 683 514 683 l 307 683 l 307 350 l 386 350 z "},"ß":{"ha":939,"x_min":108,"x_max":885,"o":"m 794 838 q 776 755 794 790 q 728 692 757 719 q 672 644 700 665 q 624 603 643 622 q 606 564 606 583 q 617 531 606 546 q 656 498 628 517 q 735 447 685 479 q 816 383 782 415 q 867 312 850 351 q 885 218 885 272 q 851 88 885 139 q 756 11 818 36 q 608 -14 693 -14 q 480 -3 532 -14 q 388 31 428 8 l 388 174 q 444 147 411 160 q 513 125 476 133 q 582 117 549 117 q 675 142 644 117 q 706 213 706 168 q 696 261 706 240 q 658 304 686 282 q 578 357 629 326 q 487 420 519 392 q 440 479 454 449 q 426 546 426 510 q 445 619 426 589 q 492 672 464 649 q 549 716 521 694 q 597 763 578 738 q 615 824 615 788 q 572 897 615 872 q 456 922 528 922 q 368 908 407 922 q 307 862 329 893 q 285 776 285 831 l 285 0 l 108 0 l 108 786 q 153 944 108 883 q 278 1033 199 1004 q 456 1063 357 1063 q 633 1038 557 1063 q 752 963 710 1013 q 794 838 794 914 z "},"à":{"ha":813,"x_min":58,"x_max":708,"o":"m 425 767 q 637 702 565 767 q 708 506 708 638 l 708 0 l 583 0 l 550 104 l 544 104 q 478 38 513 64 q 400 -1 444 11 q 293 -14 356 -14 q 173 11 226 -14 q 89 88 119 36 q 58 218 58 139 q 145 394 58 333 q 407 460 232 454 l 533 464 l 533 496 q 499 603 533 572 q 403 635 464 635 q 295 617 349 635 q 192 578 242 600 l 139 700 q 268 749 194 731 q 425 767 342 767 m 442 353 q 283 315 328 347 q 239 222 239 282 q 271 144 239 169 q 353 118 303 118 q 481 163 429 118 q 533 292 533 207 l 533 356 l 442 353 m 407 1064 q 452 995 425 1033 q 508 922 479 957 q 557 860 536 886 l 557 842 l 439 842 q 381 888 414 861 q 314 945 347 915 q 251 1003 281 975 q 206 1050 222 1031 l 206 1064 l 407 1064 z "},"á":{"ha":813,"x_min":58,"x_max":708,"o":"m 425 767 q 637 702 565 767 q 708 506 708 638 l 708 0 l 583 0 l 550 104 l 544 104 q 478 38 513 64 q 400 -1 444 11 q 293 -14 356 -14 q 173 11 226 -14 q 89 88 119 36 q 58 218 58 139 q 145 394 58 333 q 407 460 232 454 l 533 464 l 533 496 q 499 603 533 572 q 403 635 464 635 q 295 617 349 635 q 192 578 242 600 l 139 700 q 268 749 194 731 q 425 767 342 767 m 442 353 q 283 315 328 347 q 239 222 239 282 q 271 144 239 169 q 353 118 303 118 q 481 163 429 118 q 533 292 533 207 l 533 356 l 442 353 m 660 1050 q 614 1003 643 1031 q 551 945 585 975 q 484 888 517 915 q 425 842 451 861 l 308 842 l 308 860 q 358 922 331 886 q 413 995 386 957 q 458 1064 440 1033 l 660 1064 l 660 1050 z "},"â":{"ha":813,"x_min":58,"x_max":708,"o":"m 425 767 q 637 702 565 767 q 708 506 708 638 l 708 0 l 583 0 l 550 104 l 544 104 q 478 38 513 64 q 400 -1 444 11 q 293 -14 356 -14 q 173 11 226 -14 q 89 88 119 36 q 58 218 58 139 q 145 394 58 333 q 407 460 232 454 l 533 464 l 533 496 q 499 603 533 572 q 403 635 464 635 q 295 617 349 635 q 192 578 242 600 l 139 700 q 268 749 194 731 q 425 767 342 767 m 442 353 q 283 315 328 347 q 239 222 239 282 q 271 144 239 169 q 353 118 303 118 q 481 163 429 118 q 533 292 533 207 l 533 356 l 442 353 m 496 1064 q 545 995 514 1033 q 610 920 576 957 q 669 858 644 883 l 669 842 l 550 842 q 478 893 514 864 q 406 958 442 922 q 333 894 368 922 q 263 842 299 865 l 144 842 l 144 858 q 203 921 171 885 q 267 995 236 957 q 317 1064 297 1033 l 496 1064 z "},"ã":{"ha":813,"x_min":58,"x_max":708,"o":"m 425 767 q 637 702 565 767 q 708 506 708 638 l 708 0 l 583 0 l 550 104 l 544 104 q 478 38 513 64 q 400 -1 444 11 q 293 -14 356 -14 q 173 11 226 -14 q 89 88 119 36 q 58 218 58 139 q 145 394 58 333 q 407 460 232 454 l 533 464 l 533 496 q 499 603 533 572 q 403 635 464 635 q 295 617 349 635 q 192 578 242 600 l 139 700 q 268 749 194 731 q 425 767 342 767 m 442 353 q 283 315 328 347 q 239 222 239 282 q 271 144 239 169 q 353 118 303 118 q 481 163 429 118 q 533 292 533 207 l 533 356 l 442 353 m 140 840 q 159 927 144 890 q 197 989 174 964 q 249 1026 219 1014 q 313 1039 278 1039 q 369 1028 342 1039 q 423 1001 397 1017 q 474 975 449 986 q 522 964 499 964 q 566 983 547 964 q 593 1040 585 1003 l 683 1040 q 627 892 675 943 q 511 842 579 842 q 456 853 482 842 q 402 879 429 864 q 351 906 375 894 q 301 917 326 917 q 258 898 276 917 q 231 840 239 879 l 140 840 z "},"ä":{"ha":813,"x_min":58,"x_max":708,"o":"m 425 767 q 637 702 565 767 q 708 506 708 638 l 708 0 l 583 0 l 550 104 l 544 104 q 478 38 513 64 q 400 -1 444 11 q 293 -14 356 -14 q 173 11 226 -14 q 89 88 119 36 q 58 218 58 139 q 145 394 58 333 q 407 460 232 454 l 533 464 l 533 496 q 499 603 533 572 q 403 635 464 635 q 295 617 349 635 q 192 578 242 600 l 139 700 q 268 749 194 731 q 425 767 342 767 m 442 353 q 283 315 328 347 q 239 222 239 282 q 271 144 239 169 q 353 118 303 118 q 481 163 429 118 q 533 292 533 207 l 533 356 l 442 353 m 181 950 q 205 1014 181 994 q 264 1033 229 1033 q 324 1014 299 1033 q 350 950 350 994 q 324 888 350 908 q 264 868 299 868 q 205 888 229 868 q 181 950 181 908 m 465 950 q 490 1014 465 994 q 550 1033 514 1033 q 609 1014 583 1033 q 635 950 635 994 q 609 888 635 908 q 550 868 583 868 q 490 888 514 868 q 465 950 465 908 z "},"å":{"ha":813,"x_min":58,"x_max":708,"o":"m 425 767 q 637 702 565 767 q 708 506 708 638 l 708 0 l 583 0 l 550 104 l 544 104 q 478 38 513 64 q 400 -1 444 11 q 293 -14 356 -14 q 173 11 226 -14 q 89 88 119 36 q 58 218 58 139 q 145 394 58 333 q 407 460 232 454 l 533 464 l 533 496 q 499 603 533 572 q 403 635 464 635 q 295 617 349 635 q 192 578 242 600 l 139 700 q 268 749 194 731 q 425 767 342 767 m 442 353 q 283 315 328 347 q 239 222 239 282 q 271 144 239 169 q 353 118 303 118 q 481 163 429 118 q 533 292 533 207 l 533 356 l 442 353 m 406 840 q 288 882 332 840 q 243 997 243 924 q 288 1112 243 1071 q 406 1153 332 1153 q 523 1112 475 1153 q 571 999 571 1071 q 524 882 571 924 q 406 840 476 840 m 406 926 q 456 946 436 926 q 475 997 475 965 q 455 1048 475 1029 q 406 1067 435 1067 q 355 1048 375 1067 q 335 997 335 1029 q 353 946 335 965 q 406 926 371 926 z "},"æ":{"ha":1246,"x_min":61,"x_max":1182,"o":"m 871 767 q 1034 726 964 767 q 1143 609 1104 685 q 1182 426 1182 533 l 1182 336 l 697 336 q 751 176 700 232 q 896 121 803 121 q 1024 135 965 121 q 1143 178 1083 150 l 1143 38 q 1028 -1 1086 11 q 888 -14 969 -14 q 770 2 825 -14 q 672 51 715 18 q 597 133 629 83 q 520 52 560 85 q 428 3 481 19 q 300 -14 376 -14 q 180 11 235 -14 q 93 88 125 36 q 61 219 61 140 q 98 349 61 297 q 208 428 135 401 q 393 460 282 456 l 519 464 l 519 517 q 485 608 519 581 q 392 635 451 635 q 285 619 336 635 q 183 581 233 604 l 128 701 q 256 749 183 731 q 403 767 328 767 q 540 742 483 767 q 633 667 597 718 q 733 742 675 717 q 871 767 792 767 m 432 353 q 282 313 324 349 q 240 218 240 278 q 269 142 240 165 q 349 118 299 118 q 435 138 397 118 q 497 196 474 157 q 519 292 519 235 l 519 356 l 432 353 m 867 638 q 751 592 794 638 q 700 458 707 547 l 1013 458 q 996 551 1013 511 q 947 615 979 592 q 867 638 915 638 z "},"ç":{"ha":697,"x_min":69,"x_max":656,"o":"m 426 -14 q 240 27 321 -14 q 115 153 160 68 q 69 372 69 239 q 118 598 69 511 q 250 726 167 685 q 439 767 333 767 q 558 754 501 767 q 656 721 615 742 l 603 583 q 522 610 565 599 q 438 622 479 622 q 334 594 376 622 q 271 512 292 567 q 250 374 250 457 q 272 240 250 294 q 334 159 293 186 q 433 132 375 132 q 544 147 493 132 q 639 185 594 161 l 639 38 q 547 0 597 14 q 426 -14 496 -14 m 556 -185 q 504 -294 556 -254 q 357 -333 453 -333 q 300 -329 326 -333 q 257 -319 274 -325 l 257 -224 q 295 -231 274 -228 q 338 -233 317 -233 q 400 -221 378 -233 q 422 -181 422 -208 q 390 -133 422 -149 q 306 -110 358 -118 l 358 0 l 458 0 l 432 -61 q 491 -82 463 -68 q 538 -121 519 -96 q 556 -185 556 -146 z "},"è":{"ha":813,"x_min":69,"x_max":746,"o":"m 418 767 q 593 726 519 767 q 706 610 667 686 q 746 425 746 533 l 746 335 l 250 335 q 307 178 253 233 q 461 122 361 122 q 589 136 532 122 q 706 176 646 150 l 706 38 q 590 -1 650 11 q 446 -14 531 -14 q 251 28 336 -14 q 117 157 165 71 q 69 371 69 243 q 113 588 69 500 q 235 722 157 676 q 418 767 314 767 m 421 636 q 305 590 349 636 q 254 458 261 544 l 575 458 q 558 551 575 511 q 508 613 542 590 q 421 636 474 636 m 408 1064 q 453 995 426 1033 q 509 922 481 957 q 558 860 538 886 l 558 842 l 440 842 q 382 888 415 861 q 315 945 349 915 q 253 1003 282 975 q 207 1050 224 1031 l 207 1064 l 408 1064 z "},"é":{"ha":813,"x_min":69,"x_max":746,"o":"m 418 767 q 593 726 519 767 q 706 610 667 686 q 746 425 746 533 l 746 335 l 250 335 q 307 178 253 233 q 461 122 361 122 q 589 136 532 122 q 706 176 646 150 l 706 38 q 590 -1 650 11 q 446 -14 531 -14 q 251 28 336 -14 q 117 157 165 71 q 69 371 69 243 q 113 588 69 500 q 235 722 157 676 q 418 767 314 767 m 421 636 q 305 590 349 636 q 254 458 261 544 l 575 458 q 558 551 575 511 q 508 613 542 590 q 421 636 474 636 m 663 1050 q 617 1003 646 1031 q 553 945 588 975 q 487 888 519 915 q 428 842 454 861 l 311 842 l 311 860 q 361 922 333 886 q 416 995 389 957 q 461 1064 443 1033 l 663 1064 l 663 1050 z "},"ê":{"ha":813,"x_min":69,"x_max":746,"o":"m 418 767 q 593 726 519 767 q 706 610 667 686 q 746 425 746 533 l 746 335 l 250 335 q 307 178 253 233 q 461 122 361 122 q 589 136 532 122 q 706 176 646 150 l 706 38 q 590 -1 650 11 q 446 -14 531 -14 q 251 28 336 -14 q 117 157 165 71 q 69 371 69 243 q 113 588 69 500 q 235 722 157 676 q 418 767 314 767 m 421 636 q 305 590 349 636 q 254 458 261 544 l 575 458 q 558 551 575 511 q 508 613 542 590 q 421 636 474 636 m 497 1064 q 547 995 515 1033 q 612 920 578 957 q 671 858 646 883 l 671 842 l 551 842 q 479 893 515 864 q 407 958 443 922 q 335 894 369 922 q 264 842 300 865 l 146 842 l 146 858 q 205 921 172 885 q 268 995 238 957 q 318 1064 299 1033 l 497 1064 z "},"ë":{"ha":813,"x_min":69,"x_max":746,"o":"m 418 767 q 593 726 519 767 q 706 610 667 686 q 746 425 746 533 l 746 335 l 250 335 q 307 178 253 233 q 461 122 361 122 q 589 136 532 122 q 706 176 646 150 l 706 38 q 590 -1 650 11 q 446 -14 531 -14 q 251 28 336 -14 q 117 157 165 71 q 69 371 69 243 q 113 588 69 500 q 235 722 157 676 q 418 767 314 767 m 421 636 q 305 590 349 636 q 254 458 261 544 l 575 458 q 558 551 575 511 q 508 613 542 590 q 421 636 474 636 m 182 950 q 206 1014 182 994 q 265 1033 231 1033 q 326 1014 300 1033 q 351 950 351 994 q 326 888 351 908 q 265 868 300 868 q 206 888 231 868 q 182 950 182 908 m 467 950 q 491 1014 467 994 q 551 1033 515 1033 q 610 1014 585 1033 q 636 950 636 994 q 610 888 636 908 q 551 868 585 868 q 491 888 515 868 q 467 950 467 908 z "},"ì":{"ha":393,"x_min":-4,"x_max":347,"o":"m 285 0 l 108 0 l 108 753 l 285 753 l 285 0 m 197 1064 q 242 995 215 1033 q 298 922 269 957 q 347 860 326 886 l 347 842 l 229 842 q 171 888 204 861 q 104 945 138 915 q 42 1003 71 975 q -4 1050 13 1031 l -4 1064 l 197 1064 z "},"í":{"ha":393,"x_min":99,"x_max":451,"o":"m 285 0 l 108 0 l 108 753 l 285 753 l 285 0 m 450 1050 q 404 1003 433 1031 q 341 945 375 975 q 274 888 307 915 q 215 842 242 861 l 99 842 l 99 860 q 149 922 121 886 q 203 995 176 957 q 249 1064 231 1033 l 450 1064 l 450 1050 z "},"î":{"ha":393,"x_min":-65,"x_max":460,"o":"m 285 0 l 108 0 l 108 753 l 285 753 l 285 0 m 286 1064 q 335 995 304 1033 q 401 920 367 957 q 460 858 435 883 l 460 842 l 340 842 q 268 893 304 864 q 196 958 232 922 q 124 894 158 922 q 53 842 89 865 l -65 842 l -65 858 q -6 921 -39 885 q 57 995 26 957 q 107 1064 88 1033 l 286 1064 z "},"ï":{"ha":393,"x_min":-29,"x_max":425,"o":"m 285 0 l 108 0 l 108 753 l 285 753 l 285 0 m -29 950 q -5 1014 -29 994 q 54 1033 19 1033 q 115 1014 89 1033 q 140 950 140 994 q 115 888 140 908 q 54 868 89 868 q -5 888 19 868 q -29 950 -29 908 m 256 950 q 280 1014 256 994 q 340 1033 304 1033 q 399 1014 374 1033 q 425 950 425 994 q 399 888 425 908 q 340 868 374 868 q 280 888 304 868 q 256 950 256 908 z "},"ð":{"ha":860,"x_min":69,"x_max":788,"o":"m 310 1064 q 403 1019 358 1043 q 486 967 447 994 l 639 1060 l 701 967 l 579 893 q 690 757 643 832 q 762 590 736 682 q 788 386 788 497 q 744 167 788 257 q 619 32 700 78 q 426 -14 539 -14 q 242 27 322 -14 q 115 144 161 68 q 69 329 69 221 q 111 513 69 438 q 226 628 153 589 q 396 668 299 668 q 481 661 443 668 q 547 638 519 654 q 593 597 575 622 l 599 600 q 541 717 578 663 q 456 818 504 772 l 296 722 l 233 817 l 367 896 q 310 931 340 914 q 250 965 281 949 l 310 1064 m 429 535 q 326 511 365 535 q 268 442 286 488 q 250 326 250 396 q 268 219 250 267 q 326 146 286 172 q 429 119 367 119 q 566 180 524 119 q 608 357 608 240 q 597 424 608 392 q 564 481 586 457 q 508 520 542 506 q 429 535 475 535 z "},"ñ":{"ha":886,"x_min":108,"x_max":782,"o":"m 513 767 q 711 701 640 767 q 782 490 782 636 l 782 0 l 607 0 l 607 454 q 573 583 607 540 q 468 625 539 625 q 324 558 363 625 q 285 367 285 492 l 285 0 l 108 0 l 108 753 l 244 753 l 269 651 l 278 651 q 339 716 303 690 q 419 754 375 742 q 513 767 463 767 m 178 840 q 197 927 182 890 q 234 989 211 964 q 286 1026 257 1014 q 350 1039 315 1039 q 407 1028 379 1039 q 460 1001 435 1017 q 511 975 486 986 q 560 964 536 964 q 603 983 585 964 q 631 1040 622 1003 l 721 1040 q 665 892 713 943 q 549 842 617 842 q 493 853 519 842 q 440 879 467 864 q 388 906 413 894 q 339 917 364 917 q 295 898 314 917 q 268 840 276 879 l 178 840 z "},"ò":{"ha":857,"x_min":69,"x_max":788,"o":"m 788 378 q 763 212 788 285 q 691 88 738 139 q 577 12 644 38 q 426 -14 510 -14 q 283 12 349 -14 q 171 88 218 38 q 97 212 124 139 q 69 378 69 285 q 113 590 69 504 q 238 722 157 676 q 431 767 318 767 q 616 722 536 767 q 742 590 696 676 q 788 378 788 504 m 250 378 q 269 242 250 300 q 327 154 288 185 q 429 124 367 124 q 531 154 492 124 q 589 242 571 185 q 607 378 607 300 q 588 514 607 458 q 531 599 569 569 q 428 629 492 629 q 292 563 335 629 q 250 378 250 497 m 429 1064 q 474 995 447 1033 q 530 922 501 957 q 579 860 558 886 l 579 842 l 461 842 q 403 888 436 861 q 336 945 369 915 q 274 1003 303 975 q 228 1050 244 1031 l 228 1064 l 429 1064 z "},"ó":{"ha":857,"x_min":69,"x_max":788,"o":"m 788 378 q 763 212 788 285 q 691 88 738 139 q 577 12 644 38 q 426 -14 510 -14 q 283 12 349 -14 q 171 88 218 38 q 97 212 124 139 q 69 378 69 285 q 113 590 69 504 q 238 722 157 676 q 431 767 318 767 q 616 722 536 767 q 742 590 696 676 q 788 378 788 504 m 250 378 q 269 242 250 300 q 327 154 288 185 q 429 124 367 124 q 531 154 492 124 q 589 242 571 185 q 607 378 607 300 q 588 514 607 458 q 531 599 569 569 q 428 629 492 629 q 292 563 335 629 q 250 378 250 497 m 683 1050 q 638 1003 667 1031 q 574 945 608 975 q 508 888 540 915 q 449 842 475 861 l 332 842 l 332 860 q 382 922 354 886 q 437 995 410 957 q 482 1064 464 1033 l 683 1064 l 683 1050 z "},"ô":{"ha":857,"x_min":69,"x_max":788,"o":"m 788 378 q 763 212 788 285 q 691 88 738 139 q 577 12 644 38 q 426 -14 510 -14 q 283 12 349 -14 q 171 88 218 38 q 97 212 124 139 q 69 378 69 285 q 113 590 69 504 q 238 722 157 676 q 431 767 318 767 q 616 722 536 767 q 742 590 696 676 q 788 378 788 504 m 250 378 q 269 242 250 300 q 327 154 288 185 q 429 124 367 124 q 531 154 492 124 q 589 242 571 185 q 607 378 607 300 q 588 514 607 458 q 531 599 569 569 q 428 629 492 629 q 292 563 335 629 q 250 378 250 497 m 518 1064 q 567 995 536 1033 q 633 920 599 957 q 692 858 667 883 l 692 842 l 572 842 q 500 893 536 864 q 428 958 464 922 q 356 894 390 922 q 285 842 321 865 l 167 842 l 167 858 q 226 921 193 885 q 289 995 258 957 q 339 1064 319 1033 l 518 1064 z "},"õ":{"ha":857,"x_min":69,"x_max":788,"o":"m 788 378 q 763 212 788 285 q 691 88 738 139 q 577 12 644 38 q 426 -14 510 -14 q 283 12 349 -14 q 171 88 218 38 q 97 212 124 139 q 69 378 69 285 q 113 590 69 504 q 238 722 157 676 q 431 767 318 767 q 616 722 536 767 q 742 590 696 676 q 788 378 788 504 m 250 378 q 269 242 250 300 q 327 154 288 185 q 429 124 367 124 q 531 154 492 124 q 589 242 571 185 q 607 378 607 300 q 588 514 607 458 q 531 599 569 569 q 428 629 492 629 q 292 563 335 629 q 250 378 250 497 m 164 840 q 183 927 168 890 q 220 989 197 964 q 272 1026 243 1014 q 336 1039 301 1039 q 393 1028 365 1039 q 447 1001 421 1017 q 497 975 472 986 q 546 964 522 964 q 590 983 571 964 q 617 1040 608 1003 l 707 1040 q 651 892 699 943 q 535 842 603 842 q 479 853 506 842 q 426 879 453 864 q 374 906 399 894 q 325 917 350 917 q 281 898 300 917 q 254 840 263 879 l 164 840 z "},"ö":{"ha":857,"x_min":69,"x_max":788,"o":"m 788 378 q 763 212 788 285 q 691 88 738 139 q 577 12 644 38 q 426 -14 510 -14 q 283 12 349 -14 q 171 88 218 38 q 97 212 124 139 q 69 378 69 285 q 113 590 69 504 q 238 722 157 676 q 431 767 318 767 q 616 722 536 767 q 742 590 696 676 q 788 378 788 504 m 250 378 q 269 242 250 300 q 327 154 288 185 q 429 124 367 124 q 531 154 492 124 q 589 242 571 185 q 607 378 607 300 q 588 514 607 458 q 531 599 569 569 q 428 629 492 629 q 292 563 335 629 q 250 378 250 497 m 203 950 q 227 1014 203 994 q 286 1033 251 1033 q 347 1014 321 1033 q 372 950 372 994 q 347 888 372 908 q 286 868 321 868 q 227 888 251 868 q 203 950 203 908 m 488 950 q 512 1014 488 994 q 572 1033 536 1033 q 631 1014 606 1033 q 657 950 657 994 q 631 888 657 908 q 572 868 606 868 q 512 888 536 868 q 488 950 488 908 z "},"÷":{"ha":794,"x_min":64,"x_max":729,"o":"m 64 425 l 64 554 l 729 554 l 729 425 l 64 425 m 396 157 q 334 180 360 157 q 308 253 308 203 q 334 327 308 306 q 396 349 360 349 q 457 327 431 349 q 483 253 483 306 q 457 180 483 203 q 396 157 431 157 m 396 631 q 334 653 360 631 q 308 726 308 676 q 334 801 308 779 q 396 822 360 822 q 457 801 431 822 q 483 726 483 779 q 457 653 483 676 q 396 631 431 631 z "},"ø":{"ha":853,"x_min":68,"x_max":785,"o":"m 785 378 q 741 165 785 253 q 616 32 697 78 q 424 -14 535 -14 q 336 -4 378 -14 q 258 22 294 6 l 208 -49 l 113 15 l 165 90 q 94 213 119 142 q 68 378 68 285 q 165 666 68 565 q 428 767 261 767 q 520 756 476 767 q 601 726 564 746 l 646 790 l 740 725 l 693 656 q 760 537 736 607 q 785 378 785 467 m 247 378 q 252 303 247 338 q 267 240 257 268 l 517 601 q 476 619 499 613 q 425 625 453 625 q 290 561 332 625 q 247 378 247 497 m 606 378 q 601 446 606 415 q 589 501 597 476 l 343 146 q 382 133 361 138 q 426 128 403 128 q 530 157 490 128 q 588 242 569 186 q 606 378 606 299 z "},"ù":{"ha":886,"x_min":103,"x_max":778,"o":"m 778 753 l 778 0 l 640 0 l 615 97 l 607 97 q 546 34 583 58 q 465 -2 508 10 q 372 -14 421 -14 q 228 15 289 -14 q 135 104 167 43 q 103 261 103 165 l 103 753 l 279 753 l 279 297 q 313 172 279 214 q 417 129 346 129 q 528 158 488 129 q 585 245 568 188 q 601 386 601 303 l 601 753 l 778 753 m 443 1064 q 488 995 461 1033 q 544 922 515 957 q 593 860 572 886 l 593 842 l 475 842 q 417 888 450 861 q 350 945 383 915 q 288 1003 317 975 q 242 1050 258 1031 l 242 1064 l 443 1064 z "},"ú":{"ha":886,"x_min":103,"x_max":778,"o":"m 778 753 l 778 0 l 640 0 l 615 97 l 607 97 q 546 34 583 58 q 465 -2 508 10 q 372 -14 421 -14 q 228 15 289 -14 q 135 104 167 43 q 103 261 103 165 l 103 753 l 279 753 l 279 297 q 313 172 279 214 q 417 129 346 129 q 528 158 488 129 q 585 245 568 188 q 601 386 601 303 l 601 753 l 778 753 m 696 1050 q 650 1003 679 1031 q 587 945 621 975 q 520 888 553 915 q 461 842 488 861 l 344 842 l 344 860 q 394 922 367 886 q 449 995 422 957 q 494 1064 476 1033 l 696 1064 l 696 1050 z "},"û":{"ha":886,"x_min":103,"x_max":778,"o":"m 778 753 l 778 0 l 640 0 l 615 97 l 607 97 q 546 34 583 58 q 465 -2 508 10 q 372 -14 421 -14 q 228 15 289 -14 q 135 104 167 43 q 103 261 103 165 l 103 753 l 279 753 l 279 297 q 313 172 279 214 q 417 129 346 129 q 528 158 488 129 q 585 245 568 188 q 601 386 601 303 l 601 753 l 778 753 m 532 1064 q 581 995 550 1033 q 647 920 613 957 q 706 858 681 883 l 706 842 l 586 842 q 514 893 550 864 q 442 958 478 922 q 369 894 404 922 q 299 842 335 865 l 181 842 l 181 858 q 240 921 207 885 q 303 995 272 957 q 353 1064 333 1033 l 532 1064 z "},"ü":{"ha":886,"x_min":103,"x_max":778,"o":"m 778 753 l 778 0 l 640 0 l 615 97 l 607 97 q 546 34 583 58 q 465 -2 508 10 q 372 -14 421 -14 q 228 15 289 -14 q 135 104 167 43 q 103 261 103 165 l 103 753 l 279 753 l 279 297 q 313 172 279 214 q 417 129 346 129 q 528 158 488 129 q 585 245 568 188 q 601 386 601 303 l 601 753 l 778 753 m 217 950 q 241 1014 217 994 q 300 1033 265 1033 q 360 1014 335 1033 q 386 950 386 994 q 360 888 386 908 q 300 868 335 868 q 241 888 265 868 q 217 950 217 908 m 501 950 q 526 1014 501 994 q 586 1033 550 1033 q 645 1014 619 1033 q 671 950 671 994 q 645 888 671 908 q 586 868 619 868 q 526 888 550 868 q 501 950 501 908 z "},"ý":{"ha":761,"x_min":0,"x_max":761,"o":"m 0 753 l 188 753 l 338 324 q 356 270 347 297 q 370 217 364 243 q 381 167 376 190 l 386 167 q 405 241 392 199 q 432 324 418 283 l 576 753 l 761 753 l 447 -82 q 377 -217 417 -161 q 281 -303 338 -274 q 140 -333 224 -333 q 80 -330 106 -333 q 36 -322 54 -326 l 36 -183 q 73 -189 51 -186 q 118 -192 94 -192 q 191 -174 161 -192 q 242 -128 221 -157 q 276 -61 263 -99 l 301 3 l 0 753 m 635 1050 q 589 1003 618 1031 q 526 945 560 975 q 459 888 492 915 q 400 842 426 861 l 283 842 l 283 860 q 333 922 306 886 q 388 995 361 957 q 433 1064 415 1033 l 635 1064 l 635 1050 z "},"þ":{"ha":869,"x_min":108,"x_max":799,"o":"m 799 378 q 761 163 799 250 q 657 31 724 75 q 503 -14 590 -14 q 408 0 449 -14 q 336 37 367 14 q 285 86 306 60 l 276 86 q 280 54 278 75 q 283 12 282 33 q 285 -25 285 -10 l 285 -333 l 108 -333 l 108 1056 l 285 1056 l 285 774 q 282 707 285 740 q 278 654 279 674 l 286 654 q 336 711 306 686 q 408 751 367 736 q 506 767 450 767 q 717 669 636 767 q 799 378 799 571 m 618 381 q 579 563 618 501 q 456 625 540 625 q 326 569 364 625 q 285 403 288 514 l 285 379 q 322 194 285 258 q 458 131 360 131 q 549 159 514 131 q 601 244 585 188 q 618 381 618 300 z "},"ÿ":{"ha":761,"x_min":0,"x_max":761,"o":"m 0 753 l 188 753 l 338 324 q 356 270 347 297 q 370 217 364 243 q 381 167 376 190 l 386 167 q 405 241 392 199 q 432 324 418 283 l 576 753 l 761 753 l 447 -82 q 377 -217 417 -161 q 281 -303 338 -274 q 140 -333 224 -333 q 80 -330 106 -333 q 36 -322 54 -326 l 36 -183 q 73 -189 51 -186 q 118 -192 94 -192 q 191 -174 161 -192 q 242 -128 221 -157 q 276 -61 263 -99 l 301 3 l 0 753 m 154 950 q 178 1014 154 994 q 238 1033 203 1033 q 298 1014 272 1033 q 324 950 324 994 q 298 888 324 908 q 238 868 272 868 q 178 888 203 868 q 154 950 154 908 m 439 950 q 463 1014 439 994 q 524 1033 488 1033 q 583 1014 557 1033 q 608 950 608 994 q 583 888 608 908 q 524 868 557 868 q 463 888 488 868 q 439 950 439 908 z "},"Ā":{"ha":933,"x_min":0,"x_max":932,"o":"m 742 0 l 649 261 l 282 261 l 190 0 l 0 0 l 364 996 l 568 996 l 932 0 l 742 0 m 519 661 q 503 715 514 678 q 481 791 492 751 q 465 853 471 831 q 449 787 458 824 q 431 717 440 750 q 415 661 422 685 l 329 414 l 604 414 l 519 661 m 686 1203 l 686 1081 l 243 1081 l 243 1203 l 686 1203 z "},"ā":{"ha":813,"x_min":58,"x_max":708,"o":"m 425 767 q 637 702 565 767 q 708 506 708 638 l 708 0 l 583 0 l 550 104 l 544 104 q 478 38 513 64 q 400 -1 444 11 q 293 -14 356 -14 q 173 11 226 -14 q 89 88 119 36 q 58 218 58 139 q 145 394 58 333 q 407 460 232 454 l 533 464 l 533 496 q 499 603 533 572 q 403 635 464 635 q 295 617 349 635 q 192 578 242 600 l 139 700 q 268 749 194 731 q 425 767 342 767 m 442 353 q 283 315 328 347 q 239 222 239 282 q 271 144 239 169 q 353 118 303 118 q 481 163 429 118 q 533 292 533 207 l 533 356 l 442 353 m 628 964 l 628 842 l 185 842 l 185 964 l 628 964 z "},"Ă":{"ha":933,"x_min":0,"x_max":932,"o":"m 742 0 l 649 261 l 282 261 l 190 0 l 0 0 l 364 996 l 568 996 l 932 0 l 742 0 m 519 661 q 503 715 514 678 q 481 791 492 751 q 465 853 471 831 q 449 787 458 824 q 431 717 440 750 q 415 661 422 685 l 329 414 l 604 414 l 519 661 m 721 1293 q 685 1183 717 1231 q 599 1108 653 1135 q 471 1081 544 1081 q 295 1139 358 1081 q 226 1293 232 1197 l 326 1293 q 350 1237 331 1256 q 401 1213 369 1218 q 472 1208 433 1208 q 539 1215 507 1208 q 593 1239 571 1221 q 619 1293 615 1257 l 721 1293 z "},"ă":{"ha":813,"x_min":58,"x_max":708,"o":"m 425 767 q 637 702 565 767 q 708 506 708 638 l 708 0 l 583 0 l 550 104 l 544 104 q 478 38 513 64 q 400 -1 444 11 q 293 -14 356 -14 q 173 11 226 -14 q 89 88 119 36 q 58 218 58 139 q 145 394 58 333 q 407 460 232 454 l 533 464 l 533 496 q 499 603 533 572 q 403 635 464 635 q 295 617 349 635 q 192 578 242 600 l 139 700 q 268 749 194 731 q 425 767 342 767 m 442 353 q 283 315 328 347 q 239 222 239 282 q 271 144 239 169 q 353 118 303 118 q 481 163 429 118 q 533 292 533 207 l 533 356 l 442 353 m 663 1054 q 626 944 658 992 q 540 869 594 896 q 413 842 486 842 q 237 900 300 842 q 168 1054 174 958 l 268 1054 q 292 998 272 1017 q 343 974 311 979 q 414 969 375 969 q 481 976 449 969 q 535 1000 513 982 q 561 1054 557 1018 l 663 1054 z "},"Ą":{"ha":933,"x_min":0,"x_max":932,"o":"m 742 0 l 649 261 l 282 261 l 190 0 l 0 0 l 364 996 l 568 996 l 932 0 l 742 0 m 519 661 q 503 715 514 678 q 481 791 492 751 q 465 853 471 831 q 449 787 458 824 q 431 717 440 750 q 415 661 422 685 l 329 414 l 604 414 l 519 661 m 793 -151 q 809 -193 793 -179 q 851 -207 825 -207 q 892 -203 874 -207 q 924 -196 911 -199 l 924 -301 q 880 -312 903 -307 q 825 -317 857 -317 q 708 -278 750 -317 q 665 -175 665 -240 q 683 -103 665 -139 q 733 -34 701 -67 q 804 26 764 -1 l 886 0 q 816 -78 839 -44 q 793 -151 793 -112 z "},"ą":{"ha":813,"x_min":58,"x_max":732,"o":"m 425 767 q 637 702 565 767 q 708 506 708 638 l 708 0 l 583 0 l 550 104 l 544 104 q 478 38 513 64 q 400 -1 444 11 q 293 -14 356 -14 q 173 11 226 -14 q 89 88 119 36 q 58 218 58 139 q 145 394 58 333 q 407 460 232 454 l 533 464 l 533 496 q 499 603 533 572 q 403 635 464 635 q 295 617 349 635 q 192 578 242 600 l 139 700 q 268 749 194 731 q 425 767 342 767 m 442 353 q 283 315 328 347 q 239 222 239 282 q 271 144 239 169 q 353 118 303 118 q 481 163 429 118 q 533 292 533 207 l 533 356 l 442 353 m 601 -151 q 617 -193 601 -179 q 660 -207 633 -207 q 701 -203 682 -207 q 732 -196 719 -199 l 732 -301 q 688 -312 711 -307 q 633 -317 665 -317 q 516 -278 558 -317 q 474 -175 474 -240 q 492 -103 474 -139 q 541 -34 510 -67 q 613 26 572 -1 l 694 0 q 624 -78 647 -44 q 601 -151 601 -112 z "},"Ć":{"ha":886,"x_min":79,"x_max":843,"o":"m 556 854 q 435 830 489 854 q 343 758 381 806 q 285 644 306 711 q 265 494 265 578 q 298 303 265 383 q 397 180 331 222 q 561 138 463 138 q 685 151 626 138 q 803 185 744 165 l 803 32 q 681 -3 744 8 q 538 -14 618 -14 q 281 49 383 -14 q 129 227 179 113 q 79 496 79 342 q 110 701 79 608 q 203 863 142 794 q 353 969 264 932 q 557 1006 442 1006 q 706 990 632 1006 q 843 943 781 974 l 782 797 q 676 838 732 821 q 556 854 621 854 m 774 1289 q 728 1242 757 1269 q 665 1184 699 1214 q 598 1127 631 1154 q 539 1081 565 1100 l 422 1081 l 422 1099 q 472 1160 444 1125 q 527 1234 500 1196 q 572 1303 554 1272 l 774 1303 l 774 1289 z "},"ć":{"ha":697,"x_min":69,"x_max":656,"o":"m 426 -14 q 240 27 321 -14 q 115 153 160 68 q 69 372 69 239 q 118 598 69 511 q 250 726 167 685 q 439 767 333 767 q 558 754 501 767 q 656 721 615 742 l 603 583 q 522 610 565 599 q 438 622 479 622 q 334 594 376 622 q 271 512 292 567 q 250 374 250 457 q 272 240 250 294 q 334 159 293 186 q 433 132 375 132 q 544 147 493 132 q 639 185 594 161 l 639 38 q 547 0 597 14 q 426 -14 496 -14 m 653 1050 q 607 1003 636 1031 q 544 945 578 975 q 477 888 510 915 q 418 842 444 861 l 301 842 l 301 860 q 351 922 324 886 q 406 995 379 957 q 451 1064 433 1033 l 653 1064 l 653 1050 z "},"Ĉ":{"ha":886,"x_min":79,"x_max":843,"o":"m 556 854 q 435 830 489 854 q 343 758 381 806 q 285 644 306 711 q 265 494 265 578 q 298 303 265 383 q 397 180 331 222 q 561 138 463 138 q 685 151 626 138 q 803 185 744 165 l 803 32 q 681 -3 744 8 q 538 -14 618 -14 q 281 49 383 -14 q 129 227 179 113 q 79 496 79 342 q 110 701 79 608 q 203 863 142 794 q 353 969 264 932 q 557 1006 442 1006 q 706 990 632 1006 q 843 943 781 974 l 782 797 q 676 838 732 821 q 556 854 621 854 m 610 1303 q 659 1234 628 1272 q 724 1159 690 1196 q 783 1097 758 1122 l 783 1081 l 664 1081 q 592 1132 628 1103 q 519 1197 556 1161 q 447 1133 482 1161 q 376 1081 413 1104 l 258 1081 l 258 1097 q 317 1160 285 1124 q 381 1234 350 1196 q 431 1303 411 1272 l 610 1303 z "},"ĉ":{"ha":697,"x_min":69,"x_max":663,"o":"m 426 -14 q 240 27 321 -14 q 115 153 160 68 q 69 372 69 239 q 118 598 69 511 q 250 726 167 685 q 439 767 333 767 q 558 754 501 767 q 656 721 615 742 l 603 583 q 522 610 565 599 q 438 622 479 622 q 334 594 376 622 q 271 512 292 567 q 250 374 250 457 q 272 240 250 294 q 334 159 293 186 q 433 132 375 132 q 544 147 493 132 q 639 185 594 161 l 639 38 q 547 0 597 14 q 426 -14 496 -14 m 489 1064 q 538 995 507 1033 q 603 920 569 957 q 663 858 638 883 l 663 842 l 543 842 q 471 893 507 864 q 399 958 435 922 q 326 894 361 922 q 256 842 292 865 l 138 842 l 138 858 q 197 921 164 885 q 260 995 229 957 q 310 1064 290 1033 l 489 1064 z "},"Ċ":{"ha":886,"x_min":79,"x_max":843,"o":"m 556 854 q 435 830 489 854 q 343 758 381 806 q 285 644 306 711 q 265 494 265 578 q 298 303 265 383 q 397 180 331 222 q 561 138 463 138 q 685 151 626 138 q 803 185 744 165 l 803 32 q 681 -3 744 8 q 538 -14 618 -14 q 281 49 383 -14 q 129 227 179 113 q 79 496 79 342 q 110 701 79 608 q 203 863 142 794 q 353 969 264 932 q 557 1006 442 1006 q 706 990 632 1006 q 843 943 781 974 l 782 797 q 676 838 732 821 q 556 854 621 854 m 521 1283 q 589 1263 560 1283 q 618 1190 618 1242 q 589 1119 618 1140 q 521 1097 560 1097 q 451 1119 479 1097 q 422 1190 422 1140 q 451 1263 422 1242 q 521 1283 479 1283 z "},"ċ":{"ha":697,"x_min":69,"x_max":656,"o":"m 426 -14 q 240 27 321 -14 q 115 153 160 68 q 69 372 69 239 q 118 598 69 511 q 250 726 167 685 q 439 767 333 767 q 558 754 501 767 q 656 721 615 742 l 603 583 q 522 610 565 599 q 438 622 479 622 q 334 594 376 622 q 271 512 292 567 q 250 374 250 457 q 272 240 250 294 q 334 159 293 186 q 433 132 375 132 q 544 147 493 132 q 639 185 594 161 l 639 38 q 547 0 597 14 q 426 -14 496 -14 m 400 1044 q 468 1024 439 1044 q 497 951 497 1003 q 468 880 497 901 q 400 858 439 858 q 330 880 358 858 q 301 951 301 901 q 330 1024 301 1003 q 400 1044 358 1044 z "},"Č":{"ha":886,"x_min":79,"x_max":843,"o":"m 556 854 q 435 830 489 854 q 343 758 381 806 q 285 644 306 711 q 265 494 265 578 q 298 303 265 383 q 397 180 331 222 q 561 138 463 138 q 685 151 626 138 q 803 185 744 165 l 803 32 q 681 -3 744 8 q 538 -14 618 -14 q 281 49 383 -14 q 129 227 179 113 q 79 496 79 342 q 110 701 79 608 q 203 863 142 794 q 353 969 264 932 q 557 1006 442 1006 q 706 990 632 1006 q 843 943 781 974 l 782 797 q 676 838 732 821 q 556 854 621 854 m 431 1081 q 381 1150 413 1113 q 317 1224 350 1188 q 258 1285 285 1260 l 258 1303 l 375 1303 q 452 1249 411 1281 q 528 1181 493 1218 q 607 1249 565 1218 q 685 1303 649 1281 l 803 1303 l 803 1285 q 743 1224 776 1260 q 678 1150 710 1188 q 629 1081 647 1113 l 431 1081 z "},"č":{"ha":697,"x_min":69,"x_max":681,"o":"m 426 -14 q 240 27 321 -14 q 115 153 160 68 q 69 372 69 239 q 118 598 69 511 q 250 726 167 685 q 439 767 333 767 q 558 754 501 767 q 656 721 615 742 l 603 583 q 522 610 565 599 q 438 622 479 622 q 334 594 376 622 q 271 512 292 567 q 250 374 250 457 q 272 240 250 294 q 334 159 293 186 q 433 132 375 132 q 544 147 493 132 q 639 185 594 161 l 639 38 q 547 0 597 14 q 426 -14 496 -14 m 310 842 q 260 911 292 874 q 197 985 229 949 q 138 1046 164 1021 l 138 1064 l 254 1064 q 331 1010 290 1042 q 407 942 372 979 q 486 1010 444 979 q 564 1064 528 1042 l 682 1064 l 682 1046 q 622 985 656 1021 q 558 911 589 949 q 508 842 526 874 l 310 842 z "},"Ď":{"ha":1017,"x_min":124,"x_max":936,"o":"m 936 510 q 874 228 936 342 q 695 57 811 114 q 418 0 579 0 l 124 0 l 124 992 l 444 992 q 708 936 597 992 q 877 774 818 881 q 936 510 936 668 m 749 504 q 713 694 749 619 q 606 806 676 769 q 433 843 536 843 l 304 843 l 304 150 l 410 150 q 665 238 581 150 q 749 504 749 326 m 415 1081 q 366 1150 397 1113 q 302 1224 335 1188 q 243 1285 269 1260 l 243 1303 l 360 1303 q 437 1249 396 1281 q 513 1181 478 1218 q 592 1249 550 1218 q 669 1303 633 1281 l 788 1303 l 788 1285 q 728 1224 761 1260 q 663 1150 694 1188 q 614 1081 632 1113 l 415 1081 z "},"ď":{"ha":869,"x_min":69,"x_max":1029,"o":"m 1029 1042 q 1001 978 1018 1014 q 965 906 985 943 q 921 833 944 868 l 821 833 l 821 851 q 833 897 826 871 q 847 951 840 924 q 857 1006 853 979 q 864 1056 861 1033 l 1029 1056 l 1029 1042 m 363 -14 q 150 84 231 -14 q 69 375 69 182 q 151 668 69 569 q 367 767 233 767 q 463 752 422 767 q 535 713 504 738 q 586 657 565 688 l 593 657 q 587 720 590 679 q 583 793 583 761 l 583 1056 l 761 1056 l 761 0 l 624 0 l 590 99 l 583 99 q 533 42 563 67 q 460 1 503 17 q 363 -14 418 -14 m 415 129 q 552 184 513 129 q 593 351 592 239 l 593 374 q 555 559 593 494 q 414 624 517 624 q 292 558 335 624 q 250 372 250 492 q 292 191 250 253 q 415 129 335 129 z "},"Đ":{"ha":1017,"x_min":33,"x_max":936,"o":"m 444 992 q 707 936 597 992 q 876 774 817 881 q 936 510 936 668 q 874 228 936 342 q 694 57 811 114 q 417 0 578 0 l 131 0 l 131 415 l 33 415 l 33 565 l 131 565 l 131 992 l 444 992 m 433 843 l 310 843 l 310 565 l 517 565 l 517 415 l 310 415 l 310 150 l 410 150 q 665 238 582 150 q 749 504 749 326 q 712 694 749 619 q 606 806 675 769 q 433 843 536 843 z "},"đ":{"ha":881,"x_min":69,"x_max":867,"o":"m 358 -14 q 149 81 229 -14 q 69 361 69 176 q 152 646 69 553 q 368 739 235 739 q 465 724 424 739 q 538 685 507 710 q 590 629 568 660 l 597 629 q 588 688 593 646 q 583 767 583 729 l 583 822 l 340 822 l 340 940 l 583 940 l 583 1056 l 761 1056 l 761 940 l 867 940 l 867 822 l 761 822 l 761 0 l 617 0 l 583 99 l 575 99 q 524 42 554 68 q 454 1 494 17 q 358 -14 414 -14 m 422 129 q 554 181 515 129 q 593 339 593 233 l 593 360 q 553 535 593 475 q 418 594 514 594 q 301 534 342 594 q 260 358 260 474 q 299 192 260 254 q 422 129 339 129 z "},"Ē":{"ha":775,"x_min":129,"x_max":693,"o":"m 693 0 l 129 0 l 129 992 l 693 992 l 693 843 l 307 843 l 307 590 l 668 590 l 668 442 l 307 442 l 307 150 l 693 150 l 693 0 m 640 1203 l 640 1081 l 197 1081 l 197 1203 l 640 1203 z "},"ē":{"ha":813,"x_min":69,"x_max":746,"o":"m 418 767 q 593 726 519 767 q 706 610 667 686 q 746 425 746 533 l 746 335 l 250 335 q 307 178 253 233 q 461 122 361 122 q 589 136 532 122 q 706 176 646 150 l 706 38 q 590 -1 650 11 q 446 -14 531 -14 q 251 28 336 -14 q 117 157 165 71 q 69 371 69 243 q 113 588 69 500 q 235 722 157 676 q 418 767 314 767 m 421 636 q 305 590 349 636 q 254 458 261 544 l 575 458 q 558 551 575 511 q 508 613 542 590 q 421 636 474 636 m 629 964 l 629 842 l 186 842 l 186 964 l 629 964 z "},"Ĕ":{"ha":775,"x_min":129,"x_max":693,"o":"m 693 0 l 129 0 l 129 992 l 693 992 l 693 843 l 307 843 l 307 590 l 668 590 l 668 442 l 307 442 l 307 150 l 693 150 l 693 0 m 674 1293 q 638 1183 669 1231 q 551 1108 606 1135 q 424 1081 497 1081 q 248 1139 311 1081 q 179 1293 185 1197 l 279 1293 q 303 1237 283 1256 q 354 1213 322 1218 q 425 1208 386 1208 q 492 1215 460 1208 q 546 1239 524 1221 q 572 1293 568 1257 l 674 1293 z "},"ĕ":{"ha":813,"x_min":69,"x_max":746,"o":"m 418 767 q 593 726 519 767 q 706 610 667 686 q 746 425 746 533 l 746 335 l 250 335 q 307 178 253 233 q 461 122 361 122 q 589 136 532 122 q 706 176 646 150 l 706 38 q 590 -1 650 11 q 446 -14 531 -14 q 251 28 336 -14 q 117 157 165 71 q 69 371 69 243 q 113 588 69 500 q 235 722 157 676 q 418 767 314 767 m 421 636 q 305 590 349 636 q 254 458 261 544 l 575 458 q 558 551 575 511 q 508 613 542 590 q 421 636 474 636 m 664 1054 q 628 944 660 992 q 542 869 596 896 q 414 842 488 842 q 238 900 301 842 q 169 1054 175 958 l 269 1054 q 293 998 274 1017 q 344 974 313 979 q 415 969 376 969 q 482 976 450 969 q 536 1000 514 982 q 563 1054 558 1018 l 664 1054 z "},"Ė":{"ha":775,"x_min":129,"x_max":693,"o":"m 693 0 l 129 0 l 129 992 l 693 992 l 693 843 l 307 843 l 307 590 l 668 590 l 668 442 l 307 442 l 307 150 l 693 150 l 693 0 m 422 1283 q 490 1263 461 1283 q 519 1190 519 1242 q 490 1119 519 1140 q 422 1097 461 1097 q 352 1119 381 1097 q 324 1190 324 1140 q 352 1263 324 1242 q 422 1283 381 1283 z "},"ė":{"ha":813,"x_min":69,"x_max":746,"o":"m 418 767 q 593 726 519 767 q 706 610 667 686 q 746 425 746 533 l 746 335 l 250 335 q 307 178 253 233 q 461 122 361 122 q 589 136 532 122 q 706 176 646 150 l 706 38 q 590 -1 650 11 q 446 -14 531 -14 q 251 28 336 -14 q 117 157 165 71 q 69 371 69 243 q 113 588 69 500 q 235 722 157 676 q 418 767 314 767 m 421 636 q 305 590 349 636 q 254 458 261 544 l 575 458 q 558 551 575 511 q 508 613 542 590 q 421 636 474 636 m 410 1044 q 478 1024 449 1044 q 507 951 507 1003 q 478 880 507 901 q 410 858 449 858 q 340 880 368 858 q 311 951 311 901 q 340 1024 311 1003 q 410 1044 368 1044 z "},"Ę":{"ha":775,"x_min":129,"x_max":693,"o":"m 693 0 l 129 0 l 129 992 l 693 992 l 693 843 l 307 843 l 307 590 l 668 590 l 668 442 l 307 442 l 307 150 l 693 150 l 693 0 m 561 -151 q 577 -193 561 -179 q 619 -207 593 -207 q 660 -203 642 -207 q 692 -196 679 -199 l 692 -301 q 648 -312 671 -307 q 593 -317 625 -317 q 476 -278 518 -317 q 433 -175 433 -240 q 451 -103 433 -139 q 501 -34 469 -67 q 572 26 532 -1 l 654 0 q 584 -78 607 -44 q 561 -151 561 -112 z "},"ę":{"ha":807,"x_min":69,"x_max":746,"o":"m 561 -157 q 577 -201 561 -186 q 618 -215 593 -215 q 660 -211 642 -215 q 692 -204 679 -207 l 692 -308 q 648 -318 671 -314 q 593 -322 625 -322 q 476 -282 518 -322 q 435 -176 435 -242 q 455 -99 435 -136 q 508 -31 475 -61 q 578 22 542 0 l 703 38 q 617 -43 647 -8 q 574 -104 586 -78 q 561 -157 561 -131 m 418 767 q 593 726 519 767 q 706 610 667 686 q 746 425 746 533 l 746 335 l 250 335 q 307 178 253 233 q 461 122 361 122 q 589 136 532 122 q 706 176 646 150 l 706 38 q 590 -1 650 11 q 444 -14 531 -14 q 250 28 335 -14 q 117 157 165 71 q 69 371 69 243 q 113 588 69 500 q 235 722 157 676 q 418 767 314 767 m 421 636 q 305 590 349 636 q 254 458 261 544 l 575 458 q 558 551 575 511 q 506 614 540 592 q 421 636 472 636 z "},"Ě":{"ha":775,"x_min":129,"x_max":697,"o":"m 693 0 l 129 0 l 129 992 l 693 992 l 693 843 l 307 843 l 307 590 l 668 590 l 668 442 l 307 442 l 307 150 l 693 150 l 693 0 m 325 1081 q 276 1150 307 1113 q 212 1224 244 1188 q 153 1285 179 1260 l 153 1303 l 269 1303 q 347 1249 306 1281 q 422 1181 388 1218 q 501 1249 460 1218 q 579 1303 543 1281 l 697 1303 l 697 1285 q 638 1224 671 1260 q 573 1150 604 1188 q 524 1081 542 1113 l 325 1081 z "},"ě":{"ha":813,"x_min":69,"x_max":746,"o":"m 418 767 q 593 726 519 767 q 706 610 667 686 q 746 425 746 533 l 746 335 l 250 335 q 307 178 253 233 q 461 122 361 122 q 589 136 532 122 q 706 176 646 150 l 706 38 q 590 -1 650 11 q 446 -14 531 -14 q 251 28 336 -14 q 117 157 165 71 q 69 371 69 243 q 113 588 69 500 q 235 722 157 676 q 418 767 314 767 m 421 636 q 305 590 349 636 q 254 458 261 544 l 575 458 q 558 551 575 511 q 508 613 542 590 q 421 636 474 636 m 318 842 q 269 911 300 874 q 205 985 238 949 q 146 1046 172 1021 l 146 1064 l 263 1064 q 340 1010 299 1042 q 415 942 381 979 q 494 1010 453 979 q 572 1064 536 1042 l 690 1064 l 690 1046 q 631 985 664 1021 q 566 911 597 949 q 517 842 535 874 l 318 842 z "},"Ĝ":{"ha":1008,"x_min":82,"x_max":900,"o":"m 525 544 l 900 544 l 900 40 q 738 0 821 14 q 549 -14 654 -14 q 294 46 399 -14 q 136 219 190 106 q 82 497 82 333 q 143 767 82 653 q 319 943 204 881 q 599 1006 433 1006 q 755 990 679 1006 q 893 946 831 974 l 832 800 q 723 840 785 824 q 594 856 661 856 q 419 811 493 856 q 306 685 346 767 q 267 494 267 604 q 297 308 267 389 q 394 181 328 226 q 568 136 461 136 q 658 141 621 136 q 725 154 694 146 l 725 393 l 525 393 l 525 544 m 643 1303 q 692 1234 661 1272 q 758 1159 724 1196 q 817 1097 792 1122 l 817 1081 l 697 1081 q 625 1132 661 1103 q 553 1197 589 1161 q 481 1133 515 1161 q 410 1081 446 1104 l 292 1081 l 292 1097 q 351 1160 318 1124 q 414 1234 383 1196 q 464 1303 444 1272 l 643 1303 z "},"ĝ":{"ha":869,"x_min":69,"x_max":761,"o":"m 365 767 q 497 738 442 767 q 589 657 551 710 l 596 657 l 614 753 l 761 753 l 761 -8 q 722 -187 761 -115 q 602 -297 682 -260 q 399 -333 522 -333 q 245 -322 314 -333 q 118 -287 176 -311 l 118 -133 q 245 -176 178 -161 q 397 -192 313 -192 q 536 -146 488 -192 q 585 -18 585 -100 l 585 4 q 587 51 585 22 q 590 99 589 79 l 585 99 q 496 16 550 46 q 364 -14 442 -14 q 149 88 228 -14 q 69 375 69 189 q 149 663 69 560 q 365 767 229 767 m 414 625 q 324 596 361 625 q 269 510 288 567 q 250 374 250 454 q 292 188 250 250 q 417 126 335 126 q 497 140 464 126 q 552 180 531 153 q 584 249 574 207 q 594 347 594 290 l 594 378 q 576 517 594 463 q 517 599 557 572 q 414 625 478 625 m 511 1064 q 560 995 529 1033 q 626 920 592 957 q 685 858 660 883 l 685 842 l 565 842 q 493 893 529 864 q 421 958 457 922 q 349 894 383 922 q 278 842 314 865 l 160 842 l 160 858 q 219 921 186 885 q 282 995 251 957 q 332 1064 313 1033 l 511 1064 z "},"Ğ":{"ha":1008,"x_min":82,"x_max":900,"o":"m 525 544 l 900 544 l 900 40 q 738 0 821 14 q 549 -14 654 -14 q 294 46 399 -14 q 136 219 190 106 q 82 497 82 333 q 143 767 82 653 q 319 943 204 881 q 599 1006 433 1006 q 755 990 679 1006 q 893 946 831 974 l 832 800 q 723 840 785 824 q 594 856 661 856 q 419 811 493 856 q 306 685 346 767 q 267 494 267 604 q 297 308 267 389 q 394 181 328 226 q 568 136 461 136 q 658 141 621 136 q 725 154 694 146 l 725 393 l 525 393 l 525 544 m 811 1293 q 775 1183 807 1231 q 689 1108 743 1135 q 561 1081 635 1081 q 385 1139 449 1081 q 317 1293 322 1197 l 417 1293 q 440 1237 421 1256 q 492 1213 460 1218 q 563 1208 524 1208 q 629 1215 597 1208 q 683 1239 661 1221 q 710 1293 706 1257 l 811 1293 z "},"ğ":{"ha":869,"x_min":69,"x_max":761,"o":"m 365 767 q 497 738 442 767 q 589 657 551 710 l 596 657 l 614 753 l 761 753 l 761 -8 q 722 -187 761 -115 q 602 -297 682 -260 q 399 -333 522 -333 q 245 -322 314 -333 q 118 -287 176 -311 l 118 -133 q 245 -176 178 -161 q 397 -192 313 -192 q 536 -146 488 -192 q 585 -18 585 -100 l 585 4 q 587 51 585 22 q 590 99 589 79 l 585 99 q 496 16 550 46 q 364 -14 442 -14 q 149 88 228 -14 q 69 375 69 189 q 149 663 69 560 q 365 767 229 767 m 414 625 q 324 596 361 625 q 269 510 288 567 q 250 374 250 454 q 292 188 250 250 q 417 126 335 126 q 497 140 464 126 q 552 180 531 153 q 584 249 574 207 q 594 347 594 290 l 594 378 q 576 517 594 463 q 517 599 557 572 q 414 625 478 625 m 676 1054 q 640 944 672 992 q 554 869 608 896 q 426 842 500 842 q 251 900 314 842 q 182 1054 188 958 l 282 1054 q 306 998 286 1017 q 357 974 325 979 q 428 969 389 969 q 494 976 463 969 q 549 1000 526 982 q 575 1054 571 1018 l 676 1054 z "},"Ġ":{"ha":1008,"x_min":82,"x_max":900,"o":"m 525 544 l 900 544 l 900 40 q 738 0 821 14 q 549 -14 654 -14 q 294 46 399 -14 q 136 219 190 106 q 82 497 82 333 q 143 767 82 653 q 319 943 204 881 q 599 1006 433 1006 q 755 990 679 1006 q 893 946 831 974 l 832 800 q 723 840 785 824 q 594 856 661 856 q 419 811 493 856 q 306 685 346 767 q 267 494 267 604 q 297 308 267 389 q 394 181 328 226 q 568 136 461 136 q 658 141 621 136 q 725 154 694 146 l 725 393 l 525 393 l 525 544 m 560 1283 q 628 1263 599 1283 q 657 1190 657 1242 q 628 1119 657 1140 q 560 1097 599 1097 q 490 1119 518 1097 q 461 1190 461 1140 q 490 1263 461 1242 q 560 1283 518 1283 z "},"ġ":{"ha":869,"x_min":69,"x_max":761,"o":"m 365 767 q 497 738 442 767 q 589 657 551 710 l 596 657 l 614 753 l 761 753 l 761 -8 q 722 -187 761 -115 q 602 -297 682 -260 q 399 -333 522 -333 q 245 -322 314 -333 q 118 -287 176 -311 l 118 -133 q 245 -176 178 -161 q 397 -192 313 -192 q 536 -146 488 -192 q 585 -18 585 -100 l 585 4 q 587 51 585 22 q 590 99 589 79 l 585 99 q 496 16 550 46 q 364 -14 442 -14 q 149 88 228 -14 q 69 375 69 189 q 149 663 69 560 q 365 767 229 767 m 414 625 q 324 596 361 625 q 269 510 288 567 q 250 374 250 454 q 292 188 250 250 q 417 126 335 126 q 497 140 464 126 q 552 180 531 153 q 584 249 574 207 q 594 347 594 290 l 594 378 q 576 517 594 463 q 517 599 557 572 q 414 625 478 625 m 422 1044 q 490 1024 461 1044 q 519 951 519 1003 q 490 880 519 901 q 422 858 461 858 q 352 880 381 858 q 324 951 324 901 q 352 1024 324 1003 q 422 1044 381 1044 z "},"Ģ":{"ha":1008,"x_min":82,"x_max":900,"o":"m 525 544 l 900 544 l 900 40 q 738 0 821 14 q 549 -14 654 -14 q 294 46 399 -14 q 136 219 190 106 q 82 497 82 333 q 143 767 82 653 q 319 943 204 881 q 599 1006 433 1006 q 755 990 679 1006 q 893 946 831 974 l 832 800 q 723 840 785 824 q 594 856 661 856 q 419 811 493 856 q 306 685 346 767 q 267 494 267 604 q 297 308 267 389 q 394 181 328 226 q 568 136 461 136 q 658 141 621 136 q 725 154 694 146 l 725 393 l 525 393 l 525 544 m 657 -99 q 631 -164 649 -128 q 592 -237 614 -200 q 546 -307 571 -274 l 444 -307 l 444 -289 q 464 -226 454 -264 q 482 -151 474 -189 q 492 -85 490 -112 l 657 -85 l 657 -99 z "},"ģ":{"ha":869,"x_min":69,"x_max":761,"o":"m 538 1046 q 519 984 529 1021 q 501 910 510 947 q 490 842 493 872 l 325 842 l 325 856 q 353 919 336 883 q 392 992 371 954 q 438 1064 413 1031 l 538 1064 l 538 1046 m 365 767 q 496 738 440 767 q 589 656 551 708 l 596 656 l 614 753 l 761 753 l 761 -8 q 722 -187 761 -115 q 602 -297 682 -260 q 399 -333 522 -333 q 245 -322 314 -333 q 118 -287 176 -311 l 118 -133 q 245 -176 178 -161 q 397 -192 313 -192 q 535 -146 486 -192 q 585 -19 585 -100 l 585 6 q 587 51 585 22 q 590 97 589 81 l 585 97 q 496 15 550 44 q 364 -14 442 -14 q 149 88 228 -14 q 69 375 69 189 q 149 663 69 560 q 365 767 229 767 m 414 625 q 324 596 360 625 q 269 510 288 567 q 250 372 250 454 q 292 188 250 250 q 417 126 335 126 q 497 140 464 126 q 552 180 531 153 q 584 249 574 207 q 594 347 594 290 l 594 376 q 576 517 594 463 q 518 599 558 572 q 414 625 478 625 z "},"Ĥ":{"ha":1050,"x_min":129,"x_max":921,"o":"m 921 0 l 743 0 l 743 440 l 307 440 l 307 0 l 129 0 l 129 992 l 307 992 l 307 592 l 743 592 l 743 992 l 921 992 l 921 0 m 611 1303 q 660 1234 629 1272 q 726 1159 692 1196 q 785 1097 760 1122 l 785 1081 l 665 1081 q 593 1132 629 1103 q 521 1197 557 1161 q 449 1133 483 1161 q 378 1081 414 1104 l 260 1081 l 260 1097 q 319 1160 286 1124 q 382 1234 351 1196 q 432 1303 413 1272 l 611 1303 z "},"ĥ":{"ha":886,"x_min":-64,"x_max":782,"o":"m 285 807 q 282 719 285 758 q 276 654 279 679 l 286 654 q 344 717 310 693 q 422 754 379 742 q 510 767 464 767 q 656 738 594 767 q 749 648 717 708 q 782 490 782 588 l 782 0 l 606 0 l 606 454 q 572 583 606 540 q 468 625 539 625 q 358 594 399 625 q 301 507 318 564 q 285 367 285 450 l 285 0 l 108 0 l 108 1056 l 285 1056 l 285 807 m 288 1367 q 337 1298 306 1336 q 402 1223 368 1260 q 461 1161 436 1186 l 461 1144 l 342 1144 q 269 1196 306 1167 q 197 1261 233 1225 q 125 1197 160 1225 q 54 1144 90 1168 l -64 1144 l -64 1161 q -5 1224 -37 1188 q 58 1298 28 1260 q 108 1367 89 1336 l 288 1367 z "},"Ħ":{"ha":1051,"x_min":0,"x_max":1050,"o":"m 128 0 l 128 725 l 0 725 l 0 847 l 128 847 l 128 992 l 308 992 l 308 847 l 742 847 l 742 992 l 922 992 l 922 847 l 1050 847 l 1050 725 l 922 725 l 922 0 l 742 0 l 742 440 l 308 440 l 308 0 l 128 0 m 308 592 l 742 592 l 742 725 l 308 725 l 308 592 z "},"ħ":{"ha":892,"x_min":7,"x_max":785,"o":"m 288 1056 l 288 940 l 532 940 l 532 822 l 288 822 l 288 768 q 284 681 288 724 q 278 618 281 639 l 289 618 q 348 681 314 657 q 424 718 382 706 q 514 731 467 731 q 660 701 599 731 q 753 612 721 672 q 785 454 785 551 l 785 0 l 610 0 l 610 419 q 576 547 610 504 q 471 589 543 589 q 361 559 401 589 q 304 472 321 529 q 288 332 288 415 l 288 0 l 113 0 l 113 822 l 7 822 l 7 940 l 113 940 l 113 1056 l 288 1056 z "},"Ĩ":{"ha":514,"x_min":-36,"x_max":507,"o":"m 465 0 l 49 0 l 49 101 l 168 146 l 168 844 l 49 890 l 49 992 l 465 992 l 465 890 l 346 844 l 346 146 l 465 101 l 465 0 m -36 1079 q -17 1166 -32 1129 q 20 1228 -3 1203 q 72 1265 43 1253 q 136 1278 101 1278 q 193 1267 165 1278 q 247 1240 221 1256 q 297 1214 272 1225 q 346 1203 322 1203 q 390 1222 371 1203 q 417 1279 408 1242 l 507 1279 q 451 1131 499 1182 q 335 1081 403 1081 q 279 1092 306 1081 q 226 1118 253 1103 q 174 1144 199 1133 q 125 1156 150 1156 q 81 1137 100 1156 q 54 1079 63 1118 l -36 1079 z "},"ĩ":{"ha":393,"x_min":-68,"x_max":474,"o":"m 285 0 l 108 0 l 108 753 l 285 753 l 285 0 m -68 840 q -49 927 -64 890 q -12 989 -35 964 q 40 1026 11 1014 q 104 1039 69 1039 q 161 1028 133 1039 q 215 1001 189 1017 q 265 975 240 986 q 314 964 290 964 q 358 983 339 964 q 385 1040 376 1003 l 475 1040 q 419 892 467 943 q 303 842 371 842 q 247 853 274 842 q 194 879 221 864 q 142 906 167 894 q 93 917 118 917 q 49 898 68 917 q 22 840 31 879 l -68 840 z "},"Ī":{"ha":514,"x_min":35,"x_max":478,"o":"m 465 0 l 49 0 l 49 101 l 168 146 l 168 844 l 49 890 l 49 992 l 465 992 l 465 890 l 346 844 l 346 146 l 465 101 l 465 0 m 478 1203 l 478 1081 l 35 1081 l 35 1203 l 478 1203 z "},"ī":{"ha":393,"x_min":-25,"x_max":418,"o":"m 285 0 l 108 0 l 108 753 l 285 753 l 285 0 m 418 964 l 418 842 l -25 842 l -25 964 l 418 964 z "},"Ĭ":{"ha":514,"x_min":17,"x_max":513,"o":"m 465 0 l 49 0 l 49 101 l 168 146 l 168 844 l 49 890 l 49 992 l 465 992 l 465 890 l 346 844 l 346 146 l 465 101 l 465 0 m 511 1293 q 475 1183 507 1231 q 389 1108 443 1135 q 261 1081 335 1081 q 85 1139 149 1081 q 17 1293 22 1197 l 117 1293 q 140 1237 121 1256 q 192 1213 160 1218 q 263 1208 224 1208 q 329 1215 297 1208 q 383 1239 361 1221 q 410 1293 406 1257 l 511 1293 z "},"ĭ":{"ha":393,"x_min":-42,"x_max":453,"o":"m 285 0 l 108 0 l 108 753 l 285 753 l 285 0 m 453 1054 q 417 944 449 992 q 331 869 385 896 q 203 842 276 842 q 27 900 90 842 q -42 1054 -36 958 l 58 1054 q 82 998 63 1017 q 133 974 101 979 q 204 969 165 969 q 271 976 239 969 q 325 1000 303 982 q 351 1054 347 1018 l 453 1054 z "},"Į":{"ha":514,"x_min":49,"x_max":465,"o":"m 465 0 l 49 0 l 49 101 l 168 146 l 168 844 l 49 890 l 49 992 l 465 992 l 465 890 l 346 844 l 346 146 l 465 101 l 465 0 m 329 -151 q 345 -193 329 -179 q 388 -207 361 -207 q 428 -203 410 -207 q 460 -196 447 -199 l 460 -301 q 416 -312 439 -307 q 361 -317 393 -317 q 244 -278 286 -317 q 201 -175 201 -240 q 219 -103 201 -139 q 269 -34 238 -67 q 340 26 300 -1 l 422 0 q 352 -78 375 -44 q 329 -151 329 -112 z "},"į":{"ha":393,"x_min":50,"x_max":308,"o":"m 285 753 l 285 0 l 108 0 l 108 753 l 285 753 m 199 1044 q 267 1024 238 1044 q 296 951 296 1003 q 267 880 296 901 q 199 858 238 858 q 128 880 157 858 q 100 951 100 901 q 128 1024 100 1003 q 199 1044 157 1044 m 178 -151 q 194 -193 178 -179 q 236 -207 210 -207 q 277 -203 258 -207 q 308 -196 296 -199 l 308 -301 q 265 -312 288 -307 q 210 -317 242 -317 q 92 -278 135 -317 q 50 -175 50 -240 q 68 -103 50 -139 q 117 -34 86 -67 q 189 26 149 -1 l 271 0 q 201 -78 224 -44 q 178 -151 178 -112 z "},"İ":{"ha":514,"x_min":49,"x_max":465,"o":"m 465 0 l 49 0 l 49 101 l 168 146 l 168 844 l 49 890 l 49 992 l 465 992 l 465 890 l 346 844 l 346 146 l 465 101 l 465 0 m 260 1283 q 328 1263 299 1283 q 357 1190 357 1242 q 328 1119 357 1140 q 260 1097 299 1097 q 190 1119 218 1097 q 161 1190 161 1140 q 190 1263 161 1242 q 260 1283 218 1283 z "},"Ĳ":{"ha":944,"x_min":49,"x_max":828,"o":"m 465 0 l 49 0 l 49 101 l 168 146 l 168 844 l 49 890 l 49 992 l 465 992 l 465 890 l 346 844 l 346 146 l 465 101 l 465 0 m 535 -281 q 468 -276 496 -281 q 418 -265 440 -271 l 418 -117 q 465 -126 440 -122 q 518 -131 490 -131 q 583 -117 553 -131 q 632 -65 614 -103 q 650 42 650 -28 l 650 992 l 828 992 l 828 46 q 791 -142 828 -71 q 688 -247 754 -214 q 535 -281 622 -281 z "},"ĳ":{"ha":799,"x_min":100,"x_max":694,"o":"m 285 753 l 285 0 l 108 0 l 108 753 l 285 753 m 199 1044 q 267 1024 238 1044 q 296 951 296 1003 q 267 880 296 901 q 199 858 238 858 q 128 880 157 858 q 100 951 100 901 q 128 1024 100 1003 q 199 1044 157 1044 m 444 -333 q 379 -328 411 -333 q 325 -317 347 -324 l 325 -176 q 367 -186 346 -182 q 413 -190 388 -190 q 479 -167 451 -190 q 507 -74 507 -143 l 507 753 l 683 753 l 683 -93 q 659 -217 683 -162 q 583 -302 635 -271 q 444 -333 531 -333 m 499 951 q 527 1024 499 1003 q 596 1044 556 1044 q 665 1024 635 1044 q 694 951 694 1003 q 665 880 694 901 q 596 858 635 858 q 527 880 556 858 q 499 951 499 901 z "},"Ĵ":{"ha":429,"x_min":-106,"x_max":475,"o":"m 11 -281 q -56 -276 -28 -281 q -106 -265 -83 -271 l -106 -117 q -58 -126 -83 -122 q -6 -131 -33 -131 q 60 -117 29 -131 q 108 -65 90 -103 q 126 42 126 -28 l 126 992 l 304 992 l 304 46 q 267 -142 304 -71 q 165 -247 231 -214 q 11 -281 99 -281 m 301 1303 q 351 1234 319 1272 q 416 1159 382 1196 q 475 1097 450 1122 l 475 1081 l 356 1081 q 283 1132 319 1103 q 211 1197 247 1161 q 139 1133 174 1161 q 68 1081 104 1104 l -50 1081 l -50 1097 q 9 1160 -24 1124 q 72 1234 42 1196 q 122 1303 103 1272 l 301 1303 z "},"ĵ":{"ha":393,"x_min":-74,"x_max":460,"o":"m 46 -333 q -19 -328 13 -333 q -74 -317 -51 -324 l -74 -176 q -32 -186 -53 -182 q 14 -190 -11 -190 q 81 -167 53 -190 q 108 -74 108 -143 l 108 753 l 285 753 l 285 -93 q 260 -217 285 -162 q 184 -302 236 -271 q 46 -333 132 -333 m 286 1064 q 335 995 304 1033 q 401 920 367 957 q 460 858 435 883 l 460 842 l 340 842 q 268 893 304 864 q 196 958 232 922 q 124 894 158 922 q 53 842 89 865 l -65 842 l -65 858 q -6 921 -39 885 q 57 995 26 957 q 107 1064 88 1033 l 286 1064 z "},"Ķ":{"ha":896,"x_min":129,"x_max":899,"o":"m 899 0 l 694 0 l 400 439 l 307 365 l 307 0 l 129 0 l 129 992 l 307 992 l 307 525 q 364 596 335 560 q 422 668 393 632 l 690 992 l 892 992 l 528 556 l 899 0 m 581 -99 q 555 -164 572 -128 q 516 -237 538 -200 q 469 -307 494 -274 l 368 -307 l 368 -289 q 388 -226 378 -264 q 406 -151 397 -189 q 415 -85 414 -112 l 581 -85 l 581 -99 z "},"ķ":{"ha":817,"x_min":113,"x_max":811,"o":"m 286 554 q 283 478 286 518 q 278 401 281 439 l 282 401 q 308 438 293 418 q 340 478 324 458 q 371 515 356 499 l 593 753 l 792 753 l 490 428 l 811 0 l 607 0 l 374 322 l 286 250 l 286 0 l 113 0 l 113 1056 l 286 1056 l 286 554 m 517 -99 q 491 -164 508 -128 q 452 -237 474 -200 q 406 -307 431 -274 l 304 -307 l 304 -289 q 324 -226 314 -264 q 342 -151 333 -189 q 351 -85 350 -112 l 517 -85 l 517 -99 z "},"ĸ":{"ha":817,"x_min":113,"x_max":811,"o":"m 792 753 l 500 413 l 811 0 l 610 0 l 385 307 l 290 240 l 290 0 l 113 0 l 113 753 l 290 753 l 290 557 q 288 464 289 510 q 283 382 286 418 l 286 382 q 326 432 306 407 q 367 481 346 457 l 599 753 l 792 753 z "},"Ĺ":{"ha":758,"x_min":113,"x_max":717,"o":"m 124 0 l 124 992 l 304 992 l 304 151 l 717 151 l 717 0 l 124 0 m 464 1289 q 418 1242 447 1269 q 355 1184 389 1214 q 288 1127 321 1154 q 229 1081 256 1100 l 113 1081 l 113 1099 q 163 1160 135 1125 q 217 1234 190 1196 q 263 1303 244 1272 l 464 1303 l 464 1289 z "},"ĺ":{"ha":393,"x_min":99,"x_max":450,"o":"m 285 0 l 108 0 l 108 1056 l 285 1056 l 285 0 m 450 1353 q 404 1306 433 1333 q 341 1248 375 1278 q 274 1191 307 1218 q 215 1144 242 1164 l 99 1144 l 99 1163 q 149 1224 121 1189 q 203 1298 176 1260 q 249 1367 231 1336 l 450 1367 l 450 1353 z "},"Ļ":{"ha":758,"x_min":124,"x_max":717,"o":"m 124 0 l 124 992 l 304 992 l 304 151 l 717 151 l 717 0 l 124 0 m 528 -99 q 502 -164 519 -128 q 463 -237 485 -200 q 417 -307 442 -274 l 315 -307 l 315 -289 q 335 -226 325 -264 q 353 -151 344 -189 q 363 -85 361 -112 l 528 -85 l 528 -99 z "},"ļ":{"ha":393,"x_min":90,"x_max":303,"o":"m 285 0 l 108 0 l 108 1056 l 285 1056 l 285 0 m 303 -99 q 277 -164 294 -128 q 238 -237 260 -200 q 192 -307 217 -274 l 90 -307 l 90 -289 q 110 -226 100 -264 q 128 -151 119 -189 q 138 -85 136 -112 l 303 -85 l 303 -99 z "},"Ľ":{"ha":758,"x_min":125,"x_max":740,"o":"m 740 978 q 713 915 731 950 q 676 842 696 879 q 633 769 656 804 l 532 769 l 532 788 q 545 833 539 807 q 557 888 551 860 q 567 942 563 915 q 575 992 572 969 l 740 992 l 740 978 m 125 0 l 125 992 l 304 992 l 304 151 l 717 151 l 717 0 l 125 0 z "},"ľ":{"ha":393,"x_min":108,"x_max":556,"o":"m 556 1042 q 528 978 544 1014 q 491 906 511 943 q 447 833 471 868 l 347 833 l 347 851 q 360 897 353 871 q 372 951 367 924 q 383 1006 378 979 q 390 1056 388 1033 l 556 1056 l 556 1042 m 285 0 l 108 0 l 108 1056 l 285 1056 l 285 0 z "},"Ŀ":{"ha":758,"x_min":124,"x_max":717,"o":"m 124 0 l 124 992 l 304 992 l 304 151 l 717 151 l 717 0 l 124 0 m 567 610 q 635 589 606 610 q 664 517 664 568 q 635 445 664 467 q 567 424 606 424 q 497 445 525 424 q 468 517 468 467 q 497 589 468 568 q 567 610 525 610 z "},"ŀ":{"ha":460,"x_min":108,"x_max":524,"o":"m 285 0 l 108 0 l 108 1056 l 285 1056 l 285 0 m 426 619 q 494 599 465 619 q 524 526 524 578 q 494 455 524 476 q 426 433 465 433 q 356 455 385 433 q 328 526 328 476 q 356 599 328 578 q 426 619 385 619 z "},"Ł":{"ha":764,"x_min":8,"x_max":721,"o":"m 129 0 l 129 338 l 74 306 l 8 419 l 129 493 l 129 992 l 307 992 l 307 600 l 439 679 l 507 564 l 307 444 l 307 150 l 721 150 l 721 0 l 129 0 z "},"ł":{"ha":399,"x_min":-15,"x_max":415,"o":"m 108 0 l 108 351 l 51 315 l -15 431 l 108 507 l 108 1056 l 283 1056 l 283 615 l 346 657 l 415 543 l 283 460 l 283 0 l 108 0 z "},"Ń":{"ha":1094,"x_min":129,"x_max":972,"o":"m 972 0 l 751 0 l 282 778 l 276 778 q 281 690 279 736 q 285 597 283 644 q 289 500 288 549 l 289 0 l 129 0 l 129 992 l 349 992 l 817 219 l 821 219 q 818 301 819 256 q 815 395 817 347 q 811 488 813 443 l 811 992 l 972 992 l 972 0 m 801 1289 q 756 1242 785 1269 q 692 1184 726 1214 q 626 1127 658 1154 q 567 1081 593 1100 l 450 1081 l 450 1099 q 500 1160 472 1125 q 555 1234 528 1196 q 600 1303 582 1272 l 801 1303 l 801 1289 z "},"ń":{"ha":886,"x_min":108,"x_max":782,"o":"m 513 767 q 711 701 640 767 q 782 490 782 636 l 782 0 l 607 0 l 607 454 q 573 583 607 540 q 468 625 539 625 q 324 558 363 625 q 285 367 285 492 l 285 0 l 108 0 l 108 753 l 244 753 l 269 651 l 278 651 q 339 716 303 690 q 419 754 375 742 q 513 767 463 767 m 696 1050 q 650 1003 679 1031 q 587 945 621 975 q 520 888 553 915 q 461 842 488 861 l 344 842 l 344 860 q 394 922 367 886 q 449 995 422 957 q 494 1064 476 1033 l 696 1064 l 696 1050 z "},"Ņ":{"ha":1094,"x_min":129,"x_max":972,"o":"m 972 0 l 751 0 l 282 778 l 276 778 q 281 690 279 736 q 285 597 283 644 q 289 500 288 549 l 289 0 l 129 0 l 129 992 l 349 992 l 817 219 l 821 219 q 818 301 819 256 q 815 395 817 347 q 811 488 813 443 l 811 992 l 972 992 l 972 0 m 654 -99 q 628 -164 646 -128 q 590 -237 611 -200 q 543 -307 568 -274 l 442 -307 l 442 -289 q 461 -226 451 -264 q 479 -151 471 -189 q 489 -85 488 -112 l 654 -85 l 654 -99 z "},"ņ":{"ha":886,"x_min":108,"x_max":782,"o":"m 513 767 q 711 701 640 767 q 782 490 782 636 l 782 0 l 607 0 l 607 454 q 573 583 607 540 q 468 625 539 625 q 324 558 363 625 q 285 367 285 492 l 285 0 l 108 0 l 108 753 l 244 753 l 269 651 l 278 651 q 339 716 303 690 q 419 754 375 742 q 513 767 463 767 m 549 -99 q 523 -164 540 -128 q 484 -237 506 -200 q 438 -307 463 -274 l 336 -307 l 336 -289 q 356 -226 346 -264 q 374 -151 365 -189 q 383 -85 382 -112 l 549 -85 l 549 -99 z "},"Ň":{"ha":1094,"x_min":129,"x_max":972,"o":"m 972 0 l 751 0 l 282 778 l 276 778 q 281 690 279 736 q 285 597 283 644 q 289 500 288 549 l 289 0 l 129 0 l 129 992 l 349 992 l 817 219 l 821 219 q 818 301 819 256 q 815 395 817 347 q 811 488 813 443 l 811 992 l 972 992 l 972 0 m 457 1081 q 408 1150 439 1113 q 344 1224 376 1188 q 285 1285 311 1260 l 285 1303 l 401 1303 q 478 1249 438 1281 q 554 1181 519 1218 q 633 1249 592 1218 q 711 1303 675 1281 l 829 1303 l 829 1285 q 769 1224 803 1260 q 705 1150 736 1188 q 656 1081 674 1113 l 457 1081 z "},"ň":{"ha":886,"x_min":108,"x_max":782,"o":"m 513 767 q 711 701 640 767 q 782 490 782 636 l 782 0 l 607 0 l 607 454 q 573 583 607 540 q 468 625 539 625 q 324 558 363 625 q 285 367 285 492 l 285 0 l 108 0 l 108 753 l 244 753 l 269 651 l 278 651 q 339 716 303 690 q 419 754 375 742 q 513 767 463 767 m 353 842 q 303 911 335 874 q 240 985 272 949 q 181 1046 207 1021 l 181 1064 l 297 1064 q 374 1010 333 1042 q 450 942 415 979 q 529 1010 488 979 q 607 1064 571 1042 l 725 1064 l 725 1046 q 665 985 699 1021 q 601 911 632 949 q 551 842 569 874 l 353 842 z "},"ŉ":{"ha":1031,"x_min":-3,"x_max":926,"o":"m 657 767 q 856 701 785 767 q 926 490 926 636 l 926 0 l 751 0 l 751 454 q 717 583 751 540 q 613 625 683 625 q 468 558 507 625 q 429 367 429 492 l 429 0 l 253 0 l 253 753 l 389 753 l 414 651 l 422 651 q 483 716 447 690 q 563 754 519 742 q 657 767 607 767 m 243 976 q 211 872 231 928 q 169 759 192 815 q 124 651 147 703 l -3 651 q 17 736 7 692 q 36 826 28 781 q 52 913 44 871 q 65 992 60 956 l 233 992 l 243 976 z "},"Ŋ":{"ha":1101,"x_min":129,"x_max":972,"o":"m 678 -281 q 607 -276 638 -281 q 556 -265 576 -271 l 556 -124 q 606 -133 579 -129 q 665 -137 633 -137 q 744 -124 711 -137 q 795 -81 776 -111 q 814 1 814 -50 l 282 778 l 276 778 q 282 692 279 743 q 287 589 285 642 q 289 493 289 536 l 289 0 l 129 0 l 129 992 l 349 992 l 817 311 l 821 311 q 817 396 819 347 q 813 495 814 444 q 811 586 811 546 l 811 992 l 972 992 l 972 3 q 936 -158 972 -94 q 833 -251 900 -221 q 678 -281 767 -281 z "},"ŋ":{"ha":886,"x_min":108,"x_max":783,"o":"m 553 -333 q 490 -328 521 -333 q 438 -317 460 -324 l 438 -176 q 477 -186 458 -182 q 519 -190 496 -190 q 581 -167 556 -190 q 606 -74 606 -143 l 606 465 q 572 585 606 546 q 468 625 538 625 q 358 595 399 625 q 301 508 318 565 q 285 368 285 451 l 285 0 l 108 0 l 108 753 l 246 753 l 269 654 l 281 654 q 342 718 306 693 q 422 755 378 743 q 513 767 465 767 q 658 738 597 767 q 751 649 718 710 q 783 492 783 589 l 783 -93 q 760 -217 783 -162 q 685 -302 736 -271 q 553 -333 635 -333 z "},"Ō":{"ha":1093,"x_min":79,"x_max":1014,"o":"m 1014 497 q 985 288 1014 382 q 898 126 956 194 q 753 22 840 58 q 547 -14 665 -14 q 339 23 426 -14 q 194 127 251 60 q 108 289 136 194 q 79 499 79 383 q 130 766 79 651 q 285 944 181 881 q 549 1007 389 1007 q 808 944 704 1007 q 963 766 911 881 q 1014 497 1014 651 m 268 497 q 297 306 268 386 q 389 182 326 225 q 547 139 451 139 q 706 182 644 139 q 795 306 767 225 q 824 497 824 386 q 759 760 824 665 q 549 856 694 856 q 389 813 451 856 q 297 689 326 769 q 268 497 268 608 m 768 1203 l 768 1081 l 325 1081 l 325 1203 l 768 1203 z "},"ō":{"ha":857,"x_min":69,"x_max":788,"o":"m 788 378 q 763 212 788 285 q 691 88 738 139 q 577 12 644 38 q 426 -14 510 -14 q 283 12 349 -14 q 171 88 218 38 q 97 212 124 139 q 69 378 69 285 q 113 590 69 504 q 238 722 157 676 q 431 767 318 767 q 616 722 536 767 q 742 590 696 676 q 788 378 788 504 m 250 378 q 269 242 250 300 q 327 154 288 185 q 429 124 367 124 q 531 154 492 124 q 589 242 571 185 q 607 378 607 300 q 588 514 607 458 q 531 599 569 569 q 428 629 492 629 q 292 563 335 629 q 250 378 250 497 m 650 964 l 650 842 l 207 842 l 207 964 l 650 964 z "},"Ŏ":{"ha":1093,"x_min":79,"x_max":1014,"o":"m 1014 497 q 985 288 1014 382 q 898 126 956 194 q 753 22 840 58 q 547 -14 665 -14 q 339 23 426 -14 q 194 127 251 60 q 108 289 136 194 q 79 499 79 383 q 130 766 79 651 q 285 944 181 881 q 549 1007 389 1007 q 808 944 704 1007 q 963 766 911 881 q 1014 497 1014 651 m 268 497 q 297 306 268 386 q 389 182 326 225 q 547 139 451 139 q 706 182 644 139 q 795 306 767 225 q 824 497 824 386 q 759 760 824 665 q 549 856 694 856 q 389 813 451 856 q 297 689 326 769 q 268 497 268 608 m 803 1293 q 767 1183 799 1231 q 681 1108 735 1135 q 553 1081 626 1081 q 377 1139 440 1081 q 308 1293 314 1197 l 408 1293 q 432 1237 413 1256 q 483 1213 451 1218 q 554 1208 515 1208 q 621 1215 589 1208 q 675 1239 653 1221 q 701 1293 697 1257 l 803 1293 z "},"ŏ":{"ha":857,"x_min":69,"x_max":788,"o":"m 788 378 q 763 212 788 285 q 691 88 738 139 q 577 12 644 38 q 426 -14 510 -14 q 283 12 349 -14 q 171 88 218 38 q 97 212 124 139 q 69 378 69 285 q 113 590 69 504 q 238 722 157 676 q 431 767 318 767 q 616 722 536 767 q 742 590 696 676 q 788 378 788 504 m 250 378 q 269 242 250 300 q 327 154 288 185 q 429 124 367 124 q 531 154 492 124 q 589 242 571 185 q 607 378 607 300 q 588 514 607 458 q 531 599 569 569 q 428 629 492 629 q 292 563 335 629 q 250 378 250 497 m 685 1054 q 649 944 681 992 q 563 869 617 896 q 435 842 508 842 q 259 900 322 842 q 190 1054 196 958 l 290 1054 q 314 998 294 1017 q 365 974 333 979 q 436 969 397 969 q 503 976 471 969 q 557 1000 535 982 q 583 1054 579 1018 l 685 1054 z "},"Ő":{"ha":1093,"x_min":79,"x_max":1014,"o":"m 1014 497 q 985 288 1014 382 q 898 126 956 194 q 753 22 840 58 q 547 -14 665 -14 q 339 23 426 -14 q 194 127 251 60 q 108 289 136 194 q 79 499 79 383 q 130 766 79 651 q 285 944 181 881 q 549 1007 389 1007 q 808 944 704 1007 q 963 766 911 881 q 1014 497 1014 651 m 268 497 q 297 306 268 386 q 389 182 326 225 q 547 139 451 139 q 706 182 644 139 q 795 306 767 225 q 824 497 824 386 q 759 760 824 665 q 549 856 694 856 q 389 813 451 856 q 297 689 326 769 q 268 497 268 608 m 824 1289 q 788 1243 813 1271 q 732 1185 764 1215 q 669 1127 700 1154 q 613 1081 638 1100 l 518 1081 l 518 1099 q 562 1161 538 1125 q 609 1235 586 1197 q 646 1303 632 1272 l 824 1303 l 824 1289 m 564 1289 q 528 1243 553 1271 q 472 1185 504 1215 q 409 1127 440 1154 q 353 1081 378 1100 l 258 1081 l 258 1099 q 301 1161 278 1125 q 347 1235 325 1197 q 386 1303 369 1272 l 564 1303 l 564 1289 z "},"ő":{"ha":857,"x_min":69,"x_max":788,"o":"m 788 378 q 763 212 788 285 q 691 88 738 139 q 577 12 644 38 q 426 -14 510 -14 q 283 12 349 -14 q 171 88 218 38 q 97 212 124 139 q 69 378 69 285 q 113 590 69 504 q 238 722 157 676 q 431 767 318 767 q 616 722 536 767 q 742 590 696 676 q 788 378 788 504 m 250 378 q 269 242 250 300 q 327 154 288 185 q 429 124 367 124 q 531 154 492 124 q 589 242 571 185 q 607 378 607 300 q 588 514 607 458 q 531 599 569 569 q 428 629 492 629 q 292 563 335 629 q 250 378 250 497 m 706 1050 q 670 1004 694 1032 q 614 946 646 976 q 551 888 582 915 q 494 842 519 861 l 400 842 l 400 860 q 444 922 419 886 q 491 996 468 958 q 528 1064 514 1033 l 706 1064 l 706 1050 m 446 1050 q 410 1004 435 1032 q 354 946 386 976 q 291 888 322 915 q 235 842 260 861 l 140 842 l 140 860 q 183 922 160 886 q 229 996 207 958 q 268 1064 251 1033 l 446 1064 l 446 1050 z "},"Œ":{"ha":1328,"x_min":82,"x_max":1246,"o":"m 531 1007 q 606 1003 567 1007 q 676 992 646 999 l 1246 992 l 1246 843 l 857 843 l 857 590 l 1219 590 l 1219 442 l 857 442 l 857 150 l 1246 150 l 1246 0 l 678 0 q 608 -10 647 -6 q 532 -14 568 -14 q 279 50 379 -14 q 131 229 179 114 q 82 499 82 344 q 131 767 82 653 q 278 944 179 881 q 531 1007 378 1007 m 535 857 q 415 833 465 857 q 331 761 364 808 q 283 648 299 714 q 267 497 267 582 q 295 304 267 385 q 383 181 324 224 q 533 138 442 138 q 613 144 572 138 q 681 163 653 150 l 681 831 q 613 850 653 843 q 535 857 574 857 z "},"œ":{"ha":1342,"x_min":67,"x_max":1278,"o":"m 946 767 q 1123 726 1049 767 q 1238 609 1197 685 q 1278 425 1278 533 l 1278 336 l 776 336 q 833 176 779 231 q 982 121 888 121 q 1117 135 1058 121 q 1238 178 1176 150 l 1238 38 q 1121 -1 1181 11 q 976 -14 1061 -14 q 815 17 888 -14 q 693 110 742 47 q 578 17 647 49 q 424 -14 508 -14 q 240 32 319 -14 q 113 165 160 78 q 67 378 67 253 q 109 589 67 503 q 232 721 151 675 q 424 767 313 767 q 573 735 504 767 q 686 643 642 704 q 757 712 718 685 q 844 753 796 739 q 946 767 892 767 m 422 625 q 288 563 329 625 q 247 378 247 501 q 265 240 247 296 q 322 156 283 185 q 424 128 361 128 q 524 156 486 128 q 581 240 563 185 q 599 376 599 294 q 581 515 599 460 q 524 597 563 569 q 422 625 485 625 m 947 638 q 832 592 876 638 q 781 458 788 547 l 1107 458 q 1090 551 1107 511 q 1038 615 1072 592 q 947 638 1003 638 z "},"Ŕ":{"ha":893,"x_min":124,"x_max":886,"o":"m 417 992 q 629 960 546 992 q 753 865 713 928 q 794 706 794 801 q 769 582 794 633 q 701 497 743 531 q 608 440 658 463 l 886 0 l 681 0 l 451 392 l 304 392 l 304 0 l 124 0 l 124 992 l 417 992 m 411 847 l 304 847 l 304 533 l 415 533 q 562 574 513 533 q 611 697 611 614 q 590 783 611 750 q 525 831 569 815 q 411 847 481 847 m 700 1289 q 654 1242 683 1269 q 591 1184 625 1214 q 524 1127 557 1154 q 465 1081 492 1100 l 349 1081 l 349 1099 q 399 1160 371 1125 q 453 1234 426 1196 q 499 1303 481 1272 l 700 1303 l 700 1289 z "},"ŕ":{"ha":603,"x_min":108,"x_max":593,"o":"m 500 767 q 545 765 521 767 q 585 758 569 763 l 567 594 q 528 600 550 597 q 482 603 507 603 q 411 590 446 603 q 347 551 376 578 q 301 485 318 525 q 285 390 285 446 l 285 0 l 108 0 l 108 753 l 244 753 l 269 622 l 278 622 q 333 696 300 663 q 409 748 367 729 q 500 767 451 767 m 593 1050 q 547 1003 576 1031 q 484 945 518 975 q 417 888 450 915 q 358 842 385 861 l 242 842 l 242 860 q 292 922 264 886 q 347 995 319 957 q 392 1064 374 1033 l 593 1064 l 593 1050 z "},"Ŗ":{"ha":893,"x_min":124,"x_max":886,"o":"m 417 992 q 629 960 546 992 q 753 865 713 928 q 794 706 794 801 q 769 582 794 633 q 701 497 743 531 q 608 440 658 463 l 886 0 l 681 0 l 451 392 l 304 392 l 304 0 l 124 0 l 124 992 l 417 992 m 411 847 l 304 847 l 304 533 l 415 533 q 562 574 513 533 q 611 697 611 614 q 590 783 611 750 q 525 831 569 815 q 411 847 481 847 m 575 -99 q 549 -164 567 -128 q 510 -237 532 -200 q 464 -307 489 -274 l 363 -307 l 363 -289 q 382 -226 372 -264 q 400 -151 392 -189 q 410 -85 408 -112 l 575 -85 l 575 -99 z "},"ŗ":{"ha":603,"x_min":89,"x_max":585,"o":"m 500 767 q 545 765 521 767 q 585 758 569 763 l 567 594 q 528 600 550 597 q 482 603 507 603 q 411 590 446 603 q 347 551 376 578 q 301 485 318 525 q 285 390 285 446 l 285 0 l 108 0 l 108 753 l 244 753 l 269 622 l 278 622 q 333 696 300 663 q 409 748 367 729 q 500 767 451 767 m 301 -99 q 276 -164 293 -128 q 237 -237 258 -200 q 190 -307 215 -274 l 89 -307 l 89 -289 q 108 -226 99 -264 q 126 -151 118 -189 q 136 -85 135 -112 l 301 -85 l 301 -99 z "},"Ř":{"ha":893,"x_min":124,"x_max":886,"o":"m 417 992 q 629 960 546 992 q 753 865 713 928 q 794 706 794 801 q 769 582 794 633 q 701 497 743 531 q 608 440 658 463 l 886 0 l 681 0 l 451 392 l 304 392 l 304 0 l 124 0 l 124 992 l 417 992 m 411 847 l 304 847 l 304 533 l 415 533 q 562 574 513 533 q 611 697 611 614 q 590 783 611 750 q 525 831 569 815 q 411 847 481 847 m 357 1081 q 308 1150 339 1113 q 244 1224 276 1188 q 185 1285 211 1260 l 185 1303 l 301 1303 q 378 1249 338 1281 q 454 1181 419 1218 q 533 1249 492 1218 q 611 1303 575 1281 l 729 1303 l 729 1285 q 669 1224 703 1260 q 605 1150 636 1188 q 556 1081 574 1113 l 357 1081 z "},"ř":{"ha":603,"x_min":76,"x_max":621,"o":"m 500 767 q 545 765 521 767 q 585 758 569 763 l 567 594 q 528 600 550 597 q 482 603 507 603 q 411 590 446 603 q 347 551 376 578 q 301 485 318 525 q 285 390 285 446 l 285 0 l 108 0 l 108 753 l 244 753 l 269 622 l 278 622 q 333 696 300 663 q 409 748 367 729 q 500 767 451 767 m 249 842 q 199 911 231 874 q 135 985 168 949 q 76 1046 103 1021 l 76 1064 l 193 1064 q 270 1010 229 1042 q 346 942 311 979 q 425 1010 383 979 q 503 1064 467 1042 l 621 1064 l 621 1046 q 561 985 594 1021 q 497 911 528 949 q 447 842 465 874 l 249 842 z "},"Ś":{"ha":764,"x_min":67,"x_max":706,"o":"m 706 271 q 663 119 706 183 q 538 21 619 56 q 344 -14 457 -14 q 241 -8 290 -14 q 148 11 192 -1 q 67 42 104 24 l 67 208 q 204 158 129 181 q 357 135 279 135 q 455 151 417 135 q 511 195 493 167 q 529 261 529 224 q 506 332 529 303 q 436 386 482 361 q 322 439 390 411 q 233 483 276 458 q 154 542 189 507 q 99 624 119 576 q 78 735 78 671 q 119 881 78 819 q 234 974 160 942 q 407 1006 308 1006 q 556 989 486 1006 q 693 942 625 972 l 636 799 q 518 840 575 825 q 401 856 461 856 q 321 841 354 856 q 271 800 288 826 q 254 739 254 774 q 275 671 254 699 q 340 619 296 643 q 453 564 383 594 q 589 492 533 529 q 675 401 644 454 q 706 271 706 349 m 626 1289 q 581 1242 610 1269 q 517 1184 551 1214 q 451 1127 483 1154 q 392 1081 418 1100 l 275 1081 l 275 1099 q 325 1160 297 1125 q 380 1234 353 1196 q 425 1303 407 1272 l 626 1303 l 626 1289 z "},"ś":{"ha":685,"x_min":67,"x_max":625,"o":"m 625 217 q 590 93 625 144 q 488 14 556 42 q 318 -14 419 -14 q 179 -3 239 -14 q 68 32 119 8 l 68 182 q 191 138 124 156 q 315 121 258 121 q 424 143 390 121 q 457 203 457 165 q 442 245 457 226 q 390 283 428 264 q 282 331 351 303 q 165 387 213 358 q 92 456 117 415 q 67 558 67 497 q 147 713 67 660 q 360 767 228 767 q 492 753 431 767 q 614 711 554 739 l 561 586 q 456 623 510 608 q 356 638 401 638 q 266 619 297 638 q 235 569 235 601 q 250 527 235 544 q 304 492 265 510 q 413 447 343 474 q 528 392 481 421 q 601 322 576 363 q 625 217 625 281 m 593 1050 q 547 1003 576 1031 q 484 945 518 975 q 417 888 450 915 q 358 842 385 861 l 242 842 l 242 860 q 292 922 264 886 q 347 995 319 957 q 392 1064 374 1033 l 593 1064 l 593 1050 z "},"Ŝ":{"ha":764,"x_min":67,"x_max":706,"o":"m 706 271 q 663 119 706 183 q 538 21 619 56 q 344 -14 457 -14 q 241 -8 290 -14 q 148 11 192 -1 q 67 42 104 24 l 67 208 q 204 158 129 181 q 357 135 279 135 q 455 151 417 135 q 511 195 493 167 q 529 261 529 224 q 506 332 529 303 q 436 386 482 361 q 322 439 390 411 q 233 483 276 458 q 154 542 189 507 q 99 624 119 576 q 78 735 78 671 q 119 881 78 819 q 234 974 160 942 q 407 1006 308 1006 q 556 989 486 1006 q 693 942 625 972 l 636 799 q 518 840 575 825 q 401 856 461 856 q 321 841 354 856 q 271 800 288 826 q 254 739 254 774 q 275 671 254 699 q 340 619 296 643 q 453 564 383 594 q 589 492 533 529 q 675 401 644 454 q 706 271 706 349 m 481 1303 q 530 1234 499 1272 q 595 1159 561 1196 q 654 1097 629 1122 l 654 1081 l 535 1081 q 463 1132 499 1103 q 390 1197 426 1161 q 318 1133 353 1161 q 247 1081 283 1104 l 129 1081 l 129 1097 q 188 1160 156 1124 q 251 1234 221 1196 q 301 1303 282 1272 l 481 1303 z "},"ŝ":{"ha":685,"x_min":67,"x_max":625,"o":"m 625 217 q 590 93 625 144 q 488 14 556 42 q 318 -14 419 -14 q 179 -3 239 -14 q 68 32 119 8 l 68 182 q 191 138 124 156 q 315 121 258 121 q 424 143 390 121 q 457 203 457 165 q 442 245 457 226 q 390 283 428 264 q 282 331 351 303 q 165 387 213 358 q 92 456 117 415 q 67 558 67 497 q 147 713 67 660 q 360 767 228 767 q 492 753 431 767 q 614 711 554 739 l 561 586 q 456 623 510 608 q 356 638 401 638 q 266 619 297 638 q 235 569 235 601 q 250 527 235 544 q 304 492 265 510 q 413 447 343 474 q 528 392 481 421 q 601 322 576 363 q 625 217 625 281 m 428 1064 q 477 995 446 1033 q 542 920 508 957 q 601 858 576 883 l 601 842 l 482 842 q 410 893 446 864 q 338 958 374 922 q 265 894 300 922 q 194 842 231 865 l 76 842 l 76 858 q 135 921 103 885 q 199 995 168 957 q 249 1064 229 1033 l 428 1064 z "},"Ş":{"ha":764,"x_min":67,"x_max":706,"o":"m 706 271 q 663 119 706 183 q 538 21 619 56 q 344 -14 457 -14 q 241 -8 290 -14 q 148 11 192 -1 q 67 42 104 24 l 67 208 q 204 158 129 181 q 357 135 279 135 q 455 151 417 135 q 511 195 493 167 q 529 261 529 224 q 506 332 529 303 q 436 386 482 361 q 322 439 390 411 q 233 483 276 458 q 154 542 189 507 q 99 624 119 576 q 78 735 78 671 q 119 881 78 819 q 234 974 160 942 q 407 1006 308 1006 q 556 989 486 1006 q 693 942 625 972 l 636 799 q 518 840 575 825 q 401 856 461 856 q 321 841 354 856 q 271 800 288 826 q 254 739 254 774 q 275 671 254 699 q 340 619 296 643 q 453 564 383 594 q 589 492 533 529 q 675 401 644 454 q 706 271 706 349 m 517 -185 q 465 -294 517 -254 q 318 -333 414 -333 q 261 -329 288 -333 q 218 -319 235 -325 l 218 -224 q 256 -231 235 -228 q 299 -233 278 -233 q 361 -221 339 -233 q 383 -181 383 -208 q 351 -133 383 -149 q 267 -110 319 -118 l 319 0 l 419 0 l 393 -61 q 452 -82 424 -68 q 499 -121 481 -96 q 517 -185 517 -146 z "},"ş":{"ha":685,"x_min":67,"x_max":625,"o":"m 625 217 q 590 93 625 144 q 488 14 556 42 q 318 -14 419 -14 q 179 -3 239 -14 q 68 32 119 8 l 68 182 q 191 138 124 156 q 315 121 258 121 q 424 143 390 121 q 457 203 457 165 q 442 245 457 226 q 390 283 428 264 q 282 331 351 303 q 165 387 213 358 q 92 456 117 415 q 67 558 67 497 q 147 713 67 660 q 360 767 228 767 q 492 753 431 767 q 614 711 554 739 l 561 586 q 456 623 510 608 q 356 638 401 638 q 266 619 297 638 q 235 569 235 601 q 250 527 235 544 q 304 492 265 510 q 413 447 343 474 q 528 392 481 421 q 601 322 576 363 q 625 217 625 281 m 489 -185 q 438 -294 489 -254 q 290 -333 386 -333 q 233 -329 260 -333 q 190 -319 207 -325 l 190 -224 q 228 -231 207 -228 q 271 -233 250 -233 q 333 -221 311 -233 q 356 -181 356 -208 q 324 -133 356 -149 q 239 -110 292 -118 l 292 0 l 392 0 l 365 -61 q 424 -82 396 -68 q 471 -121 453 -96 q 489 -185 489 -146 z "},"Š":{"ha":764,"x_min":67,"x_max":706,"o":"m 706 271 q 663 119 706 183 q 538 21 619 56 q 344 -14 457 -14 q 241 -8 290 -14 q 148 11 192 -1 q 67 42 104 24 l 67 208 q 204 158 129 181 q 357 135 279 135 q 455 151 417 135 q 511 195 493 167 q 529 261 529 224 q 506 332 529 303 q 436 386 482 361 q 322 439 390 411 q 233 483 276 458 q 154 542 189 507 q 99 624 119 576 q 78 735 78 671 q 119 881 78 819 q 234 974 160 942 q 407 1006 308 1006 q 556 989 486 1006 q 693 942 625 972 l 636 799 q 518 840 575 825 q 401 856 461 856 q 321 841 354 856 q 271 800 288 826 q 254 739 254 774 q 275 671 254 699 q 340 619 296 643 q 453 564 383 594 q 589 492 533 529 q 675 401 644 454 q 706 271 706 349 m 300 1081 q 251 1150 282 1113 q 187 1224 219 1188 q 128 1285 154 1260 l 128 1303 l 244 1303 q 322 1249 281 1281 q 397 1181 363 1218 q 476 1249 435 1218 q 554 1303 518 1281 l 672 1303 l 672 1285 q 613 1224 646 1260 q 548 1150 579 1188 q 499 1081 517 1113 l 300 1081 z "},"š":{"ha":685,"x_min":67,"x_max":625,"o":"m 625 217 q 590 93 625 144 q 488 14 556 42 q 318 -14 419 -14 q 179 -3 239 -14 q 68 32 119 8 l 68 182 q 191 138 124 156 q 315 121 258 121 q 424 143 390 121 q 457 203 457 165 q 442 245 457 226 q 390 283 428 264 q 282 331 351 303 q 165 387 213 358 q 92 456 117 415 q 67 558 67 497 q 147 713 67 660 q 360 767 228 767 q 492 753 431 767 q 614 711 554 739 l 561 586 q 456 623 510 608 q 356 638 401 638 q 266 619 297 638 q 235 569 235 601 q 250 527 235 544 q 304 492 265 510 q 413 447 343 474 q 528 392 481 421 q 601 322 576 363 q 625 217 625 281 m 249 842 q 199 911 231 874 q 135 985 168 949 q 76 1046 103 1021 l 76 1064 l 193 1064 q 270 1010 229 1042 q 346 942 311 979 q 425 1010 383 979 q 503 1064 467 1042 l 621 1064 l 621 1046 q 561 985 594 1021 q 497 911 528 949 q 447 842 465 874 l 249 842 z "},"Ț":{"ha":790,"x_min":22,"x_max":768,"o":"m 485 0 l 306 0 l 306 840 l 22 840 l 22 992 l 768 992 l 768 840 l 485 840 l 485 0 m 501 -99 q 476 -164 493 -128 q 437 -237 458 -200 q 390 -307 415 -274 l 289 -307 l 289 -289 q 308 -226 299 -264 q 326 -151 318 -189 q 336 -85 335 -112 l 501 -85 l 501 -99 z "},"ț":{"ha":564,"x_min":28,"x_max":525,"o":"m 404 126 q 468 133 438 126 q 525 147 499 139 l 525 17 q 453 -5 497 4 q 360 -14 408 -14 q 244 8 296 -14 q 160 82 192 29 q 129 229 129 135 l 129 621 l 28 621 l 28 697 l 139 758 l 194 918 l 304 918 l 304 753 l 518 753 l 518 621 l 304 621 l 304 231 q 332 152 304 178 q 404 126 360 126 m 429 -99 q 403 -164 421 -128 q 365 -237 386 -200 q 318 -307 343 -274 l 217 -307 l 217 -289 q 236 -226 226 -264 q 254 -151 246 -189 q 264 -85 263 -112 l 429 -85 l 429 -99 z "},"Ť":{"ha":790,"x_min":22,"x_max":768,"o":"m 485 0 l 306 0 l 306 840 l 22 840 l 22 992 l 768 992 l 768 840 l 485 840 l 485 0 m 306 1081 q 256 1150 288 1113 q 192 1224 225 1188 q 133 1285 160 1260 l 133 1303 l 250 1303 q 327 1249 286 1281 q 403 1181 368 1218 q 482 1249 440 1218 q 560 1303 524 1281 l 678 1303 l 678 1285 q 618 1224 651 1260 q 553 1150 585 1188 q 504 1081 522 1113 l 306 1081 z "},"ť":{"ha":564,"x_min":28,"x_max":739,"o":"m 739 1042 q 712 978 729 1014 q 674 906 694 943 q 632 833 654 868 l 531 833 l 531 851 q 544 897 538 871 q 556 951 550 924 q 567 1006 563 979 q 575 1056 572 1033 l 739 1056 l 739 1042 m 404 126 q 468 133 438 126 q 525 147 499 139 l 525 17 q 453 -5 497 4 q 360 -14 408 -14 q 244 8 296 -14 q 160 82 192 29 q 129 229 129 135 l 129 621 l 28 621 l 28 697 l 139 758 l 194 918 l 304 918 l 304 753 l 518 753 l 518 621 l 304 621 l 304 231 q 332 152 304 178 q 404 126 360 126 z "},"Ŧ":{"ha":790,"x_min":22,"x_max":768,"o":"m 304 0 l 304 421 l 124 421 l 124 568 l 304 568 l 304 839 l 22 839 l 22 992 l 768 992 l 768 839 l 485 839 l 485 568 l 667 568 l 667 421 l 485 421 l 485 0 l 304 0 z "},"ŧ":{"ha":564,"x_min":28,"x_max":525,"o":"m 39 356 l 39 475 l 494 475 l 494 356 l 39 356 m 404 126 q 468 133 438 126 q 525 147 499 139 l 525 17 q 453 -5 497 4 q 360 -14 408 -14 q 244 8 296 -14 q 160 82 192 29 q 129 229 129 135 l 129 621 l 28 621 l 28 697 l 139 758 l 194 918 l 304 918 l 304 753 l 518 753 l 518 621 l 304 621 l 304 231 q 332 152 304 178 q 404 126 360 126 z "},"Ũ":{"ha":1038,"x_min":121,"x_max":915,"o":"m 915 350 q 872 165 915 247 q 739 34 828 82 q 514 -14 650 -14 q 221 87 321 -14 q 121 353 121 188 l 121 992 l 299 992 l 299 371 q 354 194 299 250 q 519 138 410 138 q 645 164 597 138 q 716 244 693 190 q 739 372 739 297 l 739 992 l 915 992 l 915 350 m 225 1079 q 244 1166 229 1129 q 281 1228 258 1203 q 333 1265 304 1253 q 397 1278 363 1278 q 454 1267 426 1278 q 508 1240 482 1256 q 558 1214 533 1225 q 607 1203 583 1203 q 651 1222 632 1203 q 678 1279 669 1242 l 768 1279 q 712 1131 760 1182 q 596 1081 664 1081 q 540 1092 567 1081 q 487 1118 514 1103 q 435 1144 460 1133 q 386 1156 411 1156 q 342 1137 361 1156 q 315 1079 324 1118 l 225 1079 z "},"ũ":{"ha":886,"x_min":103,"x_max":778,"o":"m 778 753 l 778 0 l 640 0 l 615 97 l 607 97 q 546 34 583 58 q 465 -2 508 10 q 372 -14 421 -14 q 228 15 289 -14 q 135 104 167 43 q 103 261 103 165 l 103 753 l 279 753 l 279 297 q 313 172 279 214 q 417 129 346 129 q 528 158 488 129 q 585 245 568 188 q 601 386 601 303 l 601 753 l 778 753 m 178 840 q 197 927 182 890 q 234 989 211 964 q 286 1026 257 1014 q 350 1039 315 1039 q 407 1028 379 1039 q 460 1001 435 1017 q 511 975 486 986 q 560 964 536 964 q 603 983 585 964 q 631 1040 622 1003 l 721 1040 q 665 892 713 943 q 549 842 617 842 q 493 853 519 842 q 440 879 467 864 q 388 906 413 894 q 339 917 364 917 q 295 898 314 917 q 268 840 276 879 l 178 840 z "},"Ū":{"ha":1038,"x_min":121,"x_max":915,"o":"m 915 350 q 872 165 915 247 q 739 34 828 82 q 514 -14 650 -14 q 221 87 321 -14 q 121 353 121 188 l 121 992 l 299 992 l 299 371 q 354 194 299 250 q 519 138 410 138 q 645 164 597 138 q 716 244 693 190 q 739 372 739 297 l 739 992 l 915 992 l 915 350 m 739 1203 l 739 1081 l 296 1081 l 296 1203 l 739 1203 z "},"ū":{"ha":886,"x_min":103,"x_max":778,"o":"m 778 753 l 778 0 l 640 0 l 615 97 l 607 97 q 546 34 583 58 q 465 -2 508 10 q 372 -14 421 -14 q 228 15 289 -14 q 135 104 167 43 q 103 261 103 165 l 103 753 l 279 753 l 279 297 q 313 172 279 214 q 417 129 346 129 q 528 158 488 129 q 585 245 568 188 q 601 386 601 303 l 601 753 l 778 753 m 664 964 l 664 842 l 221 842 l 221 964 l 664 964 z "},"Ŭ":{"ha":1038,"x_min":121,"x_max":915,"o":"m 915 350 q 872 165 915 247 q 739 34 828 82 q 514 -14 650 -14 q 221 87 321 -14 q 121 353 121 188 l 121 992 l 299 992 l 299 371 q 354 194 299 250 q 519 138 410 138 q 645 164 597 138 q 716 244 693 190 q 739 372 739 297 l 739 992 l 915 992 l 915 350 m 772 1293 q 736 1183 768 1231 q 650 1108 704 1135 q 522 1081 596 1081 q 347 1139 410 1081 q 278 1293 283 1197 l 378 1293 q 401 1237 382 1256 q 453 1213 421 1218 q 524 1208 485 1208 q 590 1215 558 1208 q 644 1239 622 1221 q 671 1293 667 1257 l 772 1293 z "},"ŭ":{"ha":886,"x_min":103,"x_max":778,"o":"m 778 753 l 778 0 l 640 0 l 615 97 l 607 97 q 546 34 583 58 q 465 -2 508 10 q 372 -14 421 -14 q 228 15 289 -14 q 135 104 167 43 q 103 261 103 165 l 103 753 l 279 753 l 279 297 q 313 172 279 214 q 417 129 346 129 q 528 158 488 129 q 585 245 568 188 q 601 386 601 303 l 601 753 l 778 753 m 699 1054 q 663 944 694 992 q 576 869 631 896 q 449 842 522 842 q 273 900 336 842 q 204 1054 210 958 l 304 1054 q 328 998 308 1017 q 379 974 347 979 q 450 969 411 969 q 517 976 485 969 q 571 1000 549 982 q 597 1054 593 1018 l 699 1054 z "},"Ů":{"ha":1038,"x_min":121,"x_max":915,"o":"m 915 350 q 872 165 915 247 q 739 34 828 82 q 514 -14 650 -14 q 221 87 321 -14 q 121 353 121 188 l 121 992 l 299 992 l 299 371 q 354 194 299 250 q 519 138 410 138 q 645 164 597 138 q 716 244 693 190 q 739 372 739 297 l 739 992 l 915 992 l 915 350 m 507 1079 q 389 1121 433 1079 q 344 1236 344 1163 q 389 1351 344 1310 q 507 1392 433 1392 q 624 1351 576 1392 q 672 1238 672 1310 q 625 1121 672 1163 q 507 1079 578 1079 m 507 1165 q 557 1185 538 1165 q 576 1236 576 1204 q 556 1287 576 1268 q 507 1306 536 1306 q 456 1287 476 1306 q 436 1236 436 1268 q 454 1185 436 1204 q 507 1165 472 1165 z "},"ů":{"ha":886,"x_min":103,"x_max":778,"o":"m 778 753 l 778 0 l 640 0 l 615 97 l 607 97 q 546 34 583 58 q 465 -2 508 10 q 372 -14 421 -14 q 228 15 289 -14 q 135 104 167 43 q 103 261 103 165 l 103 753 l 279 753 l 279 297 q 313 172 279 214 q 417 129 346 129 q 528 158 488 129 q 585 245 568 188 q 601 386 601 303 l 601 753 l 778 753 m 442 840 q 324 882 368 840 q 279 997 279 924 q 324 1112 279 1071 q 442 1153 368 1153 q 559 1112 511 1153 q 607 999 607 1071 q 560 882 607 924 q 442 840 513 840 m 442 926 q 492 946 472 926 q 511 997 511 965 q 491 1048 511 1029 q 442 1067 471 1067 q 391 1048 411 1067 q 371 997 371 1029 q 389 946 371 965 q 442 926 407 926 z "},"Ű":{"ha":1038,"x_min":121,"x_max":915,"o":"m 915 350 q 872 165 915 247 q 739 34 828 82 q 514 -14 650 -14 q 221 87 321 -14 q 121 353 121 188 l 121 992 l 299 992 l 299 371 q 354 194 299 250 q 519 138 410 138 q 645 164 597 138 q 716 244 693 190 q 739 372 739 297 l 739 992 l 915 992 l 915 350 m 793 1289 q 758 1243 782 1271 q 701 1185 733 1215 q 638 1127 669 1154 q 582 1081 607 1100 l 488 1081 l 488 1099 q 531 1161 507 1125 q 578 1235 556 1197 q 615 1303 601 1272 l 793 1303 l 793 1289 m 533 1289 q 498 1243 522 1271 q 442 1185 474 1215 q 378 1127 410 1154 q 322 1081 347 1100 l 228 1081 l 228 1099 q 271 1161 247 1125 q 317 1235 294 1197 q 356 1303 339 1272 l 533 1303 l 533 1289 z "},"ű":{"ha":886,"x_min":103,"x_max":778,"o":"m 778 753 l 778 0 l 640 0 l 615 97 l 607 97 q 546 34 583 58 q 465 -2 508 10 q 372 -14 421 -14 q 228 15 289 -14 q 135 104 167 43 q 103 261 103 165 l 103 753 l 279 753 l 279 297 q 313 172 279 214 q 417 129 346 129 q 528 158 488 129 q 585 245 568 188 q 601 386 601 303 l 601 753 l 778 753 m 718 1050 q 683 1004 707 1032 q 626 946 658 976 q 563 888 594 915 q 507 842 532 861 l 413 842 l 413 860 q 456 922 432 886 q 503 996 481 958 q 540 1064 526 1033 l 718 1064 l 718 1050 m 458 1050 q 423 1004 447 1032 q 367 946 399 976 q 303 888 335 915 q 247 842 272 861 l 153 842 l 153 860 q 196 922 172 886 q 242 996 219 958 q 281 1064 264 1033 l 458 1064 l 458 1050 z "},"Ų":{"ha":1038,"x_min":121,"x_max":915,"o":"m 664 -143 q 681 -197 664 -179 q 722 -215 697 -215 q 764 -211 746 -215 q 794 -204 782 -207 l 794 -308 q 751 -318 774 -314 q 696 -322 728 -322 q 578 -281 619 -322 q 538 -165 538 -240 q 558 -77 538 -119 q 613 1 579 -35 q 683 58 647 36 l 797 76 q 722 -8 751 31 q 678 -78 692 -46 q 664 -143 664 -111 m 915 350 q 872 165 915 247 q 739 34 828 82 q 514 -14 650 -14 q 221 87 321 -14 q 121 353 121 188 l 121 992 l 299 992 l 299 371 q 354 194 299 250 q 519 138 410 138 q 645 164 597 138 q 716 244 693 190 q 739 372 739 297 l 739 992 l 915 992 l 915 350 z "},"ų":{"ha":886,"x_min":103,"x_max":781,"o":"m 778 753 l 778 0 l 640 0 l 615 97 l 607 97 q 546 34 583 58 q 465 -2 508 10 q 372 -14 421 -14 q 228 15 289 -14 q 135 104 167 43 q 103 261 103 165 l 103 753 l 279 753 l 279 297 q 313 172 279 214 q 417 129 346 129 q 528 158 488 129 q 585 245 568 188 q 601 386 601 303 l 601 753 l 778 753 m 650 -151 q 666 -193 650 -179 q 708 -207 682 -207 q 749 -203 731 -207 q 781 -196 768 -199 l 781 -301 q 737 -312 760 -307 q 682 -317 714 -317 q 565 -278 607 -317 q 522 -175 522 -240 q 540 -103 522 -139 q 590 -34 558 -67 q 661 26 621 -1 l 743 0 q 673 -78 696 -44 q 650 -151 650 -112 z "},"Ŵ":{"ha":1324,"x_min":7,"x_max":1317,"o":"m 1317 992 l 1060 0 l 864 0 l 707 569 q 694 621 701 590 q 680 684 688 651 q 667 745 672 717 q 660 788 661 774 q 653 745 658 774 q 640 684 647 717 q 626 620 633 651 q 613 567 619 589 l 460 0 l 263 0 l 7 992 l 185 992 l 321 426 q 335 366 328 399 q 349 299 342 333 q 361 233 356 265 q 369 175 367 200 q 378 234 372 201 q 390 301 383 267 q 404 366 397 335 q 418 419 411 397 l 574 992 l 746 992 l 904 418 q 919 363 911 394 q 933 298 926 332 q 945 232 940 264 q 954 175 950 200 q 966 254 958 210 q 984 344 974 299 q 1003 426 994 390 l 1139 992 l 1317 992 m 747 1303 q 797 1234 765 1272 q 862 1159 828 1196 q 921 1097 896 1122 l 921 1081 l 801 1081 q 729 1132 765 1103 q 657 1197 693 1161 q 585 1133 619 1161 q 514 1081 550 1104 l 396 1081 l 396 1097 q 455 1160 422 1124 q 518 1234 488 1196 q 568 1303 549 1272 l 747 1303 z "},"ŵ":{"ha":1157,"x_min":14,"x_max":1138,"o":"m 646 324 q 629 390 639 350 q 609 472 619 429 q 590 551 599 515 q 578 607 581 588 l 572 607 q 560 551 568 588 q 542 472 551 515 q 522 389 532 429 q 504 322 511 349 l 417 0 l 225 0 l 14 754 l 190 754 l 283 394 q 302 313 293 358 q 318 224 311 267 q 328 156 325 182 l 333 156 q 340 203 336 174 q 351 266 344 233 q 363 326 357 299 q 374 369 369 354 l 482 754 l 674 754 l 778 369 q 793 304 785 344 q 808 224 801 264 q 817 157 815 183 l 822 157 q 832 222 825 181 q 849 310 839 263 q 869 394 858 357 l 964 754 l 1138 754 l 924 0 l 729 0 l 646 324 m 668 1064 q 717 995 686 1033 q 783 920 749 957 q 842 858 817 883 l 842 842 l 722 842 q 650 893 686 864 q 578 958 614 922 q 506 894 540 922 q 435 842 471 865 l 317 842 l 317 858 q 376 921 343 885 q 439 995 408 957 q 489 1064 469 1033 l 668 1064 z "},"Ŷ":{"ha":838,"x_min":0,"x_max":838,"o":"m 419 550 l 644 992 l 838 992 l 508 386 l 508 0 l 329 0 l 329 379 l 0 992 l 196 992 l 419 550 m 508 1303 q 558 1234 526 1272 q 623 1159 589 1196 q 682 1097 657 1122 l 682 1081 l 563 1081 q 490 1132 526 1103 q 418 1197 454 1161 q 346 1133 381 1161 q 275 1081 311 1104 l 157 1081 l 157 1097 q 216 1160 183 1124 q 279 1234 249 1196 q 329 1303 310 1272 l 508 1303 z "},"ŷ":{"ha":761,"x_min":0,"x_max":761,"o":"m 0 753 l 188 753 l 338 324 q 356 270 347 297 q 370 217 364 243 q 381 167 376 190 l 386 167 q 405 241 392 199 q 432 324 418 283 l 576 753 l 761 753 l 447 -82 q 377 -217 417 -161 q 281 -303 338 -274 q 140 -333 224 -333 q 80 -330 106 -333 q 36 -322 54 -326 l 36 -183 q 73 -189 51 -186 q 118 -192 94 -192 q 191 -174 161 -192 q 242 -128 221 -157 q 276 -61 263 -99 l 301 3 l 0 753 m 469 1064 q 519 995 488 1033 q 584 920 550 957 q 643 858 618 883 l 643 842 l 524 842 q 451 893 488 864 q 379 958 415 922 q 307 894 342 922 q 236 842 272 865 l 118 842 l 118 858 q 177 921 144 885 q 240 995 210 957 q 290 1064 271 1033 l 469 1064 z "},"Ÿ":{"ha":838,"x_min":0,"x_max":838,"o":"m 419 550 l 644 992 l 838 992 l 508 386 l 508 0 l 329 0 l 329 379 l 0 992 l 196 992 l 419 550 m 193 1189 q 217 1253 193 1233 q 276 1272 242 1272 q 337 1253 311 1272 q 363 1189 363 1233 q 337 1127 363 1147 q 276 1107 311 1107 q 217 1127 242 1107 q 193 1189 193 1147 m 478 1189 q 502 1253 478 1233 q 563 1272 526 1272 q 622 1253 596 1272 q 647 1189 647 1233 q 622 1127 647 1147 q 563 1107 596 1107 q 502 1127 526 1107 q 478 1189 478 1147 z "},"Ź":{"ha":800,"x_min":40,"x_max":760,"o":"m 760 0 l 40 0 l 40 121 l 533 842 l 54 842 l 54 992 l 746 992 l 746 871 l 254 150 l 760 150 l 760 0 m 639 1289 q 593 1242 622 1269 q 530 1184 564 1214 q 463 1127 496 1154 q 404 1081 431 1100 l 288 1081 l 288 1099 q 338 1160 310 1125 q 392 1234 365 1196 q 438 1303 419 1272 l 639 1303 l 639 1289 z "},"ź":{"ha":672,"x_min":46,"x_max":625,"o":"m 625 0 l 46 0 l 46 107 l 415 618 l 68 618 l 68 753 l 614 753 l 614 635 l 254 136 l 625 136 l 625 0 m 590 1050 q 544 1003 574 1031 q 481 945 515 975 q 415 888 447 915 q 356 842 382 861 l 239 842 l 239 860 q 289 922 261 886 q 344 995 317 957 q 389 1064 371 1033 l 590 1064 l 590 1050 z "},"Ż":{"ha":800,"x_min":40,"x_max":760,"o":"m 760 0 l 40 0 l 40 121 l 533 842 l 54 842 l 54 992 l 746 992 l 746 871 l 254 150 l 760 150 l 760 0 m 408 1283 q 476 1263 447 1283 q 506 1190 506 1242 q 476 1119 506 1140 q 408 1097 447 1097 q 338 1119 367 1097 q 310 1190 310 1140 q 338 1263 310 1242 q 408 1283 367 1283 z "},"ż":{"ha":672,"x_min":46,"x_max":625,"o":"m 625 0 l 46 0 l 46 107 l 415 618 l 68 618 l 68 753 l 614 753 l 614 635 l 254 136 l 625 136 l 625 0 m 338 1044 q 406 1024 376 1044 q 435 951 435 1003 q 406 880 435 901 q 338 858 376 858 q 267 880 296 858 q 239 951 239 901 q 267 1024 239 1003 q 338 1044 296 1044 z "},"Ž":{"ha":800,"x_min":40,"x_max":760,"o":"m 760 0 l 40 0 l 40 121 l 533 842 l 54 842 l 54 992 l 746 992 l 746 871 l 254 150 l 760 150 l 760 0 m 313 1081 q 263 1150 294 1113 q 199 1224 232 1188 q 140 1285 167 1260 l 140 1303 l 257 1303 q 334 1249 293 1281 q 410 1181 375 1218 q 489 1249 447 1218 q 567 1303 531 1281 l 685 1303 l 685 1285 q 625 1224 658 1260 q 560 1150 592 1188 q 511 1081 529 1113 l 313 1081 z "},"ž":{"ha":672,"x_min":46,"x_max":625,"o":"m 625 0 l 46 0 l 46 107 l 415 618 l 68 618 l 68 753 l 614 753 l 614 635 l 254 136 l 625 136 l 625 0 m 246 842 q 197 911 228 874 q 133 985 165 949 q 74 1046 100 1021 l 74 1064 l 190 1064 q 267 1010 226 1042 q 343 942 308 979 q 422 1010 381 979 q 500 1064 464 1042 l 618 1064 l 618 1046 q 558 985 592 1021 q 494 911 525 949 q 444 842 463 874 l 246 842 z "},"ſ":{"ha":503,"x_min":113,"x_max":540,"o":"m 386 922 q 312 892 336 922 q 288 804 288 863 l 288 0 l 113 0 l 113 810 q 144 960 113 906 q 235 1039 176 1015 q 371 1063 293 1063 q 471 1053 429 1063 q 540 1033 513 1044 l 499 903 q 447 916 475 910 q 386 922 419 922 z "},"ƒ":{"ha":664,"x_min":-1,"x_max":725,"o":"m 231 -335 q 58 -276 117 -335 q -1 -122 -1 -217 q 4 -67 -1 -92 q 18 -24 10 -43 l 160 -65 q 152 -93 154 -79 q 150 -122 150 -107 q 170 -181 150 -161 q 218 -201 190 -201 q 274 -176 253 -201 q 294 -94 294 -151 l 294 621 l 174 621 l 174 704 l 294 754 l 294 806 q 326 958 294 903 q 415 1038 357 1014 q 553 1063 472 1063 q 652 1053 607 1063 q 725 1033 697 1044 l 681 903 q 629 916 657 910 q 567 922 601 922 q 493 890 517 922 q 469 801 469 858 l 469 753 l 651 753 l 651 621 l 469 621 l 469 -83 q 441 -222 469 -165 q 359 -307 413 -279 q 231 -335 306 -335 z "},"Ǻ":{"ha":933,"x_min":0,"x_max":935,"o":"m 347 886 q 315 926 326 901 q 303 983 303 950 q 348 1098 303 1057 q 464 1139 393 1139 q 582 1098 533 1139 q 631 985 631 1057 q 619 926 631 951 q 586 886 607 901 l 935 0 l 743 0 l 653 236 l 278 236 l 192 0 l 0 0 l 347 886 m 326 389 l 608 389 l 519 621 q 502 672 513 642 q 483 734 492 701 q 467 794 474 767 q 441 703 456 753 q 414 619 426 653 l 326 389 m 464 913 q 515 931 494 913 q 535 983 535 950 q 515 1034 535 1015 q 464 1053 494 1053 q 415 1034 435 1053 q 394 983 394 1015 q 413 932 394 951 q 464 913 431 913 m 381 1189 q 422 1233 400 1208 q 464 1283 443 1257 q 499 1331 485 1308 l 701 1331 l 701 1318 q 666 1286 690 1306 q 612 1246 642 1267 q 552 1206 582 1225 q 499 1175 522 1188 l 381 1175 l 381 1189 z "},"ǻ":{"ha":813,"x_min":58,"x_max":708,"o":"m 425 767 q 637 702 565 767 q 708 506 708 638 l 708 0 l 583 0 l 550 104 l 544 104 q 478 38 513 64 q 400 -1 444 11 q 293 -14 356 -14 q 173 11 226 -14 q 89 88 119 36 q 58 219 58 140 q 144 395 58 336 q 407 460 231 454 l 533 464 l 533 496 q 499 603 533 572 q 403 635 464 635 q 295 617 349 635 q 192 578 242 600 l 139 700 q 268 749 194 731 q 425 767 342 767 m 442 353 q 284 314 328 347 q 240 221 240 281 q 272 142 240 167 q 353 118 303 118 q 481 163 429 118 q 533 292 533 207 l 533 356 l 442 353 m 414 1058 q 365 1040 385 1058 q 344 989 344 1021 q 363 938 344 957 q 414 919 381 919 q 464 938 444 919 q 483 989 483 957 q 463 1040 483 1021 q 414 1058 443 1058 m 414 1144 q 499 1126 461 1144 q 558 1073 536 1107 q 579 990 579 1039 q 532 874 579 915 q 414 833 485 833 q 297 874 342 833 q 251 989 251 915 q 297 1103 251 1063 q 414 1144 342 1144 m 650 1325 q 597 1284 636 1310 q 514 1233 558 1258 q 438 1192 469 1208 l 317 1192 l 317 1203 q 358 1243 336 1221 q 400 1290 379 1265 q 435 1333 421 1314 l 650 1333 l 650 1325 z "},"Ǽ":{"ha":1285,"x_min":0,"x_max":1203,"o":"m 1203 0 l 639 0 l 639 263 l 300 263 l 182 0 l 0 0 l 454 992 l 1203 992 l 1203 843 l 817 843 l 817 590 l 1176 590 l 1176 442 l 817 442 l 817 150 l 1203 150 l 1203 0 m 367 415 l 639 415 l 639 838 l 556 838 l 367 415 m 928 1289 q 882 1242 911 1269 q 819 1184 853 1214 q 752 1127 785 1154 q 693 1081 719 1100 l 576 1081 l 576 1099 q 626 1160 599 1125 q 681 1234 654 1196 q 726 1303 708 1272 l 928 1303 l 928 1289 z "},"ǽ":{"ha":1246,"x_min":61,"x_max":1182,"o":"m 871 767 q 1034 726 964 767 q 1143 609 1104 685 q 1182 426 1182 533 l 1182 336 l 697 336 q 751 176 700 232 q 896 121 803 121 q 1024 135 965 121 q 1143 178 1083 150 l 1143 38 q 1028 -1 1086 11 q 888 -14 969 -14 q 770 2 825 -14 q 672 51 715 18 q 597 133 629 83 q 520 52 560 85 q 428 3 481 19 q 300 -14 376 -14 q 180 11 235 -14 q 93 88 125 36 q 61 219 61 140 q 98 349 61 297 q 208 428 135 401 q 393 460 282 456 l 519 464 l 519 517 q 485 608 519 581 q 392 635 451 635 q 285 619 336 635 q 183 581 233 604 l 128 701 q 256 749 183 731 q 403 767 328 767 q 540 742 483 767 q 633 667 597 718 q 733 742 675 717 q 871 767 792 767 m 432 353 q 282 313 324 349 q 240 218 240 278 q 269 142 240 165 q 349 118 299 118 q 435 138 397 118 q 497 196 474 157 q 519 292 519 235 l 519 356 l 432 353 m 867 638 q 751 592 794 638 q 700 458 707 547 l 1013 458 q 996 551 1013 511 q 947 615 979 592 q 867 638 915 638 m 865 1050 q 819 1003 849 1031 q 756 945 790 975 q 690 888 722 915 q 631 842 657 861 l 514 842 l 514 860 q 564 922 536 886 q 619 995 592 957 q 664 1064 646 1033 l 865 1064 l 865 1050 z "},"Ǿ":{"ha":1093,"x_min":79,"x_max":1014,"o":"m 1014 497 q 985 288 1014 382 q 898 126 956 194 q 753 22 840 58 q 547 -14 665 -14 q 416 -1 476 -14 q 308 38 356 13 l 246 -54 l 143 13 l 210 108 q 111 275 143 176 q 79 499 79 374 q 130 766 79 651 q 285 944 181 881 q 549 1007 389 1007 q 678 993 618 1007 q 786 954 738 979 l 846 1042 l 947 976 l 882 883 q 981 718 949 817 q 1014 497 1014 619 m 824 497 q 775 725 824 640 l 399 175 q 465 148 428 157 q 547 139 503 139 q 706 182 644 139 q 795 306 767 225 q 824 497 824 386 m 268 497 q 280 368 268 426 q 317 265 292 310 l 694 818 q 629 846 667 836 q 549 856 592 856 q 389 813 451 856 q 297 689 326 769 q 268 497 268 608 m 803 1289 q 757 1242 786 1269 q 694 1184 728 1214 q 627 1127 660 1154 q 568 1081 594 1100 l 451 1081 l 451 1099 q 501 1160 474 1125 q 556 1234 529 1196 q 601 1303 583 1272 l 803 1303 l 803 1289 z "},"ǿ":{"ha":853,"x_min":68,"x_max":785,"o":"m 785 378 q 741 165 785 253 q 616 32 697 78 q 424 -14 535 -14 q 336 -4 378 -14 q 258 22 294 6 l 208 -49 l 113 15 l 165 90 q 94 213 119 142 q 68 378 68 285 q 165 666 68 565 q 428 767 261 767 q 520 756 476 767 q 601 726 564 746 l 646 790 l 740 725 l 693 656 q 760 537 736 607 q 785 378 785 467 m 247 378 q 252 303 247 338 q 267 240 257 268 l 517 601 q 476 619 499 613 q 425 625 453 625 q 290 561 332 625 q 247 378 247 497 m 606 378 q 601 446 606 415 q 589 501 597 476 l 343 146 q 382 133 361 138 q 426 128 403 128 q 530 157 490 128 q 588 242 569 186 q 606 378 606 299 m 660 1050 q 614 1003 643 1031 q 551 945 585 975 q 484 888 517 915 q 425 842 451 861 l 308 842 l 308 860 q 358 922 331 886 q 413 995 386 957 q 458 1064 440 1033 l 660 1064 l 660 1050 z "},"Ș":{"ha":764,"x_min":67,"x_max":706,"o":"m 706 271 q 663 119 706 183 q 538 21 619 56 q 344 -14 457 -14 q 241 -8 290 -14 q 148 11 192 -1 q 67 42 104 24 l 67 208 q 204 158 129 181 q 357 135 279 135 q 455 151 417 135 q 511 195 493 167 q 529 261 529 224 q 506 332 529 303 q 436 386 482 361 q 322 439 390 411 q 233 483 276 458 q 154 542 189 507 q 99 624 119 576 q 78 735 78 671 q 119 881 78 819 q 234 974 160 942 q 407 1006 308 1006 q 556 989 486 1006 q 693 942 625 972 l 636 799 q 518 840 575 825 q 401 856 461 856 q 321 841 354 856 q 271 800 288 826 q 254 739 254 774 q 275 671 254 699 q 340 619 296 643 q 453 564 383 594 q 589 492 533 529 q 675 401 644 454 q 706 271 706 349 m 475 -99 q 449 -164 467 -128 q 410 -237 432 -200 q 364 -307 389 -274 l 263 -307 l 263 -289 q 282 -226 272 -264 q 300 -151 292 -189 q 310 -85 308 -112 l 475 -85 l 475 -99 z "},"ș":{"ha":685,"x_min":67,"x_max":625,"o":"m 625 217 q 590 93 625 144 q 488 14 556 42 q 318 -14 419 -14 q 179 -3 239 -14 q 68 32 119 8 l 68 182 q 191 138 124 156 q 315 121 258 121 q 424 143 390 121 q 457 203 457 165 q 442 245 457 226 q 390 283 428 264 q 282 331 351 303 q 165 387 213 358 q 92 456 117 415 q 67 558 67 497 q 147 713 67 660 q 360 767 228 767 q 492 753 431 767 q 614 711 554 739 l 561 586 q 456 623 510 608 q 356 638 401 638 q 266 619 297 638 q 235 569 235 601 q 250 527 235 544 q 304 492 265 510 q 413 447 343 474 q 528 392 481 421 q 601 322 576 363 q 625 217 625 281 m 446 -99 q 420 -164 438 -128 q 381 -237 403 -200 q 335 -307 360 -274 l 233 -307 l 233 -289 q 253 -226 243 -264 q 271 -151 263 -189 q 281 -85 279 -112 l 446 -85 l 446 -99 z "},"ˆ":{"ha":636,"x_min":56,"x_max":581,"o":"m 407 1064 q 456 995 425 1033 q 522 920 488 957 q 581 858 556 883 l 581 842 l 461 842 q 389 893 425 864 q 317 958 353 922 q 244 894 279 922 q 174 842 210 865 l 56 842 l 56 858 q 115 921 82 885 q 178 995 147 957 q 228 1064 208 1033 l 407 1064 z "},"ˇ":{"ha":656,"x_min":56,"x_max":600,"o":"m 228 842 q 178 911 210 874 q 115 985 147 949 q 56 1046 82 1021 l 56 1064 l 172 1064 q 249 1010 208 1042 q 325 942 290 979 q 404 1010 363 979 q 482 1064 446 1042 l 600 1064 l 600 1046 q 540 985 574 1021 q 476 911 507 949 q 426 842 444 874 l 228 842 z "},"ˉ":{"ha":554,"x_min":56,"x_max":499,"o":"m 499 964 l 499 842 l 56 842 l 56 964 l 499 964 z "},"˘":{"ha":606,"x_min":56,"x_max":550,"o":"m 550 1054 q 514 944 546 992 q 428 869 482 896 q 300 842 374 842 q 124 900 188 842 q 56 1054 61 958 l 156 1054 q 179 998 160 1017 q 231 974 199 979 q 301 969 263 969 q 368 976 336 969 q 422 1000 400 982 q 449 1054 444 1018 l 550 1054 z "},"˙":{"ha":307,"x_min":56,"x_max":251,"o":"m 154 1044 q 222 1024 193 1044 q 251 951 251 1003 q 222 880 251 901 q 154 858 193 858 q 84 880 113 858 q 56 951 56 901 q 84 1024 56 1003 q 154 1044 113 1044 z "},"˚":{"ha":439,"x_min":56,"x_max":383,"o":"m 218 840 q 100 882 144 840 q 56 997 56 924 q 100 1112 56 1071 q 218 1153 144 1153 q 335 1112 288 1153 q 383 999 383 1071 q 336 882 383 924 q 218 840 289 840 m 218 926 q 268 946 249 926 q 288 997 288 965 q 267 1048 288 1029 q 218 1067 247 1067 q 167 1048 188 1067 q 147 997 147 1029 q 165 946 147 965 q 218 926 183 926 z "},"˛":{"ha":369,"x_min":56,"x_max":314,"o":"m 183 -151 q 199 -193 183 -179 q 242 -207 215 -207 q 283 -203 264 -207 q 314 -196 301 -199 l 314 -301 q 270 -312 293 -307 q 215 -317 247 -317 q 98 -278 140 -317 q 56 -175 56 -240 q 74 -103 56 -139 q 123 -34 92 -67 q 194 26 154 -1 l 276 0 q 206 -78 229 -44 q 183 -151 183 -112 z "},"˜":{"ha":654,"x_min":56,"x_max":599,"o":"m 56 840 q 74 927 60 890 q 112 989 89 964 q 164 1026 135 1014 q 228 1039 193 1039 q 285 1028 257 1039 q 338 1001 313 1017 q 389 975 364 986 q 438 964 414 964 q 481 983 463 964 q 508 1040 500 1003 l 599 1040 q 542 892 590 943 q 426 842 494 842 q 371 853 397 842 q 317 879 344 864 q 266 906 290 894 q 217 917 242 917 q 173 898 192 917 q 146 840 154 879 l 56 840 z "},"˝":{"ha":676,"x_min":56,"x_max":621,"o":"m 621 1050 q 585 1004 610 1032 q 529 946 561 976 q 466 888 497 915 q 410 842 435 861 l 315 842 l 315 860 q 359 922 335 886 q 406 996 383 958 q 443 1064 429 1033 l 621 1064 l 621 1050 m 361 1050 q 326 1004 350 1032 q 269 946 301 976 q 206 888 238 915 q 150 842 175 861 l 56 842 l 56 860 q 99 922 75 886 q 144 996 122 958 q 183 1064 167 1033 l 361 1064 l 361 1050 z "},"΄":{"ha":374,"x_min":56,"x_max":318,"o":"m 56 842 l 56 860 l 122 1078 l 318 1078 l 318 1064 l 168 842 l 56 842 z "},"΅":{"ha":1022,"x_min":196,"x_max":826,"o":"m 401 842 l 401 860 l 453 1078 l 653 1078 l 653 1064 l 518 842 l 401 842 m 279 868 q 220 888 244 868 q 196 950 196 908 q 220 1014 196 994 q 279 1033 244 1033 q 338 1014 313 1033 q 364 950 364 994 q 338 888 364 908 q 279 868 313 868 m 742 868 q 683 888 708 868 q 658 950 658 908 q 683 1014 658 994 q 742 1033 707 1033 q 801 1014 776 1033 q 826 950 826 994 q 801 888 826 908 q 742 868 776 868 z "},"Ά":{"ha":1060,"x_min":14,"x_max":1058,"o":"m 868 0 l 775 261 l 408 261 l 317 0 l 126 0 l 490 996 l 694 996 l 1058 0 l 868 0 m 646 661 q 629 715 640 678 q 608 791 618 751 q 592 853 597 831 q 576 787 585 824 q 558 717 567 750 q 542 661 549 685 l 456 414 l 731 414 l 646 661 m 14 756 l 14 774 l 81 992 l 276 992 l 276 978 l 126 756 l 14 756 z "},"·":{"ha":383,"x_min":85,"x_max":299,"o":"m 85 661 q 116 745 85 721 q 192 769 147 769 q 267 745 236 769 q 299 661 299 721 q 267 579 299 604 q 192 554 236 554 q 116 579 147 554 q 85 661 85 604 z "},"Έ":{"ha":1056,"x_min":14,"x_max":972,"o":"m 972 0 l 408 0 l 408 992 l 972 992 l 972 843 l 586 843 l 586 590 l 947 590 l 947 442 l 586 442 l 586 150 l 972 150 l 972 0 m 14 756 l 14 774 l 81 992 l 276 992 l 276 978 l 126 756 l 14 756 z "},"Ή":{"ha":1329,"x_min":14,"x_max":1200,"o":"m 1200 0 l 1022 0 l 1022 440 l 586 440 l 586 0 l 408 0 l 408 992 l 586 992 l 586 592 l 1022 592 l 1022 992 l 1200 992 l 1200 0 m 14 756 l 14 774 l 81 992 l 276 992 l 276 978 l 126 756 l 14 756 z "},"Ί":{"ha":828,"x_min":14,"x_max":769,"o":"m 769 0 l 353 0 l 353 101 l 472 146 l 472 844 l 353 890 l 353 992 l 769 992 l 769 890 l 650 844 l 650 146 l 769 101 l 769 0 m 14 756 l 14 774 l 81 992 l 276 992 l 276 978 l 126 756 l 14 756 z "},"Ό":{"ha":1308,"x_min":14,"x_max":1224,"o":"m 1224 497 q 1194 288 1224 382 q 1108 126 1165 194 q 963 22 1050 58 q 757 -14 875 -14 q 549 23 636 -14 q 403 127 461 60 q 317 289 346 194 q 289 499 289 383 q 340 766 289 651 q 494 944 390 881 q 758 1007 599 1007 q 1017 944 914 1007 q 1172 766 1121 881 q 1224 497 1224 651 m 478 497 q 507 306 478 386 q 599 182 536 225 q 757 139 661 139 q 915 182 854 139 q 1005 306 976 225 q 1033 497 1033 386 q 969 760 1033 665 q 758 856 904 856 q 599 813 661 856 q 507 689 536 769 q 478 497 478 608 m 14 756 l 14 774 l 81 992 l 276 992 l 276 978 l 126 756 l 14 756 z "},"Ύ":{"ha":1183,"x_min":14,"x_max":1183,"o":"m 765 550 l 990 992 l 1183 992 l 854 386 l 854 0 l 675 0 l 675 379 l 346 992 l 542 992 l 765 550 m 14 756 l 14 774 l 81 992 l 276 992 l 276 978 l 126 756 l 14 756 z "},"Ώ":{"ha":1251,"x_min":14,"x_max":1210,"o":"m 263 0 l 263 151 l 472 151 q 370 247 417 189 q 297 379 324 304 q 271 543 271 454 q 326 783 271 678 q 486 947 382 888 q 736 1007 590 1007 q 986 947 882 1007 q 1146 783 1090 888 q 1201 544 1201 678 q 1175 379 1201 454 q 1103 247 1149 304 q 997 151 1057 190 l 1210 151 l 1210 0 l 815 0 l 815 156 q 934 265 890 207 q 997 389 978 322 q 1017 535 1017 456 q 984 704 1017 632 q 889 816 951 776 q 736 856 826 856 q 583 816 644 856 q 489 703 521 776 q 457 533 457 631 q 475 391 457 458 q 536 266 493 324 q 656 156 579 208 l 656 0 l 263 0 m 14 756 l 14 774 l 81 992 l 276 992 l 276 978 l 126 756 l 14 756 z "},"ΐ":{"ha":521,"x_min":-46,"x_max":585,"o":"m 357 -14 q 214 17 268 -14 q 135 103 160 49 q 111 226 111 157 l 111 753 l 286 753 l 286 244 q 315 152 286 176 q 386 128 344 128 q 436 132 414 128 q 482 142 458 136 l 482 3 q 426 -9 460 -4 q 357 -14 393 -14 m 160 842 l 160 860 l 211 1078 l 411 1078 l 411 1064 l 276 842 l 160 842 m 38 868 q -22 888 3 868 q -46 950 -46 908 q -22 1014 -46 994 q 38 1033 3 1033 q 97 1014 71 1033 q 122 950 122 994 q 97 888 122 908 q 38 868 71 868 m 500 868 q 442 888 467 868 q 417 950 417 908 q 441 1014 417 994 q 500 1033 465 1033 q 560 1014 535 1033 q 585 950 585 994 q 560 888 585 908 q 500 868 535 868 z "},"Α":{"ha":933,"x_min":0,"x_max":932,"o":"m 742 0 l 649 261 l 282 261 l 190 0 l 0 0 l 364 996 l 568 996 l 932 0 l 742 0 m 519 661 q 503 715 514 678 q 481 791 492 751 q 465 853 471 831 q 449 787 458 824 q 431 717 440 750 q 415 661 422 685 l 329 414 l 604 414 l 519 661 z "},"Β":{"ha":915,"x_min":124,"x_max":844,"o":"m 432 992 q 722 933 628 992 q 817 746 817 875 q 794 640 817 685 q 731 566 771 594 q 640 526 692 538 l 640 519 q 741 485 694 510 q 816 412 788 460 q 844 285 844 364 q 801 131 844 194 q 678 33 758 67 q 488 0 597 0 l 124 0 l 124 992 l 432 992 m 447 585 q 592 621 553 585 q 632 722 632 657 q 584 818 632 788 q 433 849 536 849 l 304 849 l 304 585 l 447 585 m 304 446 l 304 144 l 464 144 q 615 188 572 144 q 657 300 657 231 q 638 375 657 342 q 575 427 619 408 q 456 446 531 446 l 304 446 z "},"Γ":{"ha":719,"x_min":129,"x_max":664,"o":"m 129 0 l 129 992 l 664 992 l 664 843 l 304 843 l 304 0 l 129 0 z "},"Δ":{"ha":915,"x_min":14,"x_max":901,"o":"m 14 0 l 14 97 l 356 996 l 558 996 l 901 94 l 901 0 l 14 0 m 218 153 l 694 153 l 515 671 q 497 724 508 690 q 475 792 486 757 q 457 851 464 828 q 439 788 450 824 q 417 719 428 751 q 401 671 407 688 l 218 153 z "},"Ε":{"ha":775,"x_min":129,"x_max":693,"o":"m 693 0 l 129 0 l 129 992 l 693 992 l 693 843 l 307 843 l 307 590 l 668 590 l 668 442 l 307 442 l 307 150 l 693 150 l 693 0 z "},"Ζ":{"ha":800,"x_min":40,"x_max":760,"o":"m 760 0 l 40 0 l 40 121 l 533 842 l 54 842 l 54 992 l 746 992 l 746 871 l 254 150 l 760 150 l 760 0 z "},"Η":{"ha":1050,"x_min":129,"x_max":921,"o":"m 921 0 l 743 0 l 743 440 l 307 440 l 307 0 l 129 0 l 129 992 l 307 992 l 307 592 l 743 592 l 743 992 l 921 992 l 921 0 z "},"Θ":{"ha":1093,"x_min":79,"x_max":1014,"o":"m 364 432 l 364 576 l 731 576 l 731 432 l 364 432 m 1014 497 q 985 288 1014 382 q 898 126 956 194 q 753 22 840 58 q 547 -14 665 -14 q 339 23 426 -14 q 194 127 251 60 q 108 289 136 194 q 79 499 79 383 q 130 766 79 651 q 285 944 181 881 q 549 1007 389 1007 q 808 944 704 1007 q 963 766 911 881 q 1014 497 1014 651 m 268 497 q 297 306 268 386 q 389 182 326 225 q 547 139 451 139 q 706 182 644 139 q 795 306 767 225 q 824 497 824 386 q 759 760 824 665 q 549 856 694 856 q 389 813 451 856 q 297 689 326 769 q 268 497 268 608 z "},"Ι":{"ha":514,"x_min":49,"x_max":465,"o":"m 465 0 l 49 0 l 49 101 l 168 146 l 168 844 l 49 890 l 49 992 l 465 992 l 465 890 l 346 844 l 346 146 l 465 101 l 465 0 z "},"Κ":{"ha":896,"x_min":129,"x_max":899,"o":"m 899 0 l 694 0 l 400 439 l 307 365 l 307 0 l 129 0 l 129 992 l 307 992 l 307 525 q 364 596 335 560 q 422 668 393 632 l 690 992 l 892 992 l 528 556 l 899 0 z "},"Λ":{"ha":897,"x_min":0,"x_max":896,"o":"m 0 0 l 344 996 l 550 996 l 896 0 l 704 0 l 499 661 q 484 715 494 678 q 463 791 474 751 q 447 853 453 831 q 432 787 440 824 q 415 717 424 750 q 399 661 406 685 l 190 0 l 0 0 z "},"Μ":{"ha":1292,"x_min":129,"x_max":1163,"o":"m 556 0 l 283 813 l 278 813 q 282 734 279 785 q 287 624 285 683 q 289 514 289 565 l 289 0 l 129 0 l 129 992 l 376 992 l 638 213 l 643 213 l 915 992 l 1163 992 l 1163 0 l 993 0 l 993 522 q 995 626 993 569 q 999 733 997 682 q 1003 811 1001 783 l 997 811 l 714 0 l 556 0 z "},"Ν":{"ha":1094,"x_min":129,"x_max":972,"o":"m 972 0 l 751 0 l 282 778 l 276 778 q 281 690 279 736 q 285 597 283 644 q 289 500 288 549 l 289 0 l 129 0 l 129 992 l 349 992 l 817 219 l 821 219 q 818 301 819 256 q 815 395 817 347 q 811 488 813 443 l 811 992 l 972 992 l 972 0 z "},"Ξ":{"ha":868,"x_min":82,"x_max":786,"o":"m 82 0 l 82 151 l 786 151 l 786 0 l 82 0 m 165 442 l 165 593 l 703 593 l 703 442 l 165 442 m 110 840 l 110 992 l 758 992 l 758 840 l 110 840 z "},"Ο":{"ha":1093,"x_min":79,"x_max":1014,"o":"m 1014 497 q 985 288 1014 382 q 898 126 956 194 q 753 22 840 58 q 547 -14 665 -14 q 339 23 426 -14 q 194 127 251 60 q 108 289 136 194 q 79 499 79 383 q 130 766 79 651 q 285 944 181 881 q 549 1007 389 1007 q 808 944 704 1007 q 963 766 911 881 q 1014 497 1014 651 m 268 497 q 297 306 268 386 q 389 182 326 225 q 547 139 451 139 q 706 182 644 139 q 795 306 767 225 q 824 497 824 386 q 759 760 824 665 q 549 856 694 856 q 389 813 451 856 q 297 689 326 769 q 268 497 268 608 z "},"Π":{"ha":1036,"x_min":129,"x_max":907,"o":"m 129 0 l 129 992 l 907 992 l 907 0 l 729 0 l 729 842 l 307 842 l 307 0 l 129 0 z "},"Ρ":{"ha":854,"x_min":124,"x_max":792,"o":"m 417 992 q 701 913 610 992 q 792 692 792 835 q 772 569 792 628 q 706 465 751 511 q 586 391 661 418 q 403 364 511 364 l 304 364 l 304 0 l 124 0 l 124 992 l 417 992 m 408 843 l 304 843 l 304 514 l 386 514 q 507 531 457 514 q 583 585 557 547 q 610 685 610 624 q 561 803 610 763 q 408 843 513 843 z "},"Σ":{"ha":800,"x_min":40,"x_max":760,"o":"m 40 0 l 40 142 l 354 517 l 54 856 l 54 992 l 746 992 l 746 843 l 407 843 q 341 844 379 843 q 271 847 303 844 l 533 549 l 533 501 l 233 144 q 327 149 283 147 q 422 150 371 150 l 760 150 l 760 0 l 40 0 z "},"Τ":{"ha":790,"x_min":22,"x_max":768,"o":"m 485 0 l 306 0 l 306 840 l 22 840 l 22 992 l 768 992 l 768 840 l 485 840 l 485 0 z "},"Υ":{"ha":838,"x_min":0,"x_max":838,"o":"m 419 550 l 644 992 l 838 992 l 508 386 l 508 0 l 329 0 l 329 379 l 0 992 l 196 992 l 419 550 z "},"Φ":{"ha":1224,"x_min":65,"x_max":1157,"o":"m 524 -6 l 524 125 q 300 160 389 126 q 160 251 211 194 q 87 376 108 307 q 65 514 65 444 q 88 654 65 586 q 163 776 111 722 q 303 863 215 831 q 524 897 392 896 l 524 997 l 699 997 l 699 897 q 917 864 829 896 q 1058 778 1006 832 q 1134 656 1111 725 q 1157 514 1157 588 q 1135 375 1157 443 q 1061 251 1114 307 q 919 160 1008 194 q 699 125 831 126 l 699 -6 l 524 -6 m 524 265 l 524 754 q 353 721 414 753 q 267 635 292 689 q 243 515 243 582 q 269 390 243 446 q 356 301 294 335 q 524 265 417 268 m 699 265 q 868 302 807 268 q 955 392 929 336 q 981 515 981 447 q 956 634 981 581 q 869 720 931 688 q 699 754 808 753 l 699 265 z "},"Χ":{"ha":886,"x_min":4,"x_max":881,"o":"m 881 0 l 675 0 l 439 385 l 201 0 l 4 0 l 333 513 l 25 992 l 224 992 l 443 633 l 660 992 l 857 992 l 549 507 l 881 0 z "},"Ψ":{"ha":1192,"x_min":121,"x_max":1069,"o":"m 514 0 l 514 257 q 341 286 415 258 q 218 366 267 314 q 145 492 169 418 q 121 661 121 567 l 121 992 l 292 992 l 292 654 q 319 503 292 558 q 397 426 346 449 q 514 403 447 403 l 514 992 l 678 992 l 678 403 q 790 425 740 403 q 869 502 840 447 q 899 651 899 557 l 899 992 l 1069 992 l 1069 663 q 1026 444 1069 535 q 894 306 982 354 q 678 257 807 258 l 678 0 l 514 0 z "},"Ω":{"ha":1031,"x_min":42,"x_max":989,"o":"m 42 0 l 42 151 l 251 151 q 149 247 196 189 q 76 379 103 304 q 50 543 50 454 q 106 783 50 678 q 265 947 161 888 q 515 1007 369 1007 q 765 947 661 1007 q 925 783 869 888 q 981 544 981 678 q 954 379 981 454 q 882 247 928 304 q 776 151 836 190 l 989 151 l 989 0 l 594 0 l 594 156 q 713 265 669 207 q 776 389 757 322 q 796 535 796 456 q 763 704 796 632 q 668 816 731 776 q 515 856 606 856 q 362 816 424 856 q 268 703 300 776 q 236 533 236 631 q 254 391 236 458 q 315 266 272 324 q 435 156 358 208 l 435 0 l 42 0 z "},"Ϊ":{"ha":514,"x_min":29,"x_max":483,"o":"m 465 0 l 49 0 l 49 101 l 168 146 l 168 844 l 49 890 l 49 992 l 465 992 l 465 890 l 346 844 l 346 146 l 465 101 l 465 0 m 29 1189 q 53 1253 29 1233 q 113 1272 78 1272 q 173 1253 147 1272 q 199 1189 199 1233 q 173 1127 199 1147 q 113 1107 147 1107 q 53 1127 78 1107 q 29 1189 29 1147 m 314 1189 q 338 1253 314 1233 q 399 1272 363 1272 q 458 1253 432 1272 q 483 1189 483 1233 q 458 1127 483 1147 q 399 1107 432 1107 q 338 1127 363 1107 q 314 1189 314 1147 z "},"Ϋ":{"ha":838,"x_min":0,"x_max":838,"o":"m 419 550 l 644 992 l 838 992 l 508 386 l 508 0 l 329 0 l 329 379 l 0 992 l 196 992 l 419 550 m 193 1189 q 217 1253 193 1233 q 276 1272 242 1272 q 337 1253 311 1272 q 363 1189 363 1233 q 337 1127 363 1147 q 276 1107 311 1107 q 217 1127 242 1107 q 193 1189 193 1147 m 478 1189 q 502 1253 478 1233 q 563 1272 526 1272 q 622 1253 596 1272 q 647 1189 647 1233 q 622 1127 647 1147 q 563 1107 596 1107 q 502 1127 526 1107 q 478 1189 478 1147 z "},"ά":{"ha":894,"x_min":69,"x_max":858,"o":"m 363 -14 q 210 30 276 -14 q 107 160 144 74 q 69 374 69 247 q 149 667 69 567 q 367 767 228 767 q 463 752 422 767 q 535 713 504 738 q 589 654 567 688 l 594 654 l 614 753 l 761 753 l 761 207 q 778 144 761 161 q 817 128 794 128 q 840 131 828 128 q 858 135 853 133 l 858 4 q 836 -4 851 0 q 803 -11 821 -8 q 771 -14 786 -14 q 667 11 707 -14 q 607 100 628 36 l 594 100 q 539 42 572 68 q 461 1 506 15 q 363 -14 417 -14 m 418 128 q 520 152 482 128 q 576 228 558 176 q 593 363 593 281 l 593 375 q 556 561 593 496 q 417 626 518 626 q 290 560 331 626 q 250 372 250 494 q 292 188 250 249 q 418 128 335 128 m 375 842 l 375 860 l 442 1078 l 638 1078 l 638 1064 l 488 842 l 375 842 z "},"έ":{"ha":683,"x_min":54,"x_max":638,"o":"m 381 -14 q 135 47 215 -14 q 54 207 54 108 q 100 331 54 290 q 218 389 146 372 l 218 396 q 120 455 154 414 q 86 560 86 496 q 119 670 86 624 q 216 742 151 717 q 376 767 281 767 q 520 751 450 767 q 638 708 590 736 l 588 579 q 488 621 536 608 q 386 633 439 633 q 284 609 315 633 q 253 542 253 585 q 290 472 253 493 q 390 451 328 451 l 496 451 l 496 324 l 392 324 q 301 313 336 324 q 250 278 267 301 q 233 221 233 256 q 275 145 233 169 q 396 121 317 121 q 515 135 463 121 q 618 179 567 149 l 618 36 q 514 -2 571 10 q 381 -14 457 -14 m 332 842 l 332 860 l 399 1078 l 594 1078 l 594 1064 l 444 842 l 332 842 z "},"ή":{"ha":875,"x_min":108,"x_max":771,"o":"m 596 -333 l 596 461 q 563 583 596 540 q 461 625 531 625 q 357 594 396 625 q 301 507 318 564 q 285 367 285 450 l 285 0 l 108 0 l 108 753 l 246 753 l 269 654 l 279 654 q 339 718 304 693 q 417 755 374 743 q 507 767 460 767 q 648 738 589 767 q 739 649 707 710 q 771 490 771 588 l 771 -333 l 596 -333 m 324 842 l 324 860 l 390 1078 l 586 1078 l 586 1064 l 436 842 l 324 842 z "},"ί":{"ha":521,"x_min":111,"x_max":482,"o":"m 357 -14 q 214 17 268 -14 q 135 103 160 49 q 111 226 111 157 l 111 753 l 286 753 l 286 244 q 315 152 286 176 q 386 128 344 128 q 436 132 414 128 q 482 142 458 136 l 482 3 q 426 -9 460 -4 q 357 -14 393 -14 m 157 842 l 157 860 l 224 1078 l 419 1078 l 419 1064 l 269 842 l 157 842 z "},"ΰ":{"ha":864,"x_min":107,"x_max":799,"o":"m 417 -12 q 260 12 321 -12 q 166 82 200 36 q 119 191 132 128 q 107 329 107 254 l 107 753 l 282 753 l 282 326 q 294 212 282 256 q 339 148 307 168 q 425 128 371 128 q 523 157 483 128 q 582 249 563 186 q 601 414 601 313 q 589 585 601 507 q 554 753 576 664 l 731 753 q 756 642 746 696 q 771 532 765 588 q 776 408 776 476 q 685 90 776 192 q 417 -12 594 -12 m 372 842 l 372 860 l 424 1078 l 624 1078 l 624 1064 l 489 842 l 372 842 m 250 868 q 191 888 215 868 q 167 950 167 908 q 191 1014 167 994 q 250 1033 215 1033 q 309 1014 283 1033 q 335 950 335 994 q 309 888 335 908 q 250 868 283 868 m 713 868 q 654 888 679 868 q 629 950 629 908 q 653 1014 629 994 q 713 1033 678 1033 q 772 1014 747 1033 q 797 950 797 994 q 772 888 797 908 q 713 868 747 868 z "},"α":{"ha":894,"x_min":69,"x_max":858,"o":"m 363 -14 q 210 30 276 -14 q 107 160 144 74 q 69 374 69 247 q 149 667 69 567 q 367 767 228 767 q 463 752 422 767 q 535 713 504 738 q 589 654 567 688 l 594 654 l 614 753 l 761 753 l 761 207 q 778 144 761 161 q 817 128 794 128 q 840 131 828 128 q 858 135 853 133 l 858 4 q 836 -4 851 0 q 803 -11 821 -8 q 771 -14 786 -14 q 667 11 707 -14 q 607 100 628 36 l 594 100 q 539 42 572 68 q 461 1 506 15 q 363 -14 417 -14 m 418 128 q 520 152 482 128 q 576 228 558 176 q 593 363 593 281 l 593 375 q 556 561 593 496 q 417 626 518 626 q 290 560 331 626 q 250 372 250 494 q 292 188 250 249 q 418 128 335 128 z "},"β":{"ha":867,"x_min":108,"x_max":797,"o":"m 108 -333 l 108 732 q 152 924 108 851 q 272 1029 196 996 q 440 1063 347 1063 q 600 1033 531 1063 q 708 945 669 1004 q 746 796 746 886 q 719 681 746 729 q 649 604 693 633 q 551 564 606 575 l 551 558 q 679 517 624 549 q 766 430 735 486 q 797 289 797 374 q 756 125 797 193 q 642 22 714 57 q 479 -14 569 -14 q 369 -2 411 -14 q 285 31 328 10 l 285 -333 l 108 -333 m 449 128 q 572 174 525 128 q 619 304 619 219 q 594 406 619 367 q 531 465 569 446 q 449 485 492 485 l 363 485 l 363 618 l 435 618 q 508 638 478 618 q 553 695 538 658 q 568 778 568 732 q 531 888 568 851 q 433 925 494 925 q 359 908 393 925 q 305 851 325 892 q 285 739 285 811 l 285 176 q 359 142 322 156 q 449 128 396 128 z "},"γ":{"ha":757,"x_min":0,"x_max":715,"o":"m 265 -292 l 265 7 l 0 753 l 181 753 l 314 340 q 334 278 322 314 q 357 209 346 243 q 374 153 368 175 l 379 153 q 473 317 438 229 q 524 513 508 406 q 540 753 540 619 l 715 753 q 692 481 715 607 q 608 240 668 356 q 440 7 547 124 l 440 -292 l 265 -292 z "},"δ":{"ha":835,"x_min":54,"x_max":768,"o":"m 410 -14 q 226 26 307 -14 q 100 138 146 65 q 54 311 54 211 q 87 467 54 403 q 174 575 119 532 q 296 644 229 618 q 232 692 263 665 q 183 756 201 718 q 165 846 165 794 q 200 956 165 907 q 299 1034 235 1006 q 453 1063 363 1063 q 569 1050 517 1063 q 665 1016 622 1038 q 738 965 708 994 l 669 843 q 569 908 624 885 q 458 932 514 932 q 384 918 411 932 q 346 884 357 904 q 335 843 335 864 q 351 794 335 817 q 401 751 367 772 q 489 701 435 731 q 659 586 599 644 q 744 465 719 528 q 768 331 768 401 q 722 138 768 214 q 594 24 675 61 q 410 -14 513 -14 m 414 128 q 511 154 471 128 q 572 226 551 181 q 593 332 593 272 q 572 434 593 389 q 513 514 551 479 q 422 574 474 549 q 342 535 378 558 q 282 483 307 513 q 244 416 257 454 q 231 329 231 378 q 253 222 231 268 q 317 152 275 176 q 414 128 358 128 z "},"ε":{"ha":682,"x_min":54,"x_max":638,"o":"m 381 -14 q 135 47 215 -14 q 54 207 54 108 q 100 331 54 290 q 218 389 146 372 l 218 396 q 120 455 154 414 q 86 560 86 496 q 119 670 86 624 q 216 742 151 717 q 376 767 281 767 q 520 751 450 767 q 638 708 590 736 l 588 579 q 488 621 536 608 q 386 633 439 633 q 284 609 315 633 q 253 542 253 585 q 290 472 253 493 q 390 451 328 451 l 496 451 l 496 324 l 392 324 q 301 313 336 324 q 250 278 267 301 q 233 221 233 256 q 275 145 233 169 q 396 121 317 121 q 515 135 463 121 q 618 179 567 149 l 618 36 q 514 -2 571 10 q 381 -14 457 -14 z "},"ζ":{"ha":661,"x_min":68,"x_max":658,"o":"m 419 -281 q 465 -185 447 -231 q 482 -108 482 -139 q 473 -64 482 -81 q 437 -35 464 -47 q 356 -11 410 -24 q 190 51 253 14 q 97 143 126 89 q 68 274 68 197 q 106 444 68 361 q 208 610 143 526 q 347 788 272 694 l 463 932 q 419 928 450 931 q 353 924 389 925 q 288 924 317 924 l 103 924 l 103 1056 l 658 1056 l 658 946 l 467 703 q 344 536 393 606 q 271 410 294 467 q 247 301 247 354 q 263 227 247 258 q 322 173 279 196 q 443 132 364 150 q 569 89 522 113 q 634 30 615 65 q 653 -60 653 -6 q 644 -137 653 -100 q 622 -209 636 -174 q 588 -281 607 -244 l 419 -281 z "},"η":{"ha":875,"x_min":108,"x_max":771,"o":"m 596 -333 l 596 461 q 563 583 596 540 q 461 625 531 625 q 357 594 396 625 q 301 507 318 564 q 285 367 285 450 l 285 0 l 108 0 l 108 753 l 246 753 l 269 654 l 279 654 q 339 718 304 693 q 417 755 374 743 q 507 767 460 767 q 648 738 589 767 q 739 649 707 710 q 771 490 771 588 l 771 -333 l 596 -333 z "},"θ":{"ha":843,"x_min":69,"x_max":774,"o":"m 419 -14 q 224 51 301 -14 q 108 236 146 115 q 69 526 69 357 q 104 815 69 694 q 217 999 139 935 q 419 1063 294 1063 q 617 999 539 1063 q 735 816 696 936 q 774 526 774 696 q 738 236 774 357 q 625 51 703 115 q 419 -14 547 -14 m 419 118 q 517 153 479 118 q 575 265 556 189 q 597 468 594 342 l 246 468 q 265 267 247 343 q 322 154 283 190 q 419 118 360 118 m 246 601 l 596 601 q 574 788 593 717 q 517 894 554 860 q 421 929 479 929 q 325 894 363 929 q 269 788 288 860 q 246 601 251 717 z "},"ι":{"ha":521,"x_min":111,"x_max":482,"o":"m 357 -14 q 214 17 268 -14 q 135 103 160 49 q 111 226 111 157 l 111 753 l 286 753 l 286 244 q 315 152 286 176 q 386 128 344 128 q 436 132 414 128 q 482 142 458 136 l 482 3 q 426 -9 460 -4 q 357 -14 393 -14 z "},"κ":{"ha":817,"x_min":113,"x_max":811,"o":"m 792 753 l 500 413 l 811 0 l 610 0 l 385 307 l 290 240 l 290 0 l 113 0 l 113 753 l 290 753 l 290 557 q 288 464 289 510 q 283 382 286 418 l 286 382 q 326 432 306 407 q 367 481 346 457 l 599 753 l 792 753 z "},"λ":{"ha":768,"x_min":4,"x_max":768,"o":"m 664 -14 q 590 1 619 -14 q 541 45 560 17 q 508 115 522 74 l 431 347 q 411 403 422 374 q 390 465 400 433 q 372 527 379 497 q 361 583 365 557 l 356 583 q 335 471 350 526 q 301 353 319 415 l 194 0 l 4 0 l 278 750 l 254 814 q 191 899 232 878 q 92 921 150 921 q 49 918 68 921 q 15 913 29 915 l 15 1051 q 44 1057 28 1054 q 79 1061 60 1060 q 119 1063 99 1063 q 251 1042 196 1063 q 347 975 307 1022 q 418 844 386 928 l 646 236 q 674 171 663 193 q 697 140 685 149 q 725 132 710 132 q 749 134 739 132 q 768 139 758 136 l 768 6 q 740 -4 758 0 q 702 -11 722 -8 q 664 -14 682 -14 z "},"μ":{"ha":910,"x_min":108,"x_max":874,"o":"m 108 -333 l 108 753 l 285 753 l 285 297 q 320 172 285 214 q 428 129 356 129 q 560 195 521 129 q 599 386 599 261 l 599 753 l 776 753 l 776 207 q 793 144 776 161 q 832 128 810 128 q 856 131 843 128 q 874 135 868 133 l 874 4 q 851 -4 867 0 q 818 -11 836 -8 q 785 -14 800 -14 q 683 11 724 -14 q 619 101 643 36 l 610 101 q 562 38 589 64 q 500 -1 535 13 q 421 -14 465 -14 q 340 2 372 -14 q 282 46 307 18 l 278 46 q 283 -24 281 19 q 285 -117 285 -67 l 285 -333 l 108 -333 z "},"ν":{"ha":757,"x_min":0,"x_max":715,"o":"m 268 0 l 0 753 l 181 753 l 314 340 q 334 278 322 314 q 357 209 346 243 q 374 153 368 175 l 379 153 q 473 317 438 229 q 524 513 508 406 q 540 753 540 619 l 715 753 q 690 477 715 604 q 604 233 665 350 q 433 0 543 117 l 268 0 z "},"ξ":{"ha":711,"x_min":68,"x_max":667,"o":"m 428 -281 q 473 -187 456 -231 q 490 -107 490 -143 q 481 -64 490 -81 q 446 -35 472 -47 q 367 -11 419 -24 q 207 46 274 10 q 104 138 140 82 q 68 281 68 194 q 92 405 68 351 q 163 494 117 458 q 275 549 210 531 l 275 556 q 185 592 221 568 q 131 653 149 617 q 113 738 113 689 q 136 830 113 793 q 204 892 160 867 q 313 932 249 917 q 252 928 286 931 q 188 925 218 926 q 138 924 157 924 l 111 924 l 111 1056 l 667 1056 l 667 932 l 621 932 q 485 924 547 932 q 378 899 424 917 q 309 846 333 881 q 285 757 285 811 q 303 684 285 715 q 367 635 322 653 q 488 617 411 617 l 638 617 l 638 485 l 485 485 q 347 463 400 485 q 270 401 294 442 q 246 304 246 361 q 270 210 246 242 q 342 161 294 178 q 461 129 390 144 q 588 84 544 111 q 646 22 631 57 q 661 -53 661 -12 q 654 -132 661 -94 q 633 -206 647 -169 q 596 -281 618 -242 l 428 -281 z "},"ο":{"ha":857,"x_min":69,"x_max":788,"o":"m 788 378 q 763 212 788 285 q 691 88 738 139 q 577 12 644 38 q 426 -14 510 -14 q 283 12 349 -14 q 171 88 218 38 q 97 212 124 139 q 69 378 69 285 q 113 590 69 504 q 238 722 157 676 q 431 767 318 767 q 616 722 536 767 q 742 590 696 676 q 788 378 788 504 m 250 378 q 269 242 250 300 q 327 154 288 185 q 429 124 367 124 q 531 154 492 124 q 589 242 571 185 q 607 378 607 300 q 588 514 607 458 q 531 599 569 569 q 428 629 492 629 q 292 563 335 629 q 250 378 250 497 z "},"π":{"ha":986,"x_min":28,"x_max":950,"o":"m 803 -14 q 664 38 708 -14 q 619 193 619 90 l 619 619 l 360 619 l 360 0 l 183 0 l 183 619 l 28 619 l 28 753 l 950 753 l 950 619 l 796 619 l 796 208 q 814 146 796 164 q 860 128 832 128 q 901 133 881 128 q 938 144 922 138 l 938 17 q 882 -4 918 6 q 803 -14 846 -14 z "},"ρ":{"ha":849,"x_min":88,"x_max":779,"o":"m 88 -333 l 88 381 q 129 592 88 506 q 246 722 171 678 q 424 767 321 767 q 616 720 536 767 q 738 585 696 674 q 779 371 779 497 q 738 165 779 251 q 623 32 696 78 q 456 -14 550 -14 q 353 1 401 -14 q 265 42 304 15 l 254 42 q 261 -34 258 17 q 264 -140 264 -85 l 264 -333 l 88 -333 m 428 124 q 519 150 481 124 q 578 231 558 176 q 597 369 597 285 q 551 568 597 507 q 421 629 506 629 q 304 570 343 629 q 265 394 265 511 l 265 189 q 340 141 297 158 q 428 124 383 124 z "},"σ":{"ha":889,"x_min":68,"x_max":835,"o":"m 417 -14 q 233 33 311 -14 q 111 166 154 81 q 68 364 68 251 q 117 590 68 504 q 254 715 165 675 q 463 754 343 754 l 835 754 l 835 621 l 663 621 q 724 546 700 586 q 758 458 747 506 q 769 353 769 410 q 749 221 769 286 q 685 103 728 156 q 574 18 642 50 q 417 -14 507 -14 m 419 128 q 520 159 482 128 q 576 244 558 190 q 593 363 593 297 q 584 468 593 421 q 556 553 575 515 q 508 621 538 592 l 467 621 q 347 597 397 621 q 272 516 297 572 q 246 364 246 460 q 263 241 246 294 q 319 158 281 188 q 419 128 357 128 z "},"τ":{"ha":728,"x_min":28,"x_max":675,"o":"m 468 -14 q 344 7 400 -14 q 256 81 289 28 q 222 229 222 133 l 222 621 l 28 621 l 28 753 l 675 753 l 675 621 l 397 621 l 397 233 q 410 172 397 196 q 449 137 424 147 q 504 126 474 126 q 569 132 538 126 q 631 146 601 138 l 631 15 q 560 -5 604 4 q 468 -14 517 -14 z "},"υ":{"ha":864,"x_min":107,"x_max":776,"o":"m 417 -12 q 260 12 321 -12 q 166 82 200 36 q 119 191 132 128 q 107 329 107 254 l 107 753 l 282 753 l 282 326 q 294 212 282 256 q 339 148 307 168 q 425 128 371 128 q 523 157 483 128 q 582 249 563 186 q 601 414 601 313 q 589 585 601 507 q 554 753 576 664 l 731 753 q 756 642 746 696 q 771 532 765 588 q 776 408 776 476 q 685 90 776 192 q 417 -12 594 -12 z "},"φ":{"ha":1083,"x_min":68,"x_max":1017,"o":"m 461 -333 l 461 -8 q 250 53 338 4 q 115 185 163 103 q 68 376 68 268 q 111 570 68 488 q 242 702 154 653 q 461 760 331 751 l 461 1056 l 625 1056 l 625 760 q 837 699 750 749 q 970 568 924 650 q 1017 376 1017 486 q 972 185 1017 268 q 840 53 926 103 q 625 -8 754 3 l 625 -333 l 461 -333 m 461 122 l 461 631 q 344 590 392 622 q 272 503 296 557 q 249 376 249 449 q 272 250 249 304 q 343 163 296 196 q 461 122 390 131 m 625 122 q 743 164 696 132 q 813 250 790 196 q 836 376 836 304 q 782 550 836 485 q 625 628 728 615 l 625 122 z "},"χ":{"ha":849,"x_min":19,"x_max":850,"o":"m 735 -333 q 640 -315 676 -333 q 577 -257 604 -297 q 517 -150 550 -217 l 188 515 q 141 591 163 567 q 85 615 119 615 q 55 613 72 615 q 19 604 38 610 l 19 743 q 63 756 42 750 q 121 761 85 761 q 204 745 171 761 q 265 695 238 729 q 322 603 293 661 l 668 -90 q 701 -145 685 -124 q 736 -177 717 -167 q 783 -187 756 -187 q 815 -186 800 -187 q 850 -181 831 -185 l 850 -317 q 817 -326 833 -322 q 780 -331 800 -329 q 735 -333 760 -333 m 19 -335 l 372 240 l 442 86 l 199 -335 l 19 -335 m 492 135 l 422 290 l 671 753 l 850 753 l 492 135 z "},"ψ":{"ha":1113,"x_min":103,"x_max":1022,"o":"m 469 -333 l 469 -12 q 276 27 358 -8 q 148 143 193 63 q 103 363 103 224 l 103 753 l 272 753 l 272 357 q 297 220 272 268 q 367 153 322 172 q 469 131 413 135 l 469 1056 l 639 1056 l 639 131 q 756 165 710 138 q 826 248 801 193 q 850 390 850 303 q 838 570 850 485 q 799 753 825 656 l 971 753 q 1010 569 999 656 q 1022 392 1022 483 q 972 163 1022 249 q 836 35 922 76 q 639 -12 750 -6 l 639 -333 l 469 -333 z "},"ω":{"ha":1168,"x_min":82,"x_max":1088,"o":"m 372 -14 q 212 34 276 -14 q 115 168 147 82 q 82 365 82 254 q 119 598 82 501 q 211 753 157 694 l 372 753 q 309 659 338 714 q 263 531 281 604 q 246 369 246 458 q 281 190 246 256 q 386 125 317 125 q 455 147 429 125 q 492 207 481 168 q 503 299 503 246 l 503 507 l 665 507 l 665 299 q 678 204 665 243 q 716 145 690 165 q 783 125 742 125 q 861 154 831 125 q 907 238 892 183 q 922 368 922 293 q 907 525 922 454 q 864 653 892 596 q 796 753 836 710 l 958 753 q 1028 653 999 710 q 1072 526 1057 597 q 1088 365 1088 454 q 1055 168 1088 254 q 958 34 1022 82 q 797 -14 893 -14 q 663 24 713 -14 q 588 142 613 63 l 581 142 q 538 55 565 90 q 469 3 510 19 q 372 -14 429 -14 z "},"ϊ":{"ha":521,"x_min":-25,"x_max":482,"o":"m 357 -14 q 214 17 268 -14 q 135 103 160 49 q 111 226 111 157 l 111 753 l 286 753 l 286 244 q 315 152 286 176 q 386 128 344 128 q 436 132 414 128 q 482 142 458 136 l 482 3 q 426 -9 460 -4 q 357 -14 393 -14 m -25 950 q -1 1014 -25 994 q 58 1033 24 1033 q 119 1014 93 1033 q 144 950 144 994 q 119 888 144 908 q 58 868 93 868 q -1 888 24 868 q -25 950 -25 908 m 260 950 q 284 1014 260 994 q 344 1033 308 1033 q 403 1014 378 1033 q 429 950 429 994 q 403 888 429 908 q 344 868 378 868 q 284 888 308 868 q 260 950 260 908 z "},"ϋ":{"ha":864,"x_min":107,"x_max":776,"o":"m 417 -12 q 260 12 321 -12 q 166 82 200 36 q 119 191 132 128 q 107 329 107 254 l 107 753 l 282 753 l 282 326 q 294 212 282 256 q 339 148 307 168 q 425 128 371 128 q 523 157 483 128 q 582 249 563 186 q 601 414 601 313 q 589 585 601 507 q 554 753 576 664 l 731 753 q 756 642 746 696 q 771 532 765 588 q 776 408 776 476 q 685 90 776 192 q 417 -12 594 -12 m 189 950 q 213 1014 189 994 q 272 1033 238 1033 q 333 1014 307 1033 q 358 950 358 994 q 333 888 358 908 q 272 868 307 868 q 213 888 238 868 q 189 950 189 908 m 474 950 q 498 1014 474 994 q 558 1033 522 1033 q 617 1014 592 1033 q 643 950 643 994 q 617 888 643 908 q 558 868 592 868 q 498 888 522 868 q 474 950 474 908 z "},"ό":{"ha":857,"x_min":69,"x_max":788,"o":"m 788 378 q 763 212 788 285 q 691 88 738 139 q 577 12 644 38 q 426 -14 510 -14 q 283 12 349 -14 q 171 88 218 38 q 97 212 124 139 q 69 378 69 285 q 113 590 69 504 q 238 722 157 676 q 431 767 318 767 q 616 722 536 767 q 742 590 696 676 q 788 378 788 504 m 250 378 q 269 242 250 300 q 327 154 288 185 q 429 124 367 124 q 531 154 492 124 q 589 242 571 185 q 607 378 607 300 q 588 514 607 458 q 531 599 569 569 q 428 629 492 629 q 292 563 335 629 q 250 378 250 497 m 386 842 l 386 860 l 453 1078 l 649 1078 l 649 1064 l 499 842 l 386 842 z "},"ύ":{"ha":864,"x_min":107,"x_max":776,"o":"m 417 -12 q 260 12 321 -12 q 166 82 200 36 q 119 191 132 128 q 107 329 107 254 l 107 753 l 282 753 l 282 326 q 294 212 282 256 q 339 148 307 168 q 425 128 371 128 q 523 157 483 128 q 582 249 563 186 q 601 414 601 313 q 589 585 601 507 q 554 753 576 664 l 731 753 q 756 642 746 696 q 771 532 765 588 q 776 408 776 476 q 685 90 776 192 q 417 -12 594 -12 m 371 842 l 371 860 l 438 1078 l 633 1078 l 633 1064 l 483 842 l 371 842 z "},"ώ":{"ha":1175,"x_min":82,"x_max":1088,"o":"m 372 -14 q 212 34 276 -14 q 115 168 147 82 q 82 365 82 254 q 119 598 82 501 q 211 753 157 694 l 372 753 q 309 659 338 714 q 263 531 281 604 q 246 369 246 458 q 281 190 246 256 q 386 125 317 125 q 455 147 429 125 q 492 207 481 168 q 503 299 503 246 l 503 507 l 665 507 l 665 299 q 678 204 665 243 q 716 145 690 165 q 783 125 742 125 q 861 154 831 125 q 907 238 892 183 q 922 368 922 293 q 907 525 922 454 q 864 653 892 596 q 796 753 836 710 l 958 753 q 1028 653 999 710 q 1072 526 1057 597 q 1088 365 1088 454 q 1055 168 1088 254 q 958 34 1022 82 q 797 -14 893 -14 q 663 24 713 -14 q 588 142 613 63 l 581 142 q 538 55 565 90 q 469 3 510 19 q 372 -14 429 -14 m 544 842 l 544 860 l 611 1078 l 807 1078 l 807 1064 l 657 842 l 544 842 z "},"Ё":{"ha":776,"x_min":124,"x_max":697,"o":"m 124 0 l 124 992 l 697 992 l 697 842 l 304 842 l 304 590 l 672 590 l 672 442 l 304 442 l 304 151 l 697 151 l 697 0 l 124 0 m 282 1089 q 221 1113 244 1089 q 197 1181 197 1136 q 222 1249 197 1226 q 282 1272 246 1272 q 345 1249 321 1272 q 369 1181 369 1226 q 345 1113 369 1136 q 282 1089 321 1089 m 553 1089 q 491 1112 514 1089 q 468 1181 468 1135 q 491 1250 468 1228 q 554 1272 514 1272 q 615 1249 592 1272 q 639 1181 639 1226 q 615 1112 639 1135 q 553 1089 590 1089 z "},"Ђ":{"ha":1038,"x_min":22,"x_max":972,"o":"m 674 -18 q 610 -13 640 -18 q 553 -1 579 -8 l 553 142 q 603 133 582 135 q 643 131 624 131 q 753 173 715 131 q 790 292 792 215 l 790 293 q 744 421 790 378 q 606 464 697 464 q 494 450 553 464 q 388 413 436 436 l 435 508 l 435 -1 l 258 -1 l 257 840 l 22 840 l 22 990 l 750 990 l 750 840 l 435 840 l 435 504 l 388 561 q 506 598 443 585 q 636 611 568 611 q 885 528 797 611 q 972 294 972 446 l 972 292 q 936 127 972 197 q 833 19 900 57 q 674 -18 767 -18 z "},"Ѓ":{"ha":754,"x_min":129,"x_max":714,"o":"m 129 0 l 129 992 l 714 992 l 714 842 l 307 842 l 307 0 l 129 0 m 342 1081 l 342 1099 l 481 1303 l 682 1303 l 682 1289 l 458 1081 l 342 1081 z "},"Є":{"ha":899,"x_min":76,"x_max":847,"o":"m 546 -14 q 285 47 390 -14 q 128 222 181 108 q 76 493 76 336 q 134 767 76 651 q 298 944 192 882 q 551 1006 404 1006 q 706 990 633 1006 q 847 940 778 975 l 782 799 q 669 841 722 828 q 563 854 615 854 q 401 815 468 854 q 300 699 335 775 q 263 513 265 622 l 188 581 l 715 581 l 715 435 l 185 435 l 265 504 q 293 303 260 385 q 397 180 326 221 q 572 139 468 139 q 692 151 632 139 q 815 192 753 164 l 815 39 q 689 -1 758 13 q 546 -14 619 -14 z "},"Ѕ":{"ha":761,"x_min":63,"x_max":701,"o":"m 340 -14 q 238 -8 288 -14 q 145 11 189 -1 q 63 42 101 24 l 63 208 q 205 154 135 174 q 344 135 275 135 q 447 151 407 135 q 507 195 488 167 q 526 261 526 224 q 503 332 526 303 q 433 386 479 361 q 318 439 386 411 q 229 483 272 458 q 151 542 186 507 q 96 624 117 576 q 75 735 75 671 q 115 881 75 819 q 230 974 156 942 q 403 1006 304 1006 q 552 989 483 1006 q 690 942 621 972 l 633 799 q 515 840 571 825 q 399 856 458 856 q 317 841 350 856 q 267 800 285 826 q 250 739 250 774 q 271 671 250 699 q 335 619 292 643 q 449 564 379 594 q 585 492 529 529 q 672 401 642 454 q 701 271 701 349 q 658 119 701 183 q 535 21 615 56 q 340 -14 454 -14 z "},"І":{"ha":428,"x_min":124,"x_max":304,"o":"m 124 0 l 124 992 l 304 992 l 304 0 l 124 0 z "},"Ї":{"ha":435,"x_min":31,"x_max":404,"o":"m 129 0 l 129 992 l 307 992 l 307 0 l 129 0 m 113 1094 q 52 1119 74 1094 q 31 1186 31 1143 q 52 1255 31 1231 q 113 1279 74 1279 q 173 1256 151 1279 q 194 1186 194 1232 q 174 1118 194 1142 q 113 1094 153 1094 m 324 1094 q 263 1118 283 1094 q 242 1186 242 1142 q 263 1255 242 1231 q 324 1279 285 1279 q 383 1255 363 1279 q 404 1186 404 1231 q 383 1118 404 1142 q 324 1094 363 1094 z "},"Ј":{"ha":429,"x_min":-106,"x_max":304,"o":"m 11 -281 q -56 -276 -28 -281 q -106 -265 -83 -271 l -106 -117 q -58 -126 -83 -122 q -6 -131 -33 -131 q 60 -117 29 -131 q 108 -65 90 -103 q 126 42 126 -28 l 126 992 l 304 992 l 304 46 q 267 -142 304 -71 q 165 -247 231 -214 q 11 -281 99 -281 z "},"Љ":{"ha":1424,"x_min":7,"x_max":1358,"o":"m 117 -15 q 60 -11 90 -15 q 7 0 31 -7 l 7 154 q 42 146 25 149 q 76 143 58 143 q 140 160 115 143 q 178 217 164 178 q 197 324 193 257 q 207 446 203 382 q 215 588 211 510 q 225 764 219 665 q 236 992 231 863 l 858 992 l 858 633 l 978 633 q 1263 554 1167 633 q 1358 318 1358 475 q 1262 81 1358 163 q 978 0 1165 0 l 681 0 l 681 842 l 392 842 q 384 682 388 757 q 377 540 381 607 q 369 413 374 474 q 358 296 364 353 q 320 117 349 186 q 242 17 292 49 q 117 -15 193 -15 m 858 149 l 968 149 q 1124 191 1074 149 q 1175 319 1175 233 q 1125 445 1175 406 q 967 485 1075 485 l 858 485 l 858 149 z "},"Њ":{"ha":1457,"x_min":129,"x_max":1392,"o":"m 129 0 l 129 992 l 307 992 l 307 608 l 711 608 l 711 992 l 889 992 l 889 608 l 1010 608 q 1294 531 1197 608 q 1392 304 1392 453 q 1294 78 1392 157 q 1011 0 1197 0 l 711 0 l 711 460 l 307 460 l 307 0 l 129 0 m 889 149 l 1001 149 q 1158 188 1107 149 q 1210 307 1210 228 q 1158 422 1210 385 q 1000 460 1107 460 l 889 460 l 889 149 z "},"Ћ":{"ha":1047,"x_min":22,"x_max":964,"o":"m 258 0 l 258 842 l 22 842 l 22 992 l 747 992 l 747 842 l 435 842 l 435 494 l 383 558 q 515 594 449 582 q 647 607 581 607 q 883 531 803 607 q 963 293 964 456 l 961 0 l 785 0 l 785 293 q 742 419 785 379 q 607 460 699 460 q 496 447 551 460 q 382 410 440 433 l 435 508 l 435 0 l 258 0 z "},"Ќ":{"ha":918,"x_min":129,"x_max":917,"o":"m 711 0 l 382 500 l 382 528 l 696 992 l 885 992 l 553 504 l 554 546 l 917 0 l 711 0 m 129 0 l 129 992 l 306 992 l 306 0 l 129 0 m 226 442 l 226 592 l 463 592 l 463 442 l 226 442 m 379 1081 l 379 1099 l 518 1303 l 719 1303 l 719 1289 l 496 1081 l 379 1081 z "},"Ў":{"ha":881,"x_min":10,"x_max":881,"o":"m 217 -14 q 157 -10 188 -14 q 99 3 126 -6 l 99 156 q 145 147 122 150 q 196 143 168 143 q 286 162 251 143 q 344 219 321 181 q 389 315 368 258 l 400 185 l 10 992 l 204 992 l 415 518 q 429 487 421 506 q 446 449 438 468 q 460 413 454 429 l 465 413 q 478 447 471 426 q 494 488 486 467 q 508 525 503 508 l 699 992 l 881 992 l 579 294 q 480 115 531 183 q 367 17 429 47 q 217 -14 304 -14 m 464 1071 q 285 1122 350 1071 q 208 1278 221 1172 l 363 1278 q 394 1201 369 1226 q 464 1176 419 1176 q 533 1201 507 1176 q 565 1278 558 1226 l 718 1278 q 641 1122 706 1172 q 464 1071 576 1071 z "},"Џ":{"ha":1046,"x_min":129,"x_max":917,"o":"m 438 -211 l 438 0 l 129 0 l 129 992 l 307 992 l 307 150 l 739 150 l 739 992 l 917 992 l 917 0 l 608 0 l 608 -211 l 438 -211 z "}}}
